<?xml version="1.0" standalone="no"?>
<!DOCTYPE svg PUBLIC "-//W3C//DTD SVG 1.1//EN" "http://www.w3.org/Graphics/SVG/1.1/DTD/svg11.dtd" >
<svg>
<metadata>
Created by FontForge 20090914 at Mon Feb 15 08:42:51 2016
 By www-data
Freestyle Script is a trademark of Esselte Pendaflex Corporation in the USA, of Letraset Canada Ltd. in Canada, and of Esselte Letraset Ltd. elsewhere.
</metadata>
<defs>
<font id="UVFFuturaLT" horiz-adv-x="578" >
  <font-face 
    font-family="UVF Futura LT"
    font-weight="400"
    font-stretch="normal"
    units-per-em="1000"
    panose-1="2 0 5 3 0 0 0 0 0 0"
    ascent="800"
    descent="-200"
    x-height="468"
    cap-height="754"
    bbox="-163 -268 1113 1193"
    underline-thickness="75"
    underline-position="-150"
    unicode-range="U+0020-U+FB02"
  />
<missing-glyph horiz-adv-x="289" 
 />
    <glyph glyph-name=".notdef" horiz-adv-x="289" 
 />
    <glyph glyph-name="space" unicode=" " horiz-adv-x="289" 
 />
    <glyph glyph-name="exclam" unicode="!" horiz-adv-x="321" 
d="M219 42c0 -16 -5.66699 -29.667 -17 -41s-25 -17 -41 -17s-29.667 5.66699 -41 17s-17 25 -17 41c0 15.333 5.66699 28.833 17 40.5s25 17.5 41 17.5s29.667 -5.83301 41 -17.5s17 -25.167 17 -40.5zM116 754h90v-580h-90v580z" />
    <glyph glyph-name="quotedbl" unicode="&#x22;" horiz-adv-x="439" 
d="M188 754l-18 -328h-62l-18 328h98zM349 754l-18 -328h-62l-18 328h98z" />
    <glyph glyph-name="numbersign" unicode="#" 
d="M294 718l-36 -194h124l35 194h79l-35 -194h92v-80h-107l-27 -154h101v-80h-117l-38 -210h-76l37 210h-123l-40 -210h-75l37 210h-100v80h115l27 154h-105v80h119l36 194h77zM218 290h123l27 154h-123z" />
    <glyph glyph-name="dollar" unicode="$" 
d="M333 78c15.333 3.33301 29.334 9.33301 42.001 18s23.667 19 33 31s16.666 25.5 21.999 40.5s8 30.5 8 46.5c0 52.667 -35 97.667 -105 135v-271zM283.001 860l50.001 0.00292969v-90c76 -6.66699 133 -45.334 171 -116.001l-79 -45
c-18.667 36 -49.334 60.667 -92.001 74v-235c60 -26 107.5 -56.833 142.5 -92.5s52.5 -81.5 52.5 -137.5c0 -55.333 -19.333 -106.333 -58 -153c-38 -46.667 -83.667 -73.667 -137 -81v-95h-50v95c-58.667 1.33301 -109.667 22 -153 62
c-44.667 41.333 -71.334 90.666 -80.001 147.999l90 19c8.66699 -44 24 -77.167 46 -99.5s54.333 -36.166 97 -41.499v300l-36 18c-23.333 12 -44 24.167 -62 36.5s-33 25.666 -45 39.999s-21.167 30.166 -27.5 47.499s-9.5 37 -9.5 59c0 50 17.333 94.333 52 133
s77.334 60 128.001 64v90zM283.002 683.003c-26.667 -4 -48.833 -15.667 -66.5 -35s-26.5 -42 -26.5 -68c0 -47.333 31 -83.333 93 -108v211z" />
    <glyph glyph-name="percent" unicode="%" horiz-adv-x="708" 
d="M69 719c34.667 34 76 50.999 124 50.999c47.333 0 88.666 -17 123.999 -51c34.667 -32.667 52 -73 52 -121c0 -47.333 -17.667 -87.666 -53 -120.999s-76.333 -50 -123 -50c-47.333 0 -88.666 16.667 -123.999 50c-34.667 32.667 -52 73 -52 121s17.333 88.333 52 121z
M77 597.999c0 -30 11.333 -56 34 -78s50 -33 82 -33c30.667 0 57.667 11 81 33s35 48 35 78c0 30.667 -11.667 57 -35 79s-50.333 33 -81 33c-32 0 -59.333 -11 -82 -33s-34 -48.333 -34 -79zM597 743.999l-440 -760l-46 25l441 761zM392 275.999
c34.667 34 76 50.999 124 50.999c47.333 0 88.666 -17 123.999 -51c34.667 -32.667 52 -73 52 -121c0 -47.333 -17.667 -87.666 -53 -120.999s-76.333 -50 -123 -50c-47.333 0 -88.666 16.667 -123.999 50c-34.667 32.667 -52 73 -52 121s17.333 88.333 52 121zM400 154.998
c0 -30 11.333 -56 34 -78s50 -33 82 -33c30.667 0 57.667 11 81 33s35 48 35 78c0 30.667 -11.667 57 -35 79s-50.333 33 -81 33c-32 0 -59.333 -11 -82 -33s-34 -48.333 -34 -79z" />
    <glyph glyph-name="ampersand" unicode="&#x26;" horiz-adv-x="692" 
d="M278 366c-0.666992 -0.666992 -7.33301 -5.33301 -20 -14l-16 -11c-4 -2.66699 -6.66699 -4.66699 -8 -6s-4 -3.16602 -8 -5.49902s-8.66699 -5.83301 -14 -10.5c-11.333 -9.33301 -19 -16 -23 -20s-10 -10.333 -18 -19s-13.667 -16.334 -17 -23.001
c-2.66699 -6.66699 -5.5 -14.5 -8.5 -23.5s-4.5 -17.833 -4.5 -26.5c0 -36 14.333 -68.333 43 -97c28.667 -28 61 -42 97 -42c22 0 44.333 5.66699 67 17s41 23 55 35s31 28 51 48l-167 204zM319.001 498.001c1.33301 1.33301 3.49902 3.16797 6.49902 5.50098
s7.16699 5.16602 12.5 8.49902c5.33301 4 9.83301 7.5 13.5 10.5s6.5 5.16699 8.5 6.5l17 17c10 10 17.833 20.167 23.5 30.5s8.5 22.833 8.5 37.5c0 26 -8.16699 46.167 -24.5 60.5s-37.5 21.5 -63.5 21.5c-23.333 0 -43.166 -7.5 -59.499 -22.5s-24.5 -34.167 -24.5 -57.5
c0 -12 2.66699 -24.167 8 -36.5s10 -21.833 14 -28.5l9.5 -12l13.5 -17l25 -32zM510 102.003c-66.667 -78.667 -141.997 -117.997 -225.997 -117.997c-64.667 0 -119.334 21 -164.001 63s-67 95 -67 159c0 22 2.83301 41.833 8.5 59.5s14 34.167 25 49.5
s24.667 30.333 41 45s35.5 30 57.5 46l47 34c-55.333 58.667 -83 113.667 -83 165c0 25.333 4.33301 48.166 13 68.499s20.667 37.666 36 51.999s33.666 25.333 54.999 33s44.666 11.5 69.999 11.5c48.667 0 89.667 -14.333 123 -43c34 -28 51 -66 51 -114
c0 -40.667 -15.333 -77.334 -46 -110.001l-22 -21.5c-6.66699 -6.33301 -13.5 -12.5 -20.5 -18.5l-22 -18l-26.5 -20l157 -190l88 102l60 -62l-92 -108l135 -167h-116z" />
    <glyph glyph-name="quotesingle" unicode="'" horiz-adv-x="277" 
d="M188 754l-18 -328h-62l-18 328h98z" />
    <glyph glyph-name="parenleft" unicode="(" horiz-adv-x="292" 
d="M235 754c-57.333 -120.667 -86 -269.332 -86 -445.999s28.667 -325.334 86 -446.001l-74 -55c-35.333 69.333 -61.333 148 -78 236c-17.333 90.667 -26 179 -26 265s8.66699 174.333 26 265c17.333 89.333 43.333 168 78 236z" />
    <glyph glyph-name="parenright" unicode=")" horiz-adv-x="292" 
d="M131 809c34.667 -68 60.667 -146.669 78 -236.002c17.333 -90.667 26 -179 26 -265s-8.66699 -174.333 -26 -265c-16.667 -88 -42.667 -166.667 -78 -236l-74 55c57.333 120.667 86 269.334 86 446.001s-28.667 325.334 -86 446.001z" />
    <glyph glyph-name="asterisk" unicode="*" horiz-adv-x="432" 
d="M253 754v-95l81 48l35 -59l-85 -50l85 -50l-35 -58l-81 50v-96h-69v97l-87 -49l-34 57l85 49l-84 50l31 57l89 -49v98h69z" />
    <glyph glyph-name="plus" unicode="+" 
d="M332 512v-213h213v-86h-213v-213h-86v213h-213v86h213v213h86z" />
    <glyph glyph-name="comma" unicode="," horiz-adv-x="289" 
d="M242 88l-133 -267l-55 23l110 275z" />
    <glyph glyph-name="hyphenminus" unicode="-" horiz-adv-x="332" 
d="M276 358v-75h-219v75h219z" />
    <glyph glyph-name="period" unicode="." horiz-adv-x="289" 
d="M203 42c0 -16 -5.66699 -29.667 -17 -41s-25 -17 -41 -17s-29.667 5.66699 -41 17s-17 25 -17 41c0 15.333 5.66699 28.833 17 40.5s25 17.5 41 17.5s29.667 -5.83301 41 -17.5s17 -25.167 17 -40.5z" />
    <glyph glyph-name="slash" unicode="/" horiz-adv-x="551" 
d="M520 836l-417 -962l-71 32l416 962z" />
    <glyph glyph-name="zero" unicode="0" 
d="M26 377c0 42 4.83887 84.5 14.5059 127.5s24.167 84.833 43.5 125.5c19.333 42 46.833 75.833 82.5 101.5s76.5 38.5 122.5 38.5s86.833 -12.833 122.5 -38.5s63.167 -59.5 82.5 -101.5c19.333 -40.667 33.833 -82.5 43.5 -125.5s14.5 -85.5 14.5 -127.5
c0 -25.333 -2 -52.833 -6 -82.5s-10.333 -59 -19 -88s-19.834 -57 -33.501 -84s-30.334 -50.667 -50.001 -71s-42.334 -36.666 -68.001 -48.999s-54.5 -18.5 -86.5 -18.5s-60.833 6.16699 -86.5 18.5s-48.334 28.666 -68.001 48.999s-36.334 44 -50.001 71
s-24.834 55 -33.501 84s-15 58.167 -19 87.5s-6 57 -6 83zM372.006 656c-22.667 22.667 -50.333 33.999 -83 33.999s-60.667 -11.333 -84 -34c-23.333 -22 -41.166 -49.833 -53.499 -83.5s-21.5 -67.5 -27.5 -101.5c-5.33301 -32.667 -8 -63.667 -8 -93
s2.66699 -60.333 8 -93c6 -32.667 15.167 -66 27.5 -100s30.166 -62 53.499 -84c12 -11.333 25.167 -19.666 39.5 -24.999s29 -8 44 -8s29.667 2.66699 44 8s27.5 13.666 39.5 24.999c12 10.667 22.5 23.334 31.5 38.001s16.667 30 23 46s11.666 32.667 15.999 50
s7.83301 34 10.5 50c6 32.667 9 63.667 9 93s-3 60.333 -9 93c-5.33301 33.333 -14.166 67 -26.499 101s-30.5 62 -54.5 84z" />
    <glyph glyph-name="one" unicode="1" 
d="M123 668l52 86h169v-754h-90v668h-131z" />
    <glyph glyph-name="two" unicode="2" 
d="M532 86v-85.998h-487l330 405c44.667 54.667 67 99.667 67 135c0 39.333 -15 73 -45 101c-28.667 28.667 -63 43 -103 43c-37.333 0 -70.333 -13.667 -99 -41c-28 -26.667 -43.333 -59 -46 -97h-94c4 34 12.333 64.833 25 92.5s29.167 51.167 49.5 70.5
s44.333 34.333 72 45s58.5 16 92.5 16c64.667 0 120.667 -21.667 168 -65c46.667 -42.667 70 -96.334 70 -161.001c0 -56.667 -18.667 -108.334 -56 -155.001l-248 -303h304z" />
    <glyph glyph-name="three" unicode="3" 
d="M275 438c98.667 0 147.999 40.3359 147.999 121.003c0 18.667 -3.33301 36 -10 52s-15.667 29.667 -27 41s-25.166 20.166 -41.499 26.499s-33.833 9.5 -52.5 9.5c-34 0 -62 -9.83301 -84 -29.5s-35.667 -45.834 -41 -78.501h-93c8.66699 62.667 32 110 70 142
s88.333 48 151 48c62 0 113.667 -18.667 155 -56c42 -37.333 63 -86.333 63 -147c0 -77.333 -32 -134 -96 -170c71.333 -34 107 -96.333 107 -187c0 -69.333 -23 -124.333 -69 -165c-44.667 -40.667 -102 -61 -172 -61c-60.667 0 -113.667 18.667 -159 56
c-44 36.667 -67.667 85.334 -71 146.001h91c2 -18 7.33301 -34.333 16 -49s19.5 -27.334 32.5 -38.001s27.833 -18.834 44.5 -24.501s34.334 -8.5 53.001 -8.5c42 0 76.333 14.333 103 43c27.333 29.333 41 64.333 41 105c0 48 -14.833 85.167 -44.5 111.5
s-67.834 37.833 -114.501 34.5v78z" />
    <glyph glyph-name="four" unicode="4" 
d="M555 192v-82h-86v-110h-90v110h-372l462 676v-594h86zM379 503h-2l-212 -311h214v311z" />
    <glyph glyph-name="five" unicode="5" 
d="M291 668l-47 -155l53 3c70.667 0 128.667 -26 174 -78c45.333 -52.667 68 -114.667 68 -186c0 -78.667 -27 -143 -81 -193c-53.333 -50 -119.333 -75 -198 -75c-24 0 -47.333 3 -70 9s-44.167 14.833 -64.5 26.5s-38.666 25.667 -54.999 42s-29.833 34.5 -40.5 54.5
l70 66c11.333 -31.333 33.333 -58 66 -80c33.333 -21.333 67 -32 101 -32c50.667 0 93.667 18 129 54c35.333 37.333 53 81 53 131c0 48.667 -18 90.667 -54 126c-35.333 35.333 -77.333 53 -126 53c-26.667 0 -52.834 -6 -78.501 -18s-46.5 -28.333 -62.5 -49h-18l116 387
h302v-86h-237z" />
    <glyph glyph-name="six" unicode="6" 
d="M447 724l-201.001 -271.998l2 -2c24 12 48.667 18 74 18c60.667 0 112 -24 154 -72c42.667 -46.667 64 -101.334 64 -164.001c0 -68.667 -24.333 -127.334 -73 -176.001c-49.333 -48 -108 -72 -176 -72c-65.333 0 -123.666 23.667 -174.999 71
c-50.667 48 -76 104.667 -76 170c0 60 27.333 126.333 82 199l257 346zM289.999 68.002c43.333 0 80.666 15.332 111.999 45.999c32 30.667 48 66.667 48 108c0 46 -16.333 84.333 -49 115c-33.333 31.333 -70.333 47 -111 47c-41.333 0 -78.333 -16 -111 -48
s-49 -68.333 -49 -109c0 -43.333 15.667 -80.666 47 -111.999c32.667 -31.333 70.334 -47 113.001 -47z" />
    <glyph glyph-name="seven" unicode="7" 
d="M47 668v86h543l-470 -770l-73 45l390 639h-390z" />
    <glyph glyph-name="eight" unicode="8" 
d="M143 210c0 -37.333 15 -70.333 45 -99c29.333 -28.667 63 -43 101 -43s71.667 14.333 101 43c30 28.667 45 61.667 45 99c0 39.333 -14.667 72.666 -44 99.999c-29.333 28 -63.333 42 -102 42c-39.333 0 -73.333 -14 -102 -42c-29.333 -27.333 -44 -60.666 -44 -99.999z
M53 210c0 42 10.333 79.334 31 112.001s50 55.667 88 69c-66 36.667 -99 93 -99 169c0 60.667 20.667 110.667 62 150c42 40 93.333 60 154 60s111.667 -20 153 -60c42 -39.333 63 -89.333 63 -150c0 -76 -33 -132.333 -99 -169c38 -13.333 67.333 -36.333 88 -69
s31 -70 31 -112c0 -68.667 -23 -123.334 -69 -164.001c-45.333 -41.333 -101 -62 -167 -62c-65.333 0 -121.333 20.667 -168 62c-45.333 41.333 -68 96 -68 164zM161 560.001c0 -30.667 13.334 -59.667 40.001 -87c27.333 -27.333 56.666 -41 87.999 -41
c30.667 0 59.667 13.667 87 41c27.333 28.667 41 57.667 41 87c0 36 -13 66.667 -39 92c-25.333 25.333 -55 38 -89 38c-33.333 0 -63.333 -12.667 -90 -38c-25.333 -25.333 -38 -56 -38 -92z" />
    <glyph glyph-name="nine" unicode="9" 
d="M145 31l201 271l-2 2c-20 -9.33301 -44.333 -14 -73 -14c-61.333 0 -113.333 23.333 -156 70c-42 46.667 -63 100.667 -63 162c0 68.667 24.333 127 73 175c48.667 48.667 107.334 73 176.001 73c65.333 0 123.666 -24 174.999 -72c50.667 -46.667 76 -103 76 -169
c0 -60 -27.333 -126.333 -82 -199l-257 -346zM302 370c46.667 0 85.001 15.667 115.001 47c30 30.667 45 67.667 45 111c0 40 -15.667 76.333 -47 109c-30.667 32.667 -66.334 49 -107.001 49c-44.667 0 -83.667 -15.667 -117 -47c-32.667 -30.667 -49 -67.667 -49 -111
c0 -44 16.333 -81.333 49 -112s69.667 -46 111 -46z" />
    <glyph glyph-name="colon" unicode=":" horiz-adv-x="289" 
d="M203 42c0 -16 -5.66699 -29.667 -17 -41s-25 -17 -41 -17s-29.667 5.66699 -41 17s-17 25 -17 41c0 15.333 5.66699 28.833 17 40.5s25 17.5 41 17.5s29.667 -5.83301 41 -17.5s17 -25.167 17 -40.5zM203 424c0 -16 -5.66699 -29.667 -17 -41s-25 -17 -41 -17
s-29.667 5.66699 -41 17s-17 25 -17 41c0 15.333 5.66699 28.833 17 40.5s25 17.5 41 17.5s29.667 -5.83301 41 -17.5s17 -25.167 17 -40.5z" />
    <glyph glyph-name="semicolon" unicode=";" horiz-adv-x="289" 
d="M234 88l-133 -267l-55 23l110 275zM250 424c0 -16 -5.66699 -29.667 -17 -41s-25 -17 -41 -17s-29.667 5.66699 -41 17s-17 25 -17 41c0 15.333 5.66699 28.833 17 40.5s25 17.5 41 17.5s29.667 -5.83301 41 -17.5s17 -25.167 17 -40.5z" />
    <glyph glyph-name="less" unicode="&#x3c;" 
d="M545 404l-384 -148l384 -148v-94l-512 207v70l512 207v-94z" />
    <glyph glyph-name="equal" unicode="=" 
d="M545 385v-86h-512v86h512zM545 213v-86h-512v86h512z" />
    <glyph glyph-name="greater" unicode="&#x3e;" 
d="M33 498l512 -207v-70l-512 -207v94l384 148l-384 148v94z" />
    <glyph glyph-name="question" unicode="?" horiz-adv-x="453" 
d="M391 345c2 -42 -13.667 -79.6602 -47 -112.993c-33.333 -32 -71.666 -48 -114.999 -48c-45.333 0 -83.333 15.333 -114 46c-31.333 31.333 -47 69.333 -47 114c0 21.333 2.83301 39.666 8.5 54.999s13.834 28.5 24.501 39.5s23.834 20.667 39.501 29
s33.5 16.166 53.5 23.499c2 0.666992 4.83301 1.66699 8.5 3s7.5 2.83301 11.5 4.5s8 3.16699 12 4.5l9 3c2 0.666992 4.5 1.66699 7.5 3s6.83301 2.66602 11.5 3.99902c8.66699 4 14.667 7.16699 18 9.5s8.33301 5.5 15 9.5c21.333 15.333 32 36.666 32 63.999
c0 28 -8.66699 49.833 -26 65.5s-39.333 23.5 -66 23.5c-12 0 -23.167 -2.33301 -33.5 -7s-19.333 -10.834 -27 -18.501s-13.834 -16.667 -18.501 -27s-7 -21.5 -7 -33.5c0 -6.66699 2 -17.334 6 -32.001h-94l-2 33c-3.33301 46.667 13.667 86.667 51 120s80 50 128 50
c50 0 92.667 -17 128 -51c34.667 -34 52 -76 52 -126c0 -52 -18 -93.333 -54 -124c-22 -18.667 -63.333 -37.334 -124 -56.001c-48.667 -14.667 -73 -39 -73 -73c0 -20 6.66699 -37 20 -51s30 -21 50 -21c21.333 0 38.666 7.5 51.999 22.5s19.666 33.167 18.999 54.5h91z
M287 42.0068c0 -16 -5.66699 -29.667 -17 -41s-25 -17 -41 -17s-29.667 5.66699 -41 17s-17 25 -17 41c0 15.333 5.66699 28.833 17 40.5s25 17.5 41 17.5s29.667 -5.83301 41 -17.5s17 -25.167 17 -40.5z" />
    <glyph glyph-name="at" unicode="@" horiz-adv-x="800" 
d="M503 372c4.66699 40 -2.16504 71.168 -20.498 93.501s-45.5 33.5 -81.5 33.5c-38 0 -69.667 -15.667 -95 -47c-24.667 -30.667 -37 -66 -37 -106c0 -15.333 2.33301 -29.833 7 -43.5s11.5 -25.834 20.5 -36.501s19.5 -19 31.5 -25s25.667 -9 41 -9
c41.333 0 72.666 13.167 93.999 39.5s34.666 59.833 39.999 100.5zM542.001 568.001l70.9961 0.00292969l-50 -257c-6 -17.333 -9 -36 -9 -56c0.666992 -20 8.33398 -30 23.001 -30c24 0 48 20 72 60s36 84 36 132c0 82.667 -25.667 148.667 -77 198
c-51.333 50 -115.666 75 -192.999 75c-84 0 -155 -30.667 -213 -92c-57.333 -61.333 -86 -135 -86 -221c0 -90 30.667 -164.667 92 -224c62.667 -59.333 137.334 -89 224.001 -89c86 0 148 16 186 48l75 -60c-44 -23.333 -84.667 -40.333 -122 -51
c-40 -11.333 -89 -17 -147 -17c-109.333 0 -201.333 37.333 -276 112s-112 168.334 -112 281.001c0 111.333 36.667 204.666 110 279.999c74 75.333 164.667 113 272 113c92.667 0 171 -29 235 -87c74.667 -64.667 112 -141.334 112 -230.001
c0 -86.667 -20.667 -157.334 -62 -212.001c-22.667 -30 -47.667 -52.333 -75 -67s-53.666 -21.334 -78.999 -20.001c-28.667 0.666992 -46.667 21.334 -54 62.001c-41.333 -41.333 -86.666 -62 -135.999 -62c-44.667 0 -84 18 -118 54c-33.333 37.333 -50 81 -50 131
c0 63.333 19 118.666 57 165.999c38 48 87 72 147 72c51.333 0 95.666 -23.667 132.999 -71z" />
    <glyph glyph-name="A" unicode="A" horiz-adv-x="703" 
d="M179 189l-86 -189h-101l360 786l360 -786h-101l-86 189h-346zM352 580l-134 -305h268z" />
    <glyph glyph-name="B" unicode="B" horiz-adv-x="535" 
d="M158 420h24.001c26 0 49 2 69 6s37 10.667 51 20s24.5 22.166 31.5 38.499s10.5 36.833 10.5 61.5c0 24 -3.5 44 -10.5 60s-17.333 28.833 -31 38.5s-30.334 16.334 -50.001 20.001s-42.5 5.5 -68.5 5.5h-26v-250zM158.001 84l72 -0.00195312
c118.667 0 178 44.333 178 133c0 25.333 -5.83301 46.833 -17.5 64.5s-27.5 30.834 -47.5 39.501s-40.333 14.834 -61 18.501s-42.667 5.5 -66 5.5h-58v-261zM64.001 753.998h91.998c38.667 0 73.334 -3 104.001 -9s59.334 -16.333 86.001 -31
c28 -14 49.333 -35.167 64 -63.5s22 -62.833 22 -103.5c0 -14 -2 -28.333 -6 -43s-9.5 -28.5 -16.5 -41.5s-15.5 -24.5 -25.5 -34.5s-21 -18 -33 -24v-2c42.667 -8 78.667 -30.667 108 -68c28.667 -36.667 43 -77.667 43 -123c0 -71.333 -25.333 -124.333 -76 -159
s-112.667 -52 -186 -52h-176v754z" />
    <glyph glyph-name="C" unicode="C" horiz-adv-x="661" 
d="M621 610c-55.333 49.333 -121.666 74 -198.999 74c-83.333 0 -154 -30.333 -212 -91c-57.333 -60.667 -86 -133 -86 -217c0 -83.333 28.333 -155.333 85 -216c56.667 -60 127 -90 211 -90c76 0 143 26 201 78v-111c-60.667 -35.333 -126.667 -53 -198 -53
c-108 0 -200.667 37.667 -278 113c-76.667 74.667 -115 166.667 -115 276c0 110.667 39 204.667 117 282c77.333 76.667 172 115 284 115c71.333 0 134.666 -17 189.999 -51v-109z" />
    <glyph glyph-name="D" unicode="D" horiz-adv-x="665" 
d="M64 754l155.999 -0.000976562c122.667 0 223.667 -32.333 303 -97c80 -64 120 -156 120 -276c0 -123.333 -39.667 -217.666 -119 -282.999s-181.666 -98 -306.999 -98h-153v754zM157.999 85.999l33.002 0.000976562c48.667 0 94.667 4.83301 138 14.5
s81.166 26 113.499 49s58.166 53 77.499 90s29 82.833 29 137.5c0 54 -9.5 100.167 -28.5 138.5s-45.5 68.166 -79.5 89.499c-34 22 -71.5 38 -112.5 48s-86.833 15 -137.5 15h-33v-582z" />
    <glyph glyph-name="E" unicode="E" horiz-adv-x="521" 
d="M72 754h405v-86h-311v-211h302v-86h-302v-285h311v-86h-405v754z" />
    <glyph glyph-name="F" unicode="F" horiz-adv-x="474" 
d="M165 668v-212h262v-86h-262v-370h-94v754h365v-86h-271z" />
    <glyph glyph-name="G" unicode="G" horiz-adv-x="780" 
d="M759 380v-30c0 -105.333 -33.333 -192.666 -100 -261.999c-67.333 -69.333 -153 -104 -257 -104s-193.667 38.667 -269 116c-74.667 77.333 -112 169 -112 275c0 108.667 38 201.667 114 279c77.333 77.333 169.666 116 276.999 116c60 0 117 -12.833 171 -38.5
s99.333 -61.5 136 -107.5l-66 -63c-28 38 -63 68 -105 90s-86 33 -132 33c-84 0 -155.333 -30 -214 -90c-58 -59.333 -87 -131.333 -87 -216c0 -80 28.667 -151.667 86 -215c58 -62 127 -93 207 -93c60.667 0 116.334 22.333 167.001 67c51.333 45.333 78 97.666 80 156.999
h-195v86h299z" />
    <glyph glyph-name="H" unicode="H" horiz-adv-x="675" 
d="M517 450v304h94v-754h-94v362h-359v-362h-94v754h94v-304h359z" />
    <glyph glyph-name="I" unicode="I" horiz-adv-x="232" 
d="M163 0h-94v754h94v-754z" />
    <glyph glyph-name="J" unicode="J" horiz-adv-x="362" 
d="M303 754v-478.998c0 -40.667 -2.5 -76.5 -7.5 -107.5s-14.5 -61.5 -28.5 -91.5c-13.333 -29.333 -34.333 -52 -63 -68c-28 -16 -63 -24 -105 -24s-81.333 11 -118 33l47 80c21.333 -16.667 46.333 -25 75 -25c14.667 0 27.834 2.66699 39.501 8s21.167 11.333 28.5 18
s13.666 16.667 18.999 30s9 24.666 11 33.999c2.66699 8.66699 4.66699 22 6 40c0.666992 8.66699 1.16699 16.167 1.5 22.5s0.5 11.166 0.5 14.499v36v479h94z" />
    <glyph glyph-name="K" unicode="K" horiz-adv-x="600" 
d="M486 754h123l-339 -339l345 -415h-127l-284 351l-38 -36v-315h-94v754h94v-327z" />
    <glyph glyph-name="L" unicode="L" horiz-adv-x="414" 
d="M166 86h229v-86h-323v754h94v-668z" />
    <glyph glyph-name="M" unicode="M" horiz-adv-x="851" 
d="M200 498h-2l-88 -498h-97l154 786l259 -594l259 594l154 -786h-97l-88 498h-2l-226 -514z" />
    <glyph glyph-name="N" unicode="N" horiz-adv-x="785" 
d="M63 790l566 -593v557h94v-785l-566 593v-562h-94v790z" />
    <glyph glyph-name="O" unicode="O" horiz-adv-x="828" 
d="M809 377c0 -112 -38.335 -205.333 -115.002 -280c-77.333 -75.333 -170.666 -113 -279.999 -113s-202.666 37.667 -279.999 113c-76.667 74.667 -115 168 -115 280c0 107.333 38.667 199.666 116 276.999c78.667 77.333 171.667 116 279 116
c108 0 200.667 -38.667 278 -116c78 -77.333 117 -169.666 117 -276.999zM714.998 377c0 84.667 -28.6689 156.667 -86.002 216s-129 89 -215 89c-86.667 0 -158.667 -29.667 -216 -89c-56.667 -58.667 -85 -130.667 -85 -216s29.667 -157.666 89 -216.999
c58.667 -58.667 129.334 -88 212.001 -88s153.334 29.333 212.001 88c59.333 59.333 89 131.666 89 216.999z" />
    <glyph glyph-name="P" unicode="P" horiz-adv-x="495" 
d="M166 0h-94.001v754h108c112 0 190.333 -18.333 235 -55c46 -36 69 -90.333 69 -163c0 -74.667 -24.667 -130 -74 -166s-112.666 -54 -189.999 -54h-54v-316zM165.999 400l29.999 0.000976562c28 0 52.333 1.66699 73 5s41.334 9.33301 62.001 18
c20.667 9.33301 36.667 23.666 48 42.999s17 43.333 17 72c0 28 -6 51.333 -18 70s-29 32 -51 40c-22 8.66699 -43.167 14.5 -63.5 17.5s-44.5 4.5 -72.5 4.5h-25v-270z" />
    <glyph glyph-name="Q" unicode="Q" horiz-adv-x="828" 
d="M694 -16l-65 67c-64.667 -44.667 -136.334 -67 -215.001 -67c-109.333 0 -202.666 37.667 -279.999 113c-76.667 74.667 -115 168 -115 280c0 107.333 38.667 199.666 116 276.999c78.667 77.333 171.667 116 279 116c108 0 200.667 -38.667 278 -116
c78 -77.333 117 -169.666 117 -276.999c0 -54 -10.167 -104.833 -30.5 -152.5s-49.5 -89.5 -87.5 -125.5l117 -115h-114zM627 166c14 12 26.499 26.332 37.499 42.999s20.167 34.167 27.5 52.5s13 37.333 17 57s6 39.167 6 58.5c0 84.667 -28.667 156.667 -86 216
s-129 89 -215 89c-86.667 0 -158.667 -29.667 -216 -89c-56.667 -58.667 -85 -130.667 -85 -216s29.667 -157.666 89 -216.999c58.667 -58.667 129.334 -88 212.001 -88c55.333 0 105.333 14.333 150 43l-173 169h117z" />
    <glyph glyph-name="R" unicode="R" horiz-adv-x="543" 
d="M541 0l-113.999 0.000976562l-222 319h-39v-319h-94v754h114c14.667 0 27.667 -0.166992 39 -0.5s21.333 -0.833008 30 -1.5c17.333 -0.666992 38.666 -3.66699 63.999 -9c24.667 -5.33301 46.667 -13.333 66 -24c30.667 -18 54.834 -43.333 72.501 -76
s26.5 -67.334 26.5 -104.001c0 -54 -16.667 -101.333 -50 -142c-32.667 -38.667 -76.334 -61.667 -131.001 -69zM166.001 397.001l29.999 0.000976562c28 0 52.333 1.66699 73 5s41.334 9.33301 62.001 18c20.667 9.33301 36.667 23.666 48 42.999s17 43.333 17 72
c0 90 -68.333 135 -205 135h-25v-273z" />
    <glyph glyph-name="S" unicode="S" horiz-adv-x="537" 
d="M407 611c-28 47.333 -68.333 71 -121 71c-32 0 -61 -10 -87 -30s-39 -45.667 -39 -77c0 -45.333 35 -81.333 105 -108l54 -21c30 -12 56.667 -25 80 -39s42.833 -30 58.5 -48s27.667 -38.5 36 -61.5s12.5 -49.167 12.5 -78.5c0 -68 -23.333 -124.333 -70 -169
c-46 -44 -103 -66 -171 -66c-60.667 0 -112.667 19.667 -156 59c-43.333 40 -69 90.667 -77 152l95 20c-0.666992 -40.667 13 -74.667 41 -102c29.333 -27.333 64.333 -41 105 -41c40 0 73 14.333 99 43c26.667 28.667 40 63.334 40 104.001c0 36.667 -11.5 65.5 -34.5 86.5
s-54.833 39.833 -95.5 56.5l-52 22c-26 10.667 -49.167 22.167 -69.5 34.5s-37.5 26.166 -51.5 41.499s-24.667 32.333 -32 51s-11 40 -11 64c0 58.667 22 105.667 66 141c44 36 96 54 156 54c86 0 150.667 -38 194 -114z" />
    <glyph glyph-name="T" unicode="T" horiz-adv-x="456" 
d="M275 0h-94v668h-179v86h452v-86h-179v-668z" />
    <glyph glyph-name="U" unicode="U" horiz-adv-x="669" 
d="M153 754v-444.999c0 -158 60.667 -237 182 -237s182 79 182 237v445h94v-477c0 -86 -25 -156.333 -75 -211c-48.667 -54.667 -115.667 -82 -201 -82c-84.667 0 -152 27.333 -202 82c-49.333 55.333 -74 125.666 -74 210.999v477h94z" />
    <glyph glyph-name="V" unicode="V" horiz-adv-x="640" 
d="M321 196l224 558h103l-327 -794l-328 794h103z" />
    <glyph glyph-name="W" unicode="W" horiz-adv-x="1027" 
d="M301 214l213 556l213 -556l211 540h102l-313 -784l-213 553l-213 -553l-313 784h102z" />
    <glyph glyph-name="X" unicode="X" horiz-adv-x="574" 
d="M29 754h107l154 -275l164 275h107l-217 -359l229 -395h-105l-178 309l-185 -309h-105l237 395z" />
    <glyph glyph-name="Y" unicode="Y" horiz-adv-x="593" 
d="M-6 754h108l185 -322l185 322h108l-246 -426v-328h-94v328z" />
    <glyph glyph-name="Z" unicode="Z" horiz-adv-x="552" 
d="M544 86v-86h-535l382 668h-328v86h481l-382 -668h382z" />
    <glyph glyph-name="bracketleft" unicode="[" horiz-adv-x="311" 
d="M153 -109h98v-84h-190v1002h190v-84h-98v-834z" />
    <glyph glyph-name="backslash" unicode="\" horiz-adv-x="551" 
d="M115 868l404 -868h-84l-404 868h84z" />
    <glyph glyph-name="bracketright" unicode="]" horiz-adv-x="311" 
d="M158 725h-98v84h190v-1002h-190v84h98v834z" />
    <glyph glyph-name="asciicircum" unicode="^" 
d="M233 754h112l200 -446h-94l-162 362l-163 -362h-93z" />
    <glyph glyph-name="underscore" unicode="_" horiz-adv-x="500" 
d="M500 -188h-500v75h500v-75z" />
    <glyph glyph-name="grave" unicode="`" horiz-adv-x="360" 
d="M159 734l125 -166l-44 -27l-164 149z" />
    <glyph glyph-name="a" unicode="a" horiz-adv-x="556" 
d="M264 64c47.333 0 84.333 16.333 111 49c27.333 33.333 41 73.666 41 120.999c0 46.667 -13.667 86.334 -41 119.001c-26.667 32.667 -63.667 49 -111 49c-44.667 0 -80.667 -16.667 -108 -50c-26.667 -32.667 -40 -72 -40 -118c0 -47.333 13.333 -87.333 40 -120
c27.333 -33.333 63.333 -50 108 -50zM501 0l-89.999 0.000976562v73h-2c-40 -59.333 -93 -89 -159 -89c-68.667 0 -123.334 24.333 -164.001 73c-40 48.667 -60 108.667 -60 180c0 67.333 20.333 124.666 61 171.999c40.667 48.667 94 73 160 73
c66.667 0 120.667 -30.667 162 -92h2v78h90v-468z" />
    <glyph glyph-name="b" unicode="b" horiz-adv-x="556" 
d="M288 64c47.333 0 84.333 16.333 111 49c27.333 33.333 41 73.666 41 120.999c0 46.667 -13.667 86.334 -41 119.001c-26.667 32.667 -63.667 49 -111 49c-44.667 0 -80.667 -16.667 -108 -50c-26.667 -32.667 -40 -72 -40 -118c0 -47.333 13.333 -87.333 40 -120
c27.333 -33.333 63.333 -50 108 -50zM55 868l90.002 -0.000976562v-478h2c41.333 61.333 95.666 92 162.999 92c65.333 0 118.333 -24.333 159 -73c40.667 -47.333 61 -104.666 61 -171.999c0 -71.333 -20 -131.333 -60 -180s-94.667 -73 -164 -73
c-32 0 -61.833 7.83301 -89.5 23.5s-50.834 37.5 -69.501 65.5h-2v-73h-90v868z" />
    <glyph glyph-name="c" unicode="c" horiz-adv-x="441" 
d="M406 335c-37.333 42 -82.001 63 -134.001 63c-43.333 0 -80.333 -16.333 -111 -49c-30 -33.333 -45 -71.666 -45 -114.999c0 -48.667 15 -88.334 45 -119.001c31.333 -31.333 70.333 -47 117 -47c48 0 90.667 20.667 128 62v-115c-38.667 -20.667 -81.667 -31 -129 -31
c-69.333 0 -128.666 23.667 -177.999 71c-48.667 46.667 -73 105 -73 175c0 72 24.333 132 73 180s109.667 72 183 72c48 0 89.333 -10.333 124 -31v-116z" />
    <glyph glyph-name="d" unicode="d" horiz-adv-x="556" 
d="M264 64c47.333 0 84.333 16.333 111 49c27.333 33.333 41 73.666 41 120.999c0 46.667 -13.667 86.334 -41 119.001c-26.667 32.667 -63.667 49 -111 49c-44.667 0 -80.667 -16.667 -108 -50c-26.667 -32.667 -40 -72 -40 -118c0 -47.333 13.333 -87.333 40 -120
c27.333 -33.333 63.333 -50 108 -50zM411 73l-1.99805 0.000976562c-18.667 -28 -41.834 -49.833 -69.501 -65.5s-57.5 -23.5 -89.5 -23.5c-69.333 0 -124 24.333 -164 73s-60 108.667 -60 180c0 67.333 20.333 124.666 61 171.999c40.667 48.667 93.667 73 159 73
c67.333 0 121.666 -30.667 162.999 -92h2v478h90v-868h-90v73z" />
    <glyph glyph-name="e" unicode="e" horiz-adv-x="488" 
d="M116 219c1.33301 -42 14.667 -78.332 40 -108.999c26 -30.667 59.667 -46 101 -46c32.667 0 59.5 7.5 80.5 22.5s40.833 37.833 59.5 68.5l76 -43c-22 -40 -52.167 -71.333 -90.5 -94s-80.5 -34 -126.5 -34c-70 0 -126 23.333 -168 70c-41.333 47.333 -62 106 -62 176
c0 74 19.667 134.667 59 182c38.667 46.667 95 70 169 70c72 0 126.333 -23.333 163 -70c37.333 -46.667 56 -106.334 56 -179.001v-14h-357zM383.001 287.001c-5.33301 36 -19.165 64.501 -41.498 85.501s-51.5 31.5 -87.5 31.5c-17.333 0 -33.5 -2.83301 -48.5 -8.5
s-28.333 -13.834 -40 -24.501s-21.334 -23.167 -29.001 -37.5s-12.834 -29.833 -15.501 -46.5h262z" />
    <glyph glyph-name="f" unicode="f" horiz-adv-x="275" 
d="M294 777c-28 12.667 -48 19 -60 19c-19.333 0 -33.333 -6.16699 -42 -18.5s-14.667 -27.5 -18 -45.5c-2 -13.333 -3.16699 -23.833 -3.5 -31.5s-0.5 -18.167 -0.5 -31.5v-201h124v-84h-124v-384h-90v384h-41v84h41v228c0 122.667 50.333 184 151 184c22 0 43 -4 63 -12
v-91z" />
    <glyph glyph-name="g" unicode="g" horiz-adv-x="555" 
d="M263 64c47.333 0 84.333 16.333 111 49c27.333 33.333 41 73.666 41 120.999c0 46.667 -13.667 86.334 -41 119.001c-26.667 32.667 -63.667 49 -111 49c-44.667 0 -80.667 -16.667 -108 -50c-26.667 -32.667 -40 -72 -40 -118c0 -47.333 13.333 -87.333 40 -120
c27.333 -33.333 63.333 -50 108 -50zM500 9c0 -88 -16.668 -156.332 -50.001 -204.999c-33.333 -48 -92.666 -72 -177.999 -72c-66 0 -120 19 -162 57c-41.333 38 -62.666 89.667 -63.999 155h90c0 -42 12.833 -74.5 38.5 -97.5s59.5 -34.5 101.5 -34.5
c51.333 0 86.5 15 105.5 45s28.5 72.333 28.5 127v89h-2c-18.667 -28 -41.834 -49.833 -69.501 -65.5s-57.5 -23.5 -89.5 -23.5c-69.333 0 -124 24.333 -164 73s-60 108.667 -60 180c0 67.333 20.333 124.666 61 171.999c40.667 48.667 93.667 73 159 73
c68.667 0 123 -31.333 163 -94h2v80h90v-459z" />
    <glyph glyph-name="h" unicode="h" horiz-adv-x="523" 
d="M152 868l0.000976562 -462.999h2c13.333 24.667 32.666 43.667 57.999 57s53 20 83 20c30.667 0 56.667 -4.66699 78 -14s38.5 -22.666 51.5 -39.999s22.333 -38.5 28 -63.5s8.5 -53.5 8.5 -85.5v-279h-90v268c0 46 -6.66699 79.667 -20 101c-13.333 22 -41 33 -83 33
c-15.333 0 -28.333 -1.5 -39 -4.5s-20 -7.33301 -28 -13s-14.667 -12.167 -20 -19.5s-10.333 -15.333 -15 -24c-2 -4.66699 -3.83301 -10.667 -5.5 -18s-3.16699 -14.833 -4.5 -22.5s-2.33301 -15.334 -3 -23.001s-1 -13.834 -1 -18.501v-44v-215h-90v868h90z" />
    <glyph glyph-name="i" unicode="i" horiz-adv-x="254" 
d="M172 0h-90v468h90v-468zM189 682c0 -16.667 -6 -31 -18 -43s-26.667 -18 -44 -18s-32 6 -44 18s-18 26.333 -18 43c0 17.333 6 32.166 18 44.499s26.667 18.5 44 18.5s32 -6.16699 44 -18.5s18 -27.166 18 -44.499z" />
    <glyph glyph-name="j" unicode="j" horiz-adv-x="254" 
d="M172 -268h-90v736h90v-736zM189 682c0 -16.667 -6 -31 -18 -43s-26.667 -18 -44 -18s-32 6 -44 18s-18 26.333 -18 43c0 17.333 6 32.166 18 44.499s26.667 18.5 44 18.5s32 -6.16699 44 -18.5s18 -27.166 18 -44.499z" />
    <glyph glyph-name="k" unicode="k" horiz-adv-x="462" 
d="M158 292l176 176h119l-200 -194l220 -274h-117l-167 213l-31 -31v-182h-90v868h90v-576z" />
    <glyph glyph-name="l" unicode="l" horiz-adv-x="222" 
d="M156 0h-90v868h90v-868z" />
    <glyph glyph-name="m" unicode="m" horiz-adv-x="767" 
d="M149 409l1.99707 0.00292969c13.333 21.333 31.166 38.833 53.499 52.5s45.833 20.5 70.5 20.5c58 0 103 -27.667 135 -83c14.667 25.333 34.834 45.5 60.501 60.5s53.5 22.5 83.5 22.5c103.333 0 155 -67.333 155 -202v-280h-90v265c0 12 -0.5 23.833 -1.5 35.5
s-2.83301 23 -5.5 34s-6.66699 21.167 -12 30.5s-12.666 17.666 -21.999 24.999c-12 8 -27.333 12 -46 12s-34.667 -4 -48 -12c-12.667 -7.33301 -22.5 -16.5 -29.5 -27.5s-12.5 -24.833 -16.5 -41.5s-6.5 -31.667 -7.5 -45s-1.5 -28.666 -1.5 -45.999v-230h-90v248
c0 16 -0.333008 29.333 -1 40s-2.66699 24 -6 40c-3.33301 17.333 -7.66602 30 -12.999 38c-5.33301 9.33301 -13.666 17.666 -24.999 24.999s-25 11 -41 11c-46 0 -75.667 -20 -89 -60c-6 -18.667 -10 -36.334 -12 -53.001s-3 -36.334 -3 -59.001v-230h-90v468h90v-59z" />
    <glyph glyph-name="n" unicode="n" horiz-adv-x="523" 
d="M152 405l2.00098 0.000976562c13.333 24.667 32.666 43.667 57.999 57s53 20 83 20c30.667 0 56.667 -4.66699 78 -14s38.5 -22.666 51.5 -39.999s22.333 -38.5 28 -63.5s8.5 -53.5 8.5 -85.5v-279h-90v268c0 46 -6.66699 79.667 -20 101c-13.333 22 -41 33 -83 33
c-15.333 0 -28.333 -1.5 -39 -4.5s-20 -7.33301 -28 -13s-14.667 -12.167 -20 -19.5s-10.333 -15.333 -15 -24c-2 -4.66699 -3.83301 -10.667 -5.5 -18s-3.16699 -14.833 -4.5 -22.5s-2.33301 -15.334 -3 -23.001s-1 -13.834 -1 -18.501v-44v-215h-90v468h90v-63z" />
    <glyph glyph-name="o" unicode="o" horiz-adv-x="540" 
d="M92 410c48.667 48 108 72 178 72s129 -24 177 -72c48.667 -48 73 -107 73 -177s-24.333 -129 -73 -177c-48 -48 -107 -72 -177 -72s-129.333 24 -178 72c-48 48 -72 107 -72 177s24 129 72 177zM110 233c0 -43.333 15.667 -81.666 47 -114.999
c30.667 -32 68.334 -48 113.001 -48c44 0 81.667 16 113 48c31.333 33.333 47 71.666 47 114.999c0 44 -15.667 82.333 -47 115c-31.333 32 -69 48 -113 48c-44.667 0 -82.334 -16 -113.001 -48c-31.333 -32.667 -47 -71 -47 -115z" />
    <glyph glyph-name="p" unicode="p" horiz-adv-x="556" 
d="M288 64c47.333 0 84.333 16.333 111 49c27.333 33.333 41 73.666 41 120.999c0 46.667 -13.667 86.334 -41 119.001c-26.667 32.667 -63.667 49 -111 49c-44.667 0 -80.667 -16.667 -108 -50c-26.667 -32.667 -40 -72 -40 -118c0 -47.333 13.333 -87.333 40 -120
c27.333 -33.333 63.333 -50 108 -50zM145 390l2.00195 -0.000976562c41.333 61.333 95.666 92 162.999 92c65.333 0 118.333 -24.333 159 -73c40.667 -47.333 61 -104.666 61 -171.999c0 -71.333 -20 -131.333 -60 -180s-94.667 -73 -164 -73
c-32 0 -61.833 7.83301 -89.5 23.5s-50.834 37.5 -69.501 65.5h-2v-341h-90v736h90v-78z" />
    <glyph glyph-name="q" unicode="q" horiz-adv-x="556" 
d="M264 64c47.333 0 84.333 16.333 111 49c27.333 33.333 41 73.666 41 120.999c0 46.667 -13.667 86.334 -41 119.001c-26.667 32.667 -63.667 49 -111 49c-44.667 0 -80.667 -16.667 -108 -50c-26.667 -32.667 -40 -72 -40 -118c0 -47.333 13.333 -87.333 40 -120
c27.333 -33.333 63.333 -50 108 -50zM501 -268l-89.998 0.000976562v341h-2c-18.667 -28 -41.834 -49.833 -69.501 -65.5s-57.5 -23.5 -89.5 -23.5c-69.333 0 -124 24.333 -164 73s-60 108.667 -60 180c0 67.333 20.333 124.666 61 171.999c40.667 48.667 93.667 73 159 73
c67.333 0 121.666 -30.667 162.999 -92h2v78h90v-736z" />
    <glyph glyph-name="r" unicode="r" horiz-adv-x="351" 
d="M158 392h2.99902c11.333 28 28 50 50 66s48 24 78 24c24.667 0 49.334 -7.66699 74.001 -23l-41 -82c-14.667 12.667 -33 19 -55 19c-46 0 -76.667 -18.667 -92 -56c-6.66699 -17.333 -11.167 -34.5 -13.5 -51.5s-3.5 -36.5 -3.5 -58.5v-230h-90v468h90v-76z" />
    <glyph glyph-name="s" unicode="s" horiz-adv-x="384" 
d="M250 361c-13.333 27.333 -33.3398 40.9961 -60.0068 40.9961c-12.667 0 -24 -4.5 -34 -13.5s-15 -19.833 -15 -32.5c0 -12 3.83301 -22.167 11.5 -30.5s18.167 -16.166 31.5 -23.499c8.66699 -4 15.334 -7.16699 20.001 -9.5s12.334 -5.83301 23.001 -10.5
c5.33301 -2.66699 10 -4.66699 14 -6s7 -2.66602 9 -3.99902c33.333 -15.333 59.666 -33 78.999 -53s29 -46.667 29 -80c0 -44 -16 -81 -48 -111c-31.333 -29.333 -69 -44 -113 -44c-18 0 -35.333 2.5 -52 7.5s-32.167 12 -46.5 21s-27 20 -38 33s-19.5 27.5 -25.5 43.5
l77 35c22 -40 50.333 -60 85 -60c14 0 27 3.83301 39 11.5s20.833 17.334 26.5 29.001s6.83398 24.334 3.50098 38.001s-13.666 26.5 -30.999 38.5l-88 47c-15.333 8 -28.666 16 -39.999 24s-20.666 16.5 -27.999 25.5s-12.833 19 -16.5 30s-5.5 23.833 -5.5 38.5
c0 38 13.333 70 40 96c26.667 26.667 59.334 40 98.001 40c58.667 0 101.334 -27.333 128.001 -82z" />
    <glyph glyph-name="t" unicode="t" horiz-adv-x="240" 
d="M165 0h-90v384h-49v84h49v179h90v-179h88v-84h-88v-384z" />
    <glyph glyph-name="u" unicode="u" horiz-adv-x="512" 
d="M148 468v-259c0 -44 7.83301 -78.5 23.5 -103.5s43.834 -37.5 84.501 -37.5s68.834 12.5 84.501 37.5s23.5 59.5 23.5 103.5v259h90v-269c0 -66.667 -16.333 -119.167 -49 -157.5s-82.334 -57.5 -149.001 -57.5s-116.334 19.167 -149.001 57.5s-49 90.833 -49 157.5v269
h90z" />
    <glyph glyph-name="v" unicode="v" horiz-adv-x="445" 
d="M222 176l135 292h101l-236 -484l-235 484h101z" />
    <glyph glyph-name="w" unicode="w" horiz-adv-x="718" 
d="M222 170l138 324l137 -324l136 298h102l-238 -484l-137 313l-138 -313l-238 484h102z" />
    <glyph glyph-name="x" unicode="x" horiz-adv-x="489" 
d="M27 468h106l111 -151l121 151h109l-172 -214l201 -254h-105l-154 190l-149 -190h-109l209 254z" />
    <glyph glyph-name="y" unicode="y" horiz-adv-x="484" 
d="M-13 468h105l158 -297l147 297h101l-379 -736h-102l184 348z" />
    <glyph glyph-name="z" unicode="z" horiz-adv-x="495" 
d="M481 84v-84h-479l317 384h-263v84h438l-317 -384h304z" />
    <glyph glyph-name="braceleft" unicode="{" horiz-adv-x="334" 
d="M48 344c50 22 75 72.3281 75 150.995v182c0 36.667 9.66699 67.667 29 93c20 26 38.667 39 56 39h78v-84h-40c-15.333 -3.33301 -24.333 -9.66602 -27 -18.999s-4 -23.666 -4 -42.999v-184c0 -34.667 -6 -66 -18 -94c-12 -27.333 -22.667 -45.666 -32 -54.999l-13 -12.5
c-4 -3.66699 -8.33301 -7.16699 -13 -10.5c5.33301 -3.33301 11.333 -8.33301 18 -15s14.667 -16.667 24 -30c10 -12.667 18.167 -30.167 24.5 -52.5s9.5 -46.833 9.5 -73.5v-184c0 -19.333 1.33301 -33.666 4 -42.999s11.667 -15.666 27 -18.999h40v-84h-78
c-17.333 0 -36 13 -56 39c-19.333 25.333 -29 56.333 -29 93v182c0 78.667 -25 129 -75 151v73z" />
    <glyph glyph-name="bar" unicode="|" horiz-adv-x="570" 
d="M328 0h-86v868h86v-868z" />
    <glyph glyph-name="braceright" unicode="}" horiz-adv-x="334" 
d="M286 271c-50 -22 -74.999 -72.3301 -74.999 -150.997v-182c0 -37.333 -10 -68.333 -30 -93c-19.333 -26 -37.666 -39 -54.999 -39h-78v84h40c15.333 3.33301 24.333 9.66602 27 18.999s4 23.666 4 42.999v184c0 26.667 3.16699 51.167 9.5 73.5
s14.166 39.833 23.499 52.5c10 13.333 18.333 23.333 25 30s12.667 11.667 18 15c-4 2.66699 -8.16699 5.83398 -12.5 9.50098s-8.83301 8.16699 -13.5 13.5s-9.66699 12.333 -15 21s-11 20 -17 34c-12 28 -18 59.333 -18 94v184c0 19.333 -1.33301 33.666 -4 42.999
s-11.667 15.666 -27 18.999h-40v84h78c17.333 0 35.666 -13 54.999 -39c20 -25.333 30 -56.333 30 -93v-182c0 -78.667 25 -129 75 -151v-73z" />
    <glyph glyph-name="asciitilde" unicode="~" 
d="M545 284c-45.333 -81.333 -95.9971 -122.002 -151.997 -122.002c-26.667 0 -65 17 -115 51l-21 14.5l-21 14.5c-2.66699 1.33301 -5.33398 3 -8.00098 5s-5.66699 4 -9 6c-12 7.33301 -22.333 11 -31 11c-16 0 -31 -6.66699 -45 -20s-29.667 -34 -47 -62l-63 45l18.5 27
c5 7.33301 8.83301 12.666 11.5 15.999c3.33301 3.33301 7.5 8 12.5 14s11.167 13 18.5 21c14.667 16.667 29.5 28.334 44.5 35.001s30.833 10 47.5 10c36 0 76.667 -17 122 -51c4 -3.33301 10.167 -8.16602 18.5 -14.499s14.5 -11.166 18.5 -14.499
c2.66699 -1.33301 5.16699 -3 7.5 -5s5.16602 -4 8.49902 -6c10.667 -7.33301 21 -11 31 -11c16 0 29.167 5.66699 39.5 17s23.5 30.333 39.5 57c1.33301 2.66699 2.66602 5 3.99902 7s2.33301 3.66699 3 5z" />
    <glyph glyph-name="nonbreakingspace" unicode="&#xa0;" horiz-adv-x="289" 
 />
    <glyph glyph-name="exclamdown" unicode="&#xa1;" horiz-adv-x="321" 
d="M219 450c0 -16 -5.66699 -29.667 -17 -41s-25 -17 -41 -17s-29.667 5.66699 -41 17s-17 25 -17 41c0 15.333 5.66699 28.833 17 40.5s25 17.5 41 17.5s29.667 -5.83301 41 -17.5s17 -25.167 17 -40.5zM206 323v-581h-90v581h90z" />
    <glyph glyph-name="cent" unicode="&#xa2;" 
d="M356 628c50 -3.33301 90.666 -13.6699 121.999 -31.0029v-115h-2c-31.333 40.667 -71.333 61.667 -120 63v-328c48.667 6.66699 89.334 27.334 122.001 62.001v-117c-32 -15.333 -67 -24.666 -105 -27.999l-17 -1v-85h-48v89c-61.333 8.66699 -111.333 35.667 -150 81
c-38.667 44.667 -58 97.667 -58 159c0 62.667 19.333 117.334 58 164.001c39.333 48 89.333 76.333 150 85v78h48v-76zM307.999 538.996c-34 -4 -62.667 -22.667 -86 -56c-22.667 -32.667 -34 -66.667 -34 -102c0 -38 11 -72.333 33 -103c22.667 -32 51.667 -51.333 87 -58
v319z" />
    <glyph glyph-name="sterling" unicode="&#xa3;" 
d="M11 24c20.667 36 42.502 63.499 65.502 82.499s52.5 29.167 88.5 30.5c20 66 17.333 120.667 -8 164h-129v58h100c-38.667 72.667 -58 132.667 -58 180c0 63.333 25 117.666 75 162.999c51.333 45.333 108.666 68 171.999 68c70 0 126.667 -21.667 170 -65
c44 -44 67.333 -100.333 70 -169l-90 -34v28c0 42 -14 77.667 -42 107c-27.333 30 -62 45 -104 45c-41.333 0 -78.333 -16 -111 -48c-33.333 -31.333 -50 -65.666 -50 -102.999c0 -16 2.66699 -32.667 8 -50s10.666 -31.333 15.999 -42l11 -18.5l14 -24.5l13.5 -22.5
l8.5 -14.5h148v-58h-124c16.667 -56 16.667 -113.333 0 -172l74 -26c2 -0.666992 5.5 -2 10.5 -4l17 -7c6.33301 -2.66699 12.666 -5.16699 18.999 -7.5l17.5 -6.5c10 -2.66699 20 -4 30 -4c12.667 0 24.834 4.5 36.501 13.5s20.167 17.5 25.5 25.5
c3.33301 4.66699 6.66602 9.83398 9.99902 15.501l11 19.5l75 -46c-15.333 -36 -36.166 -64.667 -62.499 -86s-57.5 -32 -93.5 -32c-32.667 0 -76.334 11 -131.001 33c-54 21.333 -92.667 32 -116 32c-41.333 0 -70.666 -21.667 -87.999 -65z" />
    <glyph glyph-name="currency" unicode="&#xa4;" 
d="M568 644c-43.333 26.667 -95.9971 40 -157.997 40c-70.667 0 -125.334 -21.333 -164.001 -64c-39.333 -43.333 -64.333 -96.666 -75 -159.999h357l-14 -58h-351c-0.666992 -5.33301 -1 -10.166 -1 -14.499v-11.5c0 -16.667 1.33301 -32.667 4 -48h323l-14 -58h-299
c12.667 -56.667 38 -104.334 76 -143.001c38.667 -38 90.667 -57 156 -57c32 0 59.667 3.5 83 10.5s49 20.167 77 39.5v-101c-43.333 -23.333 -95.666 -35 -156.999 -35c-88 0 -161.667 24.333 -221 73c-60.667 49.333 -98.334 120.333 -113.001 213h-77l14 58h56
c-0.666992 12 -1.16699 21.667 -1.5 29s-0.5 12.666 -0.5 15.999v14c0 4.66699 0.333008 9.66699 1 15h-68l14 58h60c16.667 100.667 56 177.334 118 230.001c63.333 53.333 138.666 80 225.999 80c13.333 0 27.666 -0.833008 42.999 -2.5s30.5 -4.33398 45.5 -8.00098
s29.5 -8 43.5 -13s26.667 -10.833 38 -17.5z" />
    <glyph glyph-name="yen" unicode="&#xa5;" 
d="M336 0h-94v260h-236v58h236v10l-54 94h-182v58h148l-158 274h108l185 -322l185 322h108l-158 -274h148v-58h-181l-55 -94v-10h236v-58h-236v-260z" />
    <glyph glyph-name="brokenbar" unicode="&#xa6;" horiz-adv-x="570" 
d="M328 0h-86v347h86v-347zM328 521h-86v347h86v-347z" />
    <glyph glyph-name="section" unicode="&#xa7;" 
d="M389 248c18 11.333 32.5 26.666 43.5 45.999s16.5 39 16.5 59c0 21.333 -6.5 38.333 -19.5 51s-31.833 25 -56.5 37l-184 93c-18 -11.333 -32.5 -26.666 -43.5 -45.999s-16.5 -39.333 -16.5 -60c0 -12 2.16699 -22.833 6.5 -32.5s11.5 -18.5 21.5 -26.5l26 -17.5
c6.66699 -4.33301 17 -9.83301 31 -16.5zM169 261l-29.0029 15.5c-8 4.33301 -15.333 8.5 -22 12.5s-13.167 8.33301 -19.5 13s-12.833 10 -19.5 16c-14 12.667 -24 27 -30 43s-9 35 -9 57c0 60 32 114 96 162c-29.333 33.333 -44 70.333 -44 111c0 50 19 92 57 126
c38.667 34 83.334 51 134.001 51c53.333 0 99 -15 137 -45c38.667 -30 59.334 -71 62.001 -123h-87c-0.666992 14 -4.16699 26.5 -10.5 37.5s-14.666 20.333 -24.999 28s-22.166 13.5 -35.499 17.5s-27 6 -41 6s-27.167 -2.66699 -39.5 -8s-23 -12.5 -32 -21.5
s-16.167 -19.5 -21.5 -31.5s-8 -25 -8 -39c0 -24 7.5 -43.667 22.5 -59s35.833 -29.333 62.5 -42l133 -67l27 -14c8 -4 15.333 -8.16699 22 -12.5l20 -13.5l22 -16c31.333 -23.333 47 -54.333 47 -93c0 -32.667 -8.16699 -64 -24.5 -94s-37.833 -55 -64.5 -75
c35.333 -33.333 53 -74 53 -122c0 -58 -21 -104.333 -63 -139c-42 -36 -92 -54 -150 -54c-66 0 -120.333 19.333 -163 58c-42 38.667 -63 91 -63 157v15h89c-1.33301 -41.333 10.667 -76.333 36 -105c24.667 -28.667 58 -43 100 -43c32 0 60.667 10.667 86 32
s38 48.333 38 81c0 27.333 -11.667 50.333 -35 69l-16 12c-4.66699 3.33301 -9.33398 6.33301 -14.001 9s-10 5.5 -16 8.5l-21 10.5z" />
    <glyph glyph-name="dieresis" unicode="&#xa8;" horiz-adv-x="470" 
d="M130 573c-17.333 0 -31.8311 5.83105 -43.498 17.498s-17.5 26.167 -17.5 43.5c-0.666992 12.667 2.66602 23.834 9.99902 33.501s16.5 16.667 27.5 21s22.667 5.83301 35 4.5s22.5 -7 30.5 -17c10 -8 15.667 -18.167 17 -30.5s-0.166992 -24 -4.5 -35
s-11.333 -20.167 -21 -27.5s-20.834 -10.666 -33.501 -9.99902zM280.002 633.998c0 16.667 6 30.834 18 42.501s26.333 17.5 43 17.5s30.834 -5.83301 42.501 -17.5s17.5 -25.834 17.5 -42.501s-5.83301 -31 -17.5 -43s-25.834 -18 -42.501 -18s-31 5.83301 -43 17.5
s-18 26.167 -18 43.5z" />
    <glyph glyph-name="copyright" unicode="&#xa9;" horiz-adv-x="800" 
d="M679 98c-76 -76 -169 -114 -279 -114s-203.333 38 -280 114c-76 76.667 -114 169.667 -114 279s38 202 114 278c76.667 76.667 170 115 280 115s203 -38.333 279 -115c76.667 -76 115 -168.667 115 -278s-38.333 -202.333 -115 -279zM633 610
c-65.333 64 -142.999 96 -232.999 96c-90.667 0 -168.334 -32 -233.001 -96c-64.667 -62.667 -97 -140.334 -97 -233.001c0 -92 32.333 -170 97 -234c65.333 -63.333 143 -95 233 -95s167.667 31.667 233 95c64.667 64 97 142 97 234c0 92.667 -32.333 170.334 -97 233.001z
M539.001 458c-6 28 -19.833 49.166 -41.5 63.499s-49.5 21.5 -83.5 21.5c-50.667 0 -89 -16 -115 -48c-25.333 -31.333 -38 -69 -38 -113c0 -48 13.667 -87.333 41 -118s65.333 -46 114 -46c68 0 109 29.667 123 89h61c-6 -46 -26.667 -83 -62 -111s-76 -42 -122 -42
c-64.667 0 -117.667 21.667 -159 65c-40 42.667 -60 96.334 -60 161.001c0 66 19.667 120.333 59 163c38.667 42.667 91.667 64 159 64c48 0 88.667 -13.333 122 -40s54.333 -63 63 -109h-61z" />
    <glyph glyph-name="ordfeminine" unicode="&#xaa;" horiz-adv-x="334" 
d="M167 519c30.667 0 54.834 9.83105 72.501 29.498s26.5 43.834 26.5 72.501s-8.83301 52.667 -26.5 72s-41.834 29 -72.501 29c-14 0 -27 -2.66699 -39 -8s-22.167 -12.666 -30.5 -21.999s-14.833 -20 -19.5 -32s-7 -25 -7 -39c0 -28 8.5 -52 25.5 -72s40.5 -30 70.5 -30z
M322 480.998l-59 0.000976562v43h-2c-26 -35.333 -60.333 -53 -103 -53c-22 0 -42 4 -60 12s-33.333 18.833 -46 32.5s-22.5 29.667 -29.5 48s-10.5 38.166 -10.5 59.499c0 40 13.333 74.333 40 103c27.333 29.333 62 44 104 44c42.667 0 78 -18.333 106 -55h-1h2v46h59
v-280zM12 367.999v48h310v-48h-310z" />
    <glyph glyph-name="guillemotleft" unicode="&#xab;" horiz-adv-x="523" 
d="M460 129l-56 -41l-182 232l182 240l56 -41l-149 -199zM268 129l-56 -41l-182 232l182 240l56 -41l-149 -199z" />
    <glyph glyph-name="logicalnot" unicode="&#xac;" 
d="M459 299h-426v86h512v-270h-86v184z" />
    <glyph glyph-name="registered" unicode="&#xae;" horiz-adv-x="800" 
d="M679 98c-76 -76 -169 -114 -279 -114s-203.333 38 -280 114c-76 76.667 -114 169.667 -114 279s38 202 114 278c76.667 76.667 170 115 280 115s203 -38.333 279 -115c76.667 -76 115 -168.667 115 -278s-38.333 -202.333 -115 -279zM633 610
c-65.333 64 -142.999 96 -232.999 96c-90.667 0 -168.334 -32 -233.001 -96c-64.667 -62.667 -97 -140.334 -97 -233.001c0 -92 32.333 -170 97 -234c65.333 -63.333 143 -95 233 -95s167.667 31.667 233 95c64.667 64 97 142 97 234c0 92.667 -32.333 170.334 -97 233.001z
M580.001 153h-73l-113 204h-82v-204h-64v442h186c101.333 0 152 -39 152 -117c0 -40 -11.167 -69.833 -33.5 -89.5s-50.5 -30.167 -84.5 -31.5zM312.001 531v-110.001h68h10.5c5 0 10.333 -0.166992 16 -0.5s11 -0.5 16 -0.5h12.5c6 0.666992 14.5 1.33398 25.5 2.00098
s19.167 2 24.5 4c11.333 3.33301 20.333 8.33301 27 15s10 16.667 10 30c0 27.333 -10.333 44.333 -31 51c-10 4 -20 6.5 -30 7.5s-23 1.5 -39 1.5h-110z" />
    <glyph glyph-name="macron" unicode="&#xaf;" horiz-adv-x="500" 
d="M431 694v-68h-361v68h361z" />
    <glyph glyph-name="degree" unicode="&#xb0;" horiz-adv-x="400" 
d="M50 620c-1.33301 40.667 12.998 75.999 42.998 105.999c30.667 29.333 66.334 44 107.001 44c41.333 0 76.666 -14.667 105.999 -44s44 -64.666 44 -105.999s-14.667 -76.666 -44 -105.999s-64.666 -44 -105.999 -44s-76.666 14.667 -105.999 44s-44 64.666 -44 105.999z
M198.998 719.999c-14 0 -27 -2.66699 -39 -8s-22.5 -12.5 -31.5 -21.5s-16 -19.5 -21 -31.5s-7.5 -25 -7.5 -39c0 -28.667 9.5 -52.5 28.5 -71.5s42.833 -28.5 71.5 -28.5c28 0 51.667 9.5 71 28.5s29 42.833 29 71.5c0 14 -2.66699 27 -8 39s-12.5 22.5 -21.5 31.5
s-19.667 16.167 -32 21.5s-25.5 8 -39.5 8z" />
    <glyph glyph-name="plusminus" unicode="&#xb1;" 
d="M33 86h512v-86h-512v86zM332 562v-173h213v-86h-213v-173h-86v173h-213v86h213v173h86z" />
    <glyph glyph-name="twosuperior" unicode="&#xb2;" horiz-adv-x="346" 
d="M332 360v-58h-317l215 243c25.333 29.333 38 56.333 38 81c0 22 -9.66699 40.667 -29 56c-19.333 16 -40 24 -62 24c-24.667 0 -45.167 -7 -61.5 -21s-25.166 -32.333 -26.499 -55h-67c4.66699 40.667 20.667 73.167 48 97.5s63 36.5 107 36.5
c41.333 0 77.666 -13 108.999 -39c30.667 -26 46 -58.333 46 -97c0 -37.333 -11 -68.333 -33 -93l-155 -175h188z" />
    <glyph glyph-name="threesuperior" unicode="&#xb3;" horiz-adv-x="346" 
d="M163 576c28.667 0 51.498 5.66602 68.498 16.999s25.5 28 25.5 50s-8.33301 39 -25 51s-36 18 -58 18c-21.333 0 -39.166 -4.66699 -53.499 -14s-21.5 -23.333 -21.5 -42h-67c6 36.667 21.333 64.834 46 84.501s57.334 29.5 98.001 29.5c20 0 38.833 -3 56.5 -9
s33 -14.333 46 -25s23.333 -23.5 31 -38.5s11.5 -31.5 11.5 -49.5c0 -45.333 -22 -79.333 -66 -102c48.667 -20.667 73 -58 73 -112c0 -41.333 -15.333 -74.333 -46 -99s-68.667 -37 -114 -37c-40 0 -74.333 11 -103 33c-28.667 22.667 -44 52.334 -46 89.001h64
c6.66699 -42.667 36.667 -64 90 -64c24.667 0 46 7.33301 64 22s27 34 27 58c0 25.333 -9.66699 45.666 -29 60.999s-43.333 22.333 -72 21v58z" />
    <glyph glyph-name="acute" unicode="&#xb4;" horiz-adv-x="360" 
d="M284 690l-164 -149l-44 27l125 166z" />
    <glyph glyph-name="paragraph" unicode="&#xb6;" 
d="M538 670l-61 -0.000976562v-823h-84v823h-62v-823h-84v436c-57.333 0 -105 19 -143 57c-37.333 38 -58.333 90.333 -63 157c-4.66699 62.667 14 121.334 56 176.001c42.667 54 95.667 81 159 81h282v-84z" />
    <glyph glyph-name="periodcentered" unicode="&#xb7;" horiz-adv-x="289" 
d="M203 256c0 -16 -5.66699 -29.667 -17 -41s-25 -17 -41 -17s-29.667 5.66699 -41 17s-17 25 -17 41c0 15.333 5.66699 28.833 17 40.5s25 17.5 41 17.5s29.667 -5.83301 41 -17.5s17 -25.167 17 -40.5z" />
    <glyph glyph-name="cedilla" unicode="&#xb8;" horiz-adv-x="330" 
d="M139 -181l-53 27l87 137l71 -29z" />
    <glyph glyph-name="onesuperior" unicode="&#xb9;" horiz-adv-x="346" 
d="M65 696l34 58h116v-452h-64v394h-86z" />
    <glyph glyph-name="ordmasculine" unicode="&#xba;" horiz-adv-x="324" 
d="M325 620c0 -42 -16 -77.332 -48 -105.999c-30.667 -28.667 -69 -43 -115 -43s-84.333 14.333 -115 43c-31.333 29.333 -47 64.666 -47 105.999c0 42 15.667 77.667 47 107c30.667 28.667 69 43 115 43s84.333 -14.333 115 -43c32 -29.333 48 -65 48 -107zM59 620.001
c0 -13.333 2.66699 -25.833 8 -37.5s12.666 -21.834 21.999 -30.501s20.333 -15.667 33 -21s26 -8 40 -8s27.333 2.66699 40 8s23.834 12.333 33.501 21s17.167 18.834 22.5 30.501s8 24.167 8 37.5c0 14 -2.66699 26.833 -8 38.5s-12.833 22 -22.5 31
s-20.834 16 -33.501 21s-26 7.5 -40 7.5s-27.333 -2.5 -40 -7.5s-23.667 -12 -33 -21s-16.666 -19.333 -21.999 -31s-8 -24.5 -8 -38.5zM0 368.001v48h325v-48h-325z" />
    <glyph glyph-name="guillemotright" unicode="&#xbb;" horiz-adv-x="523" 
d="M212 320l-149 199l56 41l182 -240l-182 -232l-56 41zM404 320l-149 199l56 41l182 -240l-182 -232l-56 41z" />
    <glyph glyph-name="onequarter" unicode="&#xbc;" horiz-adv-x="867" 
d="M40 696l34 58h116v-452h-64v394h-86zM827 124v-58h-49v-66h-64v66h-243l307 407v-349h49zM714 288h-3l-123 -164h126v164zM682 744l-440 -760l-51 28l440 758z" />
    <glyph glyph-name="onehalf" unicode="&#xbd;" horiz-adv-x="867" 
d="M126 696h-86l34 58h116v-452h-64v394zM827 58v-58h-317l215 243c25.333 29.333 38 56.333 38 81c0 22 -9.66699 40.667 -29 56c-19.333 16 -40 24 -62 24c-24.667 0 -45.167 -7 -61.5 -21s-25.166 -32.333 -26.499 -55h-67c4.66699 40.667 20.667 73.167 48 97.5
s63 36.5 107 36.5c41.333 0 77.666 -13 108.999 -39c30.667 -26 46 -58.333 46 -97c0 -37.333 -11 -68.333 -33 -93l-155 -175h188zM630 744l-440 -760l-51 28l440 758z" />
    <glyph glyph-name="threequarters" unicode="&#xbe;" horiz-adv-x="867" 
d="M827 124v-58h-49v-66h-64v66h-243l307 407v-349h49zM714 288h-3l-123 -164h126v164zM184 576c28.667 0 51.498 5.66602 68.498 16.999s25.5 28 25.5 50s-8.33301 39 -25 51s-36 18 -58 18c-21.333 0 -39.166 -4.66699 -53.499 -14s-21.5 -23.333 -21.5 -42h-67
c6 36.667 21.333 64.834 46 84.501s57.334 29.5 98.001 29.5c20 0 38.833 -3 56.5 -9s33 -14.333 46 -25s23.333 -23.5 31 -38.5s11.5 -31.5 11.5 -49.5c0 -45.333 -22 -79.333 -66 -102c48.667 -20.667 73 -58 73 -112c0 -41.333 -15.333 -74.333 -46 -99
s-68.667 -37 -114 -37c-40 0 -74.333 11 -103 33c-28.667 22.667 -44 52.334 -46 89.001h64c6.66699 -42.667 36.667 -64 90 -64c24.667 0 46 7.33301 64 22s27 34 27 58c0 25.333 -9.66699 45.666 -29 60.999s-43.333 22.333 -72 21v58zM737.998 743.999l-440 -760l-51 28
l440 758z" />
    <glyph glyph-name="questiondown" unicode="&#xbf;" horiz-adv-x="453" 
d="M61 157c-2 42.667 13.667 79.9951 47 111.995c32.667 32.667 71 49 115 49c44.667 0 82.667 -15.667 114 -47s47 -69 47 -113c0 -21.333 -2.83301 -39.666 -8.5 -54.999s-13.834 -28.5 -24.501 -39.5s-23.834 -20.667 -39.501 -29s-33.5 -16.166 -53.5 -23.499
c-2 -0.666992 -4.83301 -1.66699 -8.5 -3s-7.5 -2.83301 -11.5 -4.5s-8 -3.16699 -12 -4.5l-9 -3c-2 -0.666992 -4.5 -1.66699 -7.5 -3s-6.83301 -2.66602 -11.5 -3.99902c-8.66699 -4 -14.667 -7.16699 -18 -9.5s-8.33301 -5.5 -15 -9.5
c-21.333 -15.333 -32 -36.666 -32 -63.999c0 -28 8.66699 -49.833 26 -65.5s39.333 -23.5 66 -23.5c12 0 23.167 2.33301 33.5 7s19.333 10.834 27 18.501s13.834 16.667 18.501 27s7 21.5 7 33.5c0 6 -2 16.667 -6 32h94l2 -33c2.66699 -47.333 -14.333 -87.333 -51 -120
c-37.333 -33.333 -80 -50 -128 -50c-50.667 0 -93.334 17 -128.001 51s-52 76 -52 126c0 51.333 18 92.666 54 123.999c22 18.667 63.333 37.334 124 56.001c48.667 14.667 73 39 73 73c0 20 -6.66699 37 -20 51s-30 21 -50 21c-21.333 0 -38.666 -7.5 -51.999 -22.5
s-19.666 -33.167 -18.999 -54.5h-91zM281 449.995c0 -16 -5.66699 -29.667 -17 -41s-25 -17 -41 -17s-29.667 5.66699 -41 17s-17 25 -17 41c0 15.333 5.66699 28.833 17 40.5s25 17.5 41 17.5s29.667 -5.83301 41 -17.5s17 -25.167 17 -40.5z" />
    <glyph glyph-name="Agrave" unicode="&#xc0;" horiz-adv-x="703" 
d="M179 189l-86 -189h-101l360 786l360 -786h-101l-86 189h-346zM352 580l-134 -305h268zM331 1020l125 -166l-44 -27l-164 149z" />
    <glyph glyph-name="Aacute" unicode="&#xc1;" horiz-adv-x="703" 
d="M179 189l-86 -189h-101l360 786l360 -786h-101l-86 189h-346zM352 580l-134 -305h268zM456 976l-164 -149l-44 27l125 166z" />
    <glyph glyph-name="Acircumflex" unicode="&#xc2;" horiz-adv-x="703" 
d="M179 189l-86 -189h-101l360 786l360 -786h-101l-86 189h-346zM352 580l-134 -305h268zM351 1020l161 -145l-59 -46l-102 96l-101 -96l-58 46z" />
    <glyph glyph-name="Atilde" unicode="&#xc3;" horiz-adv-x="703" 
d="M179 189l-86 -189h-101l360 786l360 -786h-101l-86 189h-346zM352 580l-134 -305h268zM161 899l3 5c11.333 16 21 28.667 29 38s19 18 33 26s29.333 12 46 12c26.667 0 56.334 -8.66699 89.001 -26c32.667 -18 56.667 -27 72 -27c23.333 0 44.666 16 63.999 48l47 -39
c-26.667 -54.667 -66 -82 -118 -82c-18.667 0 -46.334 8.66699 -83.001 26c-35.333 16.667 -61.333 25 -78 25c-11.333 0 -22.166 -4.66699 -32.499 -14s-18.5 -20 -24.5 -32z" />
    <glyph glyph-name="Adieresis" unicode="&#xc4;" horiz-adv-x="703" 
d="M179 189l-86 -189h-101l360 786l360 -786h-101l-86 189h-346zM352 580l-134 -305h268zM186 920c0 16.667 6 30.834 18 42.501s26.333 17.5 43 17.5s30.834 -5.83301 42.501 -17.5s17.5 -25.834 17.5 -42.501s-5.83301 -31 -17.5 -43s-25.834 -18 -42.501 -18
s-31 5.83301 -43 17.5s-18 26.167 -18 43.5zM458 859c-17.333 0 -31.8311 5.83105 -43.498 17.498s-17.5 26.167 -17.5 43.5c-0.666992 12.667 2.66602 23.834 9.99902 33.501s16.5 16.667 27.5 21s22.667 5.83301 35 4.5s22.5 -7 30.5 -17c10 -8 15.667 -18.167 17 -30.5
s-0.166992 -24 -4.5 -35s-11.333 -20.167 -21 -27.5s-20.834 -10.666 -33.501 -9.99902z" />
    <glyph glyph-name="Aring" unicode="&#xc5;" horiz-adv-x="703" 
d="M179 189l-86 -189h-101l360 786l360 -786h-101l-86 189h-346zM352 580l-134 -305h268zM352 1020c19.333 1.33301 36.333 -3.66895 51 -15.002s25.5 -25.166 32.5 -41.499s9.16699 -33.666 6.5 -51.999s-11.334 -33.833 -26.001 -46.5
c-12.667 -14 -28.167 -22.167 -46.5 -24.5s-35.666 -0.166016 -51.999 6.50098s-30 17.167 -41 31.5s-15.833 31.166 -14.5 50.499c0 12.667 2.33301 24.5 7 35.5s11.167 20.667 19.5 29s18 14.833 29 19.5s22.5 7 34.5 7zM352 883.998c12.667 0 23.5 4.33301 32.5 13
s13.5 19.334 13.5 32.001s-4.5 23.5 -13.5 32.5s-19.833 13.5 -32.5 13.5c-12 0 -22.5 -4.5 -31.5 -13.5s-13.5 -19.833 -13.5 -32.5s4.5 -23.334 13.5 -32.001s19.5 -13 31.5 -13z" />
    <glyph glyph-name="AE" unicode="&#xc6;" horiz-adv-x="997" 
d="M189 189l-86 -189h-103l362 754h330l38 -86h-309l91 -211h301l40 -86h-302l121 -285h311l38 -86h-406l-83 189h-343zM367 567l-138 -292h268z" />
    <glyph glyph-name="Ccedilla" unicode="&#xc7;" horiz-adv-x="661" 
d="M621 610c-55.333 49.333 -121.666 74 -198.999 74c-83.333 0 -154 -30.333 -212 -91c-57.333 -60.667 -86 -133 -86 -217c0 -83.333 28.333 -155.333 85 -216c56.667 -60 127 -90 211 -90c76 0 143 26 201 78v-111c-60.667 -35.333 -126.667 -53 -198 -53
c-108 0 -200.667 37.667 -278 113c-76.667 74.667 -115 166.667 -115 276c0 110.667 39 204.667 117 282c77.333 76.667 172 115 284 115c71.333 0 134.666 -17 189.999 -51v-109zM305 -181l-53 27l87 137l71 -29z" />
    <glyph glyph-name="Egrave" unicode="&#xc8;" horiz-adv-x="521" 
d="M72 754h405v-86h-311v-211h302v-86h-302v-285h311v-86h-405v754zM240 1020l125 -166l-44 -27l-164 149z" />
    <glyph glyph-name="Eacute" unicode="&#xc9;" horiz-adv-x="521" 
d="M72 754h405v-86h-311v-211h302v-86h-302v-285h311v-86h-405v754zM377 976l-164 -149l-44 27l125 166z" />
    <glyph glyph-name="Ecircumflex" unicode="&#xca;" horiz-adv-x="521" 
d="M72 754h405v-86h-311v-211h302v-86h-302v-285h311v-86h-405v754zM260 1020l161 -145l-59 -46l-102 96l-101 -96l-58 46z" />
    <glyph glyph-name="Edieresis" unicode="&#xcb;" horiz-adv-x="521" 
d="M72 754h405v-86h-311v-211h302v-86h-302v-285h311v-86h-405v754zM168 859c-17.333 0 -31.8301 5.83105 -43.4971 17.498s-17.5 26.167 -17.5 43.5c-0.666992 12.667 2.66602 23.834 9.99902 33.501s16.5 16.667 27.5 21s22.667 5.83301 35 4.5s22.5 -7 30.5 -17
c10 -8 15.833 -18.167 17.5 -30.5s0.166992 -24 -4.5 -35s-11.834 -20.167 -21.501 -27.5s-20.834 -10.666 -33.501 -9.99902zM318.003 919.998c0 16.667 6 30.834 18 42.501s26.333 17.5 43 17.5s30.834 -5.83301 42.501 -17.5s17.5 -25.834 17.5 -42.501
s-5.83301 -31 -17.5 -43s-25.834 -18 -42.501 -18s-31 5.83301 -43 17.5s-18 26.167 -18 43.5z" />
    <glyph glyph-name="Igrave" unicode="&#xcc;" horiz-adv-x="232" 
d="M163 0h-94v754h94v-754zM95 1020l125 -166l-44 -27l-164 149z" />
    <glyph glyph-name="Iacute" unicode="&#xcd;" horiz-adv-x="232" 
d="M163 0h-94v754h94v-754zM220 976l-164 -149l-44 27l125 166z" />
    <glyph glyph-name="Icircumflex" unicode="&#xce;" horiz-adv-x="232" 
d="M163 0h-94v754h94v-754zM115 1020l161 -145l-59 -46l-102 96l-101 -96l-58 46z" />
    <glyph glyph-name="Idieresis" unicode="&#xcf;" horiz-adv-x="232" 
d="M163 0h-94v754h94v-754zM-50 920c0 16.667 6 30.834 18 42.501s26.333 17.5 43 17.5s30.834 -5.83301 42.501 -17.5s17.5 -25.834 17.5 -42.501s-5.83301 -31 -17.5 -43s-25.834 -18 -42.501 -18s-31 5.83301 -43 17.5s-18 26.167 -18 43.5zM222 859
c-17.333 0 -31.8301 5.83105 -43.4971 17.498s-17.5 26.167 -17.5 43.5c-0.666992 12.667 2.66602 23.834 9.99902 33.501s16.5 16.667 27.5 21s22.667 5.83301 35 4.5s22.5 -7 30.5 -17c10 -8 15.833 -18.167 17.5 -30.5s0.166992 -24 -4.5 -35
s-11.834 -20.167 -21.501 -27.5s-20.834 -10.666 -33.501 -9.99902z" />
    <glyph glyph-name="Eth" unicode="&#xd0;" horiz-adv-x="665" 
d="M64 754l155.999 -0.000976562c122.667 0 223.667 -32.333 303 -97c80 -64 120 -156 120 -276c0 -123.333 -39.667 -217.666 -119 -282.999s-181.666 -98 -306.999 -98h-153v362h-64v88h64v304zM157.999 449.999l134.002 0.000976562v-88h-134v-276h33
c48.667 0 94.667 4.83301 138 14.5s81.166 26 113.499 49s58.166 53 77.499 90s29 82.833 29 137.5c0 54 -9.5 100.167 -28.5 138.5s-45.5 68.166 -79.5 89.499c-34 22 -71.5 38 -112.5 48s-86.833 15 -137.5 15h-33v-218z" />
    <glyph glyph-name="Ntilde" unicode="&#xd1;" horiz-adv-x="785" 
d="M63 790l566 -593v557h94v-785l-566 593v-562h-94v790zM202 899l3 5c11.333 16 21 28.667 29 38s19 18 33 26s29.333 12 46 12c26.667 0 56.334 -8.66699 89.001 -26c32.667 -18 56.667 -27 72 -27c23.333 0 44.666 16 63.999 48l47 -39c-26.667 -54.667 -66 -82 -118 -82
c-18.667 0 -46.334 8.66699 -83.001 26c-35.333 16.667 -61.333 25 -78 25c-11.333 0 -22.166 -4.66699 -32.499 -14s-18.5 -20 -24.5 -32z" />
    <glyph glyph-name="Ograve" unicode="&#xd2;" horiz-adv-x="828" 
d="M809 377c0 -112 -38.335 -205.333 -115.002 -280c-77.333 -75.333 -170.666 -113 -279.999 -113s-202.666 37.667 -279.999 113c-76.667 74.667 -115 168 -115 280c0 107.333 38.667 199.666 116 276.999c78.667 77.333 171.667 116 279 116
c108 0 200.667 -38.667 278 -116c78 -77.333 117 -169.666 117 -276.999zM714.998 377c0 84.667 -28.6689 156.667 -86.002 216s-129 89 -215 89c-86.667 0 -158.667 -29.667 -216 -89c-56.667 -58.667 -85 -130.667 -85 -216s29.667 -157.666 89 -216.999
c58.667 -58.667 129.334 -88 212.001 -88s153.334 29.333 212.001 88c59.333 59.333 89 131.666 89 216.999zM392.996 1020l125 -166l-44 -27l-164 149z" />
    <glyph glyph-name="Oacute" unicode="&#xd3;" horiz-adv-x="828" 
d="M809 377c0 -112 -38.335 -205.333 -115.002 -280c-77.333 -75.333 -170.666 -113 -279.999 -113s-202.666 37.667 -279.999 113c-76.667 74.667 -115 168 -115 280c0 107.333 38.667 199.666 116 276.999c78.667 77.333 171.667 116 279 116
c108 0 200.667 -38.667 278 -116c78 -77.333 117 -169.666 117 -276.999zM714.998 377c0 84.667 -28.6689 156.667 -86.002 216s-129 89 -215 89c-86.667 0 -158.667 -29.667 -216 -89c-56.667 -58.667 -85 -130.667 -85 -216s29.667 -157.666 89 -216.999
c58.667 -58.667 129.334 -88 212.001 -88s153.334 29.333 212.001 88c59.333 59.333 89 131.666 89 216.999zM517.996 976l-164 -149l-44 27l125 166z" />
    <glyph glyph-name="Ocircumflex" unicode="&#xd4;" horiz-adv-x="828" 
d="M809 377c0 -112 -38.335 -205.333 -115.002 -280c-77.333 -75.333 -170.666 -113 -279.999 -113s-202.666 37.667 -279.999 113c-76.667 74.667 -115 168 -115 280c0 107.333 38.667 199.666 116 276.999c78.667 77.333 171.667 116 279 116
c108 0 200.667 -38.667 278 -116c78 -77.333 117 -169.666 117 -276.999zM714.998 377c0 84.667 -28.6689 156.667 -86.002 216s-129 89 -215 89c-86.667 0 -158.667 -29.667 -216 -89c-56.667 -58.667 -85 -130.667 -85 -216s29.667 -157.666 89 -216.999
c58.667 -58.667 129.334 -88 212.001 -88s153.334 29.333 212.001 88c59.333 59.333 89 131.666 89 216.999zM412.996 1020l161 -145l-59 -46l-102 96l-101 -96l-58 46z" />
    <glyph glyph-name="Otilde" unicode="&#xd5;" horiz-adv-x="828" 
d="M809 377c0 -112 -38.335 -205.333 -115.002 -280c-77.333 -75.333 -170.666 -113 -279.999 -113s-202.666 37.667 -279.999 113c-76.667 74.667 -115 168 -115 280c0 107.333 38.667 199.666 116 276.999c78.667 77.333 171.667 116 279 116
c108 0 200.667 -38.667 278 -116c78 -77.333 117 -169.666 117 -276.999zM714.998 377c0 84.667 -28.6689 156.667 -86.002 216s-129 89 -215 89c-86.667 0 -158.667 -29.667 -216 -89c-56.667 -58.667 -85 -130.667 -85 -216s29.667 -157.666 89 -216.999
c58.667 -58.667 129.334 -88 212.001 -88s153.334 29.333 212.001 88c59.333 59.333 89 131.666 89 216.999zM222.996 899l3 5c11.333 16 21 28.667 29 38s19 18 33 26s29.333 12 46 12c26.667 0 56.334 -8.66699 89.001 -26c32.667 -18 56.667 -27 72 -27
c23.333 0 44.666 16 63.999 48l47 -39c-26.667 -54.667 -66 -82 -118 -82c-18.667 0 -46.334 8.66699 -83.001 26c-35.333 16.667 -61.333 25 -78 25c-11.333 0 -22.166 -4.66699 -32.499 -14s-18.5 -20 -24.5 -32z" />
    <glyph glyph-name="Odieresis" unicode="&#xd6;" horiz-adv-x="828" 
d="M809 377c0 -112 -38.335 -205.333 -115.002 -280c-77.333 -75.333 -170.666 -113 -279.999 -113s-202.666 37.667 -279.999 113c-76.667 74.667 -115 168 -115 280c0 107.333 38.667 199.666 116 276.999c78.667 77.333 171.667 116 279 116
c108 0 200.667 -38.667 278 -116c78 -77.333 117 -169.666 117 -276.999zM714.998 377c0 84.667 -28.6689 156.667 -86.002 216s-129 89 -215 89c-86.667 0 -158.667 -29.667 -216 -89c-56.667 -58.667 -85 -130.667 -85 -216s29.667 -157.666 89 -216.999
c58.667 -58.667 129.334 -88 212.001 -88s153.334 29.333 212.001 88c59.333 59.333 89 131.666 89 216.999zM247.996 920c0 16.667 6 30.834 18 42.501s26.333 17.5 43 17.5s30.834 -5.83301 42.501 -17.5s17.5 -25.834 17.5 -42.501s-5.83301 -31 -17.5 -43
s-25.834 -18 -42.501 -18s-31 5.83301 -43 17.5s-18 26.167 -18 43.5zM519.996 859c-17.333 0 -31.8311 5.83105 -43.498 17.498s-17.5 26.167 -17.5 43.5c-0.666992 12.667 2.66602 23.834 9.99902 33.501s16.5 16.667 27.5 21s22.667 5.83301 35 4.5s22.5 -7 30.5 -17
c10 -8 15.667 -18.167 17 -30.5s-0.166992 -24 -4.5 -35s-11.333 -20.167 -21 -27.5s-20.834 -10.666 -33.501 -9.99902z" />
    <glyph glyph-name="multiply" unicode="&#xd7;" 
d="M93 512l196 -195l196 195l60 -61l-195 -195l195 -195l-60 -61l-196 195l-196 -195l-60 61l195 195l-195 195z" />
    <glyph glyph-name="Oslash" unicode="&#xd8;" horiz-adv-x="828" 
d="M715 629c62.667 -77.333 93.999 -161.333 93.999 -252c0 -112 -38.333 -205.333 -115 -280c-77.333 -75.333 -170.666 -113 -279.999 -113c-92 0 -178.667 31.667 -260 95l-100 -100l-41 42l99 99c-62 68.667 -93 154.334 -93 257.001
c0 107.333 38.667 199.666 116 276.999c78.667 77.333 171.667 116 279 116c48 0 95 -8.66699 141 -26s86 -42 120 -74l100 100l40 -41zM609.999 609c-51.333 50 -116.667 74.332 -196 72.999c-86.667 0 -158.667 -29.667 -216 -89c-56.667 -58.667 -85 -130.667 -85 -216
c0 -73.333 21.667 -138.666 65 -195.999zM222.998 141.999c48.667 -46.667 112.332 -69.999 190.999 -69.999c82.667 0 153.334 29.333 212.001 88c59.333 59.333 89 131.666 89 216.999c0 70 -22 133 -66 189z" />
    <glyph glyph-name="Ugrave" unicode="&#xd9;" horiz-adv-x="669" 
d="M153 754v-444.999c0 -158 60.667 -237 182 -237s182 79 182 237v445h94v-477c0 -86 -25 -156.333 -75 -211c-48.667 -54.667 -115.667 -82 -201 -82c-84.667 0 -152 27.333 -202 82c-49.333 55.333 -74 125.666 -74 210.999v477h94zM302 1020l125 -166l-44 -27l-164 149z
" />
    <glyph glyph-name="Uacute" unicode="&#xda;" horiz-adv-x="669" 
d="M153 754v-444.999c0 -158 60.667 -237 182 -237s182 79 182 237v445h94v-477c0 -86 -25 -156.333 -75 -211c-48.667 -54.667 -115.667 -82 -201 -82c-84.667 0 -152 27.333 -202 82c-49.333 55.333 -74 125.666 -74 210.999v477h94zM439 976.001l-164 -149l-44 27
l125 166z" />
    <glyph glyph-name="Ucircumflex" unicode="&#xdb;" horiz-adv-x="669" 
d="M153 754v-444.999c0 -158 60.667 -237 182 -237s182 79 182 237v445h94v-477c0 -86 -25 -156.333 -75 -211c-48.667 -54.667 -115.667 -82 -201 -82c-84.667 0 -152 27.333 -202 82c-49.333 55.333 -74 125.666 -74 210.999v477h94zM334 1020l161 -145l-59 -46l-102 96
l-101 -96l-58 46z" />
    <glyph glyph-name="Udieresis" unicode="&#xdc;" horiz-adv-x="669" 
d="M153 754v-444.999c0 -158 60.667 -237 182 -237s182 79 182 237v445h94v-477c0 -86 -25 -156.333 -75 -211c-48.667 -54.667 -115.667 -82 -201 -82c-84.667 0 -152 27.333 -202 82c-49.333 55.333 -74 125.666 -74 210.999v477h94zM230 859.001
c-17.333 0 -31.8301 5.83105 -43.4971 17.498s-17.5 26.167 -17.5 43.5c-0.666992 12.667 2.66602 23.834 9.99902 33.501s16.5 16.667 27.5 21s22.667 5.83301 35 4.5s22.5 -7 30.5 -17c10 -8 15.833 -18.167 17.5 -30.5s0.166992 -24 -4.5 -35
s-11.834 -20.167 -21.501 -27.5s-20.834 -10.666 -33.501 -9.99902zM380.003 919.999c0 16.667 6 30.834 18 42.501s26.333 17.5 43 17.5s30.834 -5.83301 42.501 -17.5s17.5 -25.834 17.5 -42.501s-5.83301 -31 -17.5 -43s-25.834 -18 -42.501 -18s-31 5.83301 -43 17.5
s-18 26.167 -18 43.5z" />
    <glyph glyph-name="Yacute" unicode="&#xdd;" horiz-adv-x="573" 
d="M-6 754h108l185 -322l185 322h108l-246 -426v-328h-94v328zM431 976l-164 -149l-44 27l125 166z" />
    <glyph glyph-name="Thorn" unicode="&#xde;" horiz-adv-x="495" 
d="M166 0h-94.001v754h94v-140h14c112 0 190.333 -18.333 235 -55c46 -36 69 -90.333 69 -163c0 -74.667 -24.667 -130 -74 -166s-112.666 -54 -189.999 -54h-54v-176zM165.999 260l29.999 0.000976562c28 0 52.333 1.66699 73 5s41.334 9.33301 62.001 18
c20.667 9.33301 36.667 23.666 48 42.999s17 43.333 17 72c0 28 -6 51.333 -18 70s-29 32 -51 40c-22 8.66699 -43.167 14.5 -63.5 17.5s-44.5 4.5 -72.5 4.5h-25v-270z" />
    <glyph glyph-name="germandbls" unicode="&#xdf;" horiz-adv-x="580" 
d="M282 68c51.333 0 96.665 18.6689 135.998 56.002s59 82 59 134c0 28 -4.83301 53 -14.5 75s-23 40.833 -40 56.5s-37.5 28 -61.5 37s-50.333 14.5 -79 16.5v88c38 -1.33301 70 11.667 96 39c26 26.667 39 59.667 39 99c0 36.667 -12.667 67 -38 91s-56 36 -92 36
c-18 0 -34.167 -3 -48.5 -9s-26.166 -13 -35.499 -21c-4 -4 -7.83301 -9 -11.5 -15s-7 -12.5 -10 -19.5s-5.66699 -13.833 -8 -20.5l-6.5 -18c-2.66699 -8.66699 -5 -24 -7 -46c-0.666992 -10.667 -1.16699 -19.5 -1.5 -26.5s-0.5 -12.833 -0.5 -17.5v-44v-559h-90v386h-40
v84h40v148c0 174.667 74 262 222 262c62.667 0 114.334 -20.333 155.001 -61c41.333 -41.333 62 -93 62 -155c0 -74.667 -32 -130.334 -96 -167.001c48 -14.667 86 -45.334 114 -92.001c28 -45.333 42 -94.333 42 -147c0 -78 -28.333 -144 -85 -198
c-56 -54 -122.667 -79.333 -200 -76v84z" />
    <glyph glyph-name="agrave" unicode="&#xe0;" horiz-adv-x="556" 
d="M264 64c47.333 0 84.333 16.333 111 49c27.333 33.333 41 73.666 41 120.999c0 46.667 -13.667 86.334 -41 119.001c-26.667 32.667 -63.667 49 -111 49c-44.667 0 -80.667 -16.667 -108 -50c-26.667 -32.667 -40 -72 -40 -118c0 -47.333 13.333 -87.333 40 -120
c27.333 -33.333 63.333 -50 108 -50zM501 0l-89.999 0.000976562v73h-2c-40 -59.333 -93 -89 -159 -89c-68.667 0 -123.334 24.333 -164.001 73c-40 48.667 -60 108.667 -60 180c0 67.333 20.333 124.666 61 171.999c40.667 48.667 94 73 160 73
c66.667 0 120.667 -30.667 162 -92h2v78h90v-468zM257.001 734.001l125 -166l-44 -27l-164 149z" />
    <glyph glyph-name="aacute" unicode="&#xe1;" horiz-adv-x="556" 
d="M264 64c47.333 0 84.333 16.333 111 49c27.333 33.333 41 73.666 41 120.999c0 46.667 -13.667 86.334 -41 119.001c-26.667 32.667 -63.667 49 -111 49c-44.667 0 -80.667 -16.667 -108 -50c-26.667 -32.667 -40 -72 -40 -118c0 -47.333 13.333 -87.333 40 -120
c27.333 -33.333 63.333 -50 108 -50zM501 0l-89.999 0.000976562v73h-2c-40 -59.333 -93 -89 -159 -89c-68.667 0 -123.334 24.333 -164.001 73c-40 48.667 -60 108.667 -60 180c0 67.333 20.333 124.666 61 171.999c40.667 48.667 94 73 160 73
c66.667 0 120.667 -30.667 162 -92h2v78h90v-468zM382.001 690.001l-164 -149l-44 27l125 166z" />
    <glyph glyph-name="acircumflex" unicode="&#xe2;" horiz-adv-x="556" 
d="M264 64c47.333 0 84.333 16.333 111 49c27.333 33.333 41 73.666 41 120.999c0 46.667 -13.667 86.334 -41 119.001c-26.667 32.667 -63.667 49 -111 49c-44.667 0 -80.667 -16.667 -108 -50c-26.667 -32.667 -40 -72 -40 -118c0 -47.333 13.333 -87.333 40 -120
c27.333 -33.333 63.333 -50 108 -50zM501 0l-89.999 0.000976562v73h-2c-40 -59.333 -93 -89 -159 -89c-68.667 0 -123.334 24.333 -164.001 73c-40 48.667 -60 108.667 -60 180c0 67.333 20.333 124.666 61 171.999c40.667 48.667 94 73 160 73
c66.667 0 120.667 -30.667 162 -92h2v78h90v-468zM277.001 734.001l161 -145l-59 -46l-102 96l-101 -96l-58 46z" />
    <glyph glyph-name="atilde" unicode="&#xe3;" horiz-adv-x="556" 
d="M264 64c47.333 0 84.333 16.333 111 49c27.333 33.333 41 73.666 41 120.999c0 46.667 -13.667 86.334 -41 119.001c-26.667 32.667 -63.667 49 -111 49c-44.667 0 -80.667 -16.667 -108 -50c-26.667 -32.667 -40 -72 -40 -118c0 -47.333 13.333 -87.333 40 -120
c27.333 -33.333 63.333 -50 108 -50zM501 0l-89.999 0.000976562v73h-2c-40 -59.333 -93 -89 -159 -89c-68.667 0 -123.334 24.333 -164.001 73c-40 48.667 -60 108.667 -60 180c0 67.333 20.333 124.666 61 171.999c40.667 48.667 94 73 160 73
c66.667 0 120.667 -30.667 162 -92h2v78h90v-468zM87.001 613.001l3 5c11.333 16 21 28.667 29 38s19 18 33 26s29.333 12 46 12c26.667 0 56.334 -8.66699 89.001 -26c32.667 -18 56.667 -27 72 -27c23.333 0 44.666 16 63.999 48l47 -39c-26.667 -54.667 -66 -82 -118 -82
c-18.667 0 -46.334 8.66699 -83.001 26c-35.333 16.667 -61.333 25 -78 25c-11.333 0 -22.166 -4.66699 -32.499 -14s-18.5 -20 -24.5 -32z" />
    <glyph glyph-name="adieresis" unicode="&#xe4;" horiz-adv-x="556" 
d="M264 64c47.333 0 84.333 16.333 111 49c27.333 33.333 41 73.666 41 120.999c0 46.667 -13.667 86.334 -41 119.001c-26.667 32.667 -63.667 49 -111 49c-44.667 0 -80.667 -16.667 -108 -50c-26.667 -32.667 -40 -72 -40 -118c0 -47.333 13.333 -87.333 40 -120
c27.333 -33.333 63.333 -50 108 -50zM501 0l-89.999 0.000976562v73h-2c-40 -59.333 -93 -89 -159 -89c-68.667 0 -123.334 24.333 -164.001 73c-40 48.667 -60 108.667 -60 180c0 67.333 20.333 124.666 61 171.999c40.667 48.667 94 73 160 73
c66.667 0 120.667 -30.667 162 -92h2v78h90v-468zM112.001 634.001c0 16.667 6 30.834 18 42.501s26.333 17.5 43 17.5s30.834 -5.83301 42.501 -17.5s17.5 -25.834 17.5 -42.501s-5.83301 -31 -17.5 -43s-25.834 -18 -42.501 -18s-31 5.83301 -43 17.5s-18 26.167 -18 43.5
zM384.001 573.001c-17.333 0 -31.8311 5.83105 -43.498 17.498s-17.5 26.167 -17.5 43.5c-0.666992 12.667 2.66602 23.834 9.99902 33.501s16.5 16.667 27.5 21s22.667 5.83301 35 4.5s22.5 -7 30.5 -17c10 -8 15.667 -18.167 17 -30.5s-0.166992 -24 -4.5 -35
s-11.333 -20.167 -21 -27.5s-20.834 -10.666 -33.501 -9.99902z" />
    <glyph glyph-name="aring" unicode="&#xe5;" horiz-adv-x="556" 
d="M264 64c47.333 0 84.333 16.333 111 49c27.333 33.333 41 73.666 41 120.999c0 46.667 -13.667 86.334 -41 119.001c-26.667 32.667 -63.667 49 -111 49c-44.667 0 -80.667 -16.667 -108 -50c-26.667 -32.667 -40 -72 -40 -118c0 -47.333 13.333 -87.333 40 -120
c27.333 -33.333 63.333 -50 108 -50zM501 0l-89.999 0.000976562v73h-2c-40 -59.333 -93 -89 -159 -89c-68.667 0 -123.334 24.333 -164.001 73c-40 48.667 -60 108.667 -60 180c0 67.333 20.333 124.666 61 171.999c40.667 48.667 94 73 160 73
c66.667 0 120.667 -30.667 162 -92h2v78h90v-468zM278.001 734.001c19.333 1.33301 36.333 -3.66895 51 -15.002s25.5 -25.166 32.5 -41.499s9.16699 -33.666 6.5 -51.999s-11.334 -33.833 -26.001 -46.5c-12.667 -14 -28.167 -22.167 -46.5 -24.5
s-35.666 -0.166016 -51.999 6.50098s-30 17.167 -41 31.5s-15.833 31.166 -14.5 50.499c0 12.667 2.33301 24.5 7 35.5s11.167 20.667 19.5 29s18 14.833 29 19.5s22.5 7 34.5 7zM278.001 597.999c12.667 0 23.5 4.33301 32.5 13s13.5 19.334 13.5 32.001
s-4.5 23.5 -13.5 32.5s-19.833 13.5 -32.5 13.5c-12 0 -22.5 -4.5 -31.5 -13.5s-13.5 -19.833 -13.5 -32.5s4.5 -23.334 13.5 -32.001s19.5 -13 31.5 -13z" />
    <glyph glyph-name="ae" unicode="&#xe6;" horiz-adv-x="807" 
d="M704 287c-5.33301 36 -19.165 64.501 -41.498 85.501s-51.5 31.5 -87.5 31.5c-17.333 0 -33.5 -2.83301 -48.5 -8.5s-28.333 -13.834 -40 -24.501s-21.334 -23.167 -29.001 -37.5s-12.834 -29.833 -15.501 -46.5h262zM221.001 218.001
c-28 0 -53.332 -7.00195 -75.999 -21.002c-23.333 -13.333 -35 -32.666 -35 -57.999s12 -44.333 36 -57c24 -12 50 -18 78 -18c29.333 0 55.666 6.33301 78.999 19c24.667 12.667 37 32.334 37 59.001c0 24.667 -12.667 43.667 -38 57c-24.667 12.667 -51.667 19 -81 19z
M435.002 218.999c1.33301 -42 14.6689 -78.332 40.002 -108.999c26 -30.667 59.667 -46 101 -46c32.667 0 59.5 7.5 80.5 22.5s40.833 37.833 59.5 68.5l76 -43c-22 -40 -52.167 -71.333 -90.5 -94s-80.5 -34 -126.5 -34c-70 0 -130 29 -180 87
c-18.667 -28 -44.167 -49.5 -76.5 -64.5s-66.5 -22.5 -102.5 -22.5c-50.667 0 -95 13 -133 39c-38 26.667 -57 64.667 -57 114c0 48.667 17 87 51 115s76 42 126 42c60 0 107.333 -14.333 142 -43v32c0 80.667 -41 121 -123 121c-54.667 0 -97.334 -5 -128.001 -15v80
c42.667 8.66699 89.667 13 141 13c32 0 63.167 -6.5 93.5 -19.5s52.5 -32.167 66.5 -57.5c41.333 51.333 100.666 77 177.999 77c72 0 126.333 -23.333 163 -70c37.333 -46.667 56 -106.334 56 -179.001v-14h-357z" />
    <glyph glyph-name="ccedilla" unicode="&#xe7;" horiz-adv-x="441" 
d="M406 335c-37.333 42 -82.001 63 -134.001 63c-43.333 0 -80.333 -16.333 -111 -49c-30 -33.333 -45 -71.666 -45 -114.999c0 -48.667 15 -88.334 45 -119.001c31.333 -31.333 70.333 -47 117 -47c48 0 90.667 20.667 128 62v-115c-38.667 -20.667 -81.667 -31 -129 -31
c-69.333 0 -128.666 23.667 -177.999 71c-48.667 46.667 -73 105 -73 175c0 72 24.333 132 73 180s109.667 72 183 72c48 0 89.333 -10.333 124 -31v-116zM194.999 -181l-53 27l87 137l71 -29z" />
    <glyph glyph-name="egrave" unicode="&#xe8;" horiz-adv-x="488" 
d="M116 219c1.33301 -42 14.667 -78.332 40 -108.999c26 -30.667 59.667 -46 101 -46c32.667 0 59.5 7.5 80.5 22.5s40.833 37.833 59.5 68.5l76 -43c-22 -40 -52.167 -71.333 -90.5 -94s-80.5 -34 -126.5 -34c-70 0 -126 23.333 -168 70c-41.333 47.333 -62 106 -62 176
c0 74 19.667 134.667 59 182c38.667 46.667 95 70 169 70c72 0 126.333 -23.333 163 -70c37.333 -46.667 56 -106.334 56 -179.001v-14h-357zM383.001 287.001c-5.33301 36 -19.165 64.501 -41.498 85.501s-51.5 31.5 -87.5 31.5c-17.333 0 -33.5 -2.83301 -48.5 -8.5
s-28.333 -13.834 -40 -24.501s-21.334 -23.167 -29.001 -37.5s-12.834 -29.833 -15.501 -46.5h262zM223.002 734.002l125 -166l-44 -27l-164 149z" />
    <glyph glyph-name="eacute" unicode="&#xe9;" horiz-adv-x="488" 
d="M116 219c1.33301 -42 14.667 -78.332 40 -108.999c26 -30.667 59.667 -46 101 -46c32.667 0 59.5 7.5 80.5 22.5s40.833 37.833 59.5 68.5l76 -43c-22 -40 -52.167 -71.333 -90.5 -94s-80.5 -34 -126.5 -34c-70 0 -126 23.333 -168 70c-41.333 47.333 -62 106 -62 176
c0 74 19.667 134.667 59 182c38.667 46.667 95 70 169 70c72 0 126.333 -23.333 163 -70c37.333 -46.667 56 -106.334 56 -179.001v-14h-357zM383.001 287.001c-5.33301 36 -19.165 64.501 -41.498 85.501s-51.5 31.5 -87.5 31.5c-17.333 0 -33.5 -2.83301 -48.5 -8.5
s-28.333 -13.834 -40 -24.501s-21.334 -23.167 -29.001 -37.5s-12.834 -29.833 -15.501 -46.5h262zM348.002 690.002l-164 -149l-44 27l125 166z" />
    <glyph glyph-name="ecircumflex" unicode="&#xea;" horiz-adv-x="488" 
d="M116 219c1.33301 -42 14.667 -78.332 40 -108.999c26 -30.667 59.667 -46 101 -46c32.667 0 59.5 7.5 80.5 22.5s40.833 37.833 59.5 68.5l76 -43c-22 -40 -52.167 -71.333 -90.5 -94s-80.5 -34 -126.5 -34c-70 0 -126 23.333 -168 70c-41.333 47.333 -62 106 -62 176
c0 74 19.667 134.667 59 182c38.667 46.667 95 70 169 70c72 0 126.333 -23.333 163 -70c37.333 -46.667 56 -106.334 56 -179.001v-14h-357zM383.001 287.001c-5.33301 36 -19.165 64.501 -41.498 85.501s-51.5 31.5 -87.5 31.5c-17.333 0 -33.5 -2.83301 -48.5 -8.5
s-28.333 -13.834 -40 -24.501s-21.334 -23.167 -29.001 -37.5s-12.834 -29.833 -15.501 -46.5h262zM243.002 734.002l161 -145l-59 -46l-102 96l-101 -96l-58 46z" />
    <glyph glyph-name="edieresis" unicode="&#xeb;" horiz-adv-x="488" 
d="M116 219c1.33301 -42 14.667 -78.332 40 -108.999c26 -30.667 59.667 -46 101 -46c32.667 0 59.5 7.5 80.5 22.5s40.833 37.833 59.5 68.5l76 -43c-22 -40 -52.167 -71.333 -90.5 -94s-80.5 -34 -126.5 -34c-70 0 -126 23.333 -168 70c-41.333 47.333 -62 106 -62 176
c0 74 19.667 134.667 59 182c38.667 46.667 95 70 169 70c72 0 126.333 -23.333 163 -70c37.333 -46.667 56 -106.334 56 -179.001v-14h-357zM383.001 287.001c-5.33301 36 -19.165 64.501 -41.498 85.501s-51.5 31.5 -87.5 31.5c-17.333 0 -33.5 -2.83301 -48.5 -8.5
s-28.333 -13.834 -40 -24.501s-21.334 -23.167 -29.001 -37.5s-12.834 -29.833 -15.501 -46.5h262zM78.002 634.002c0 16.667 6 30.834 18 42.501s26.333 17.5 43 17.5s30.834 -5.83301 42.501 -17.5s17.5 -25.834 17.5 -42.501s-5.83301 -31 -17.5 -43
s-25.834 -18 -42.501 -18s-31 5.83301 -43 17.5s-18 26.167 -18 43.5zM350.002 573.002c-17.333 0 -31.8311 5.83105 -43.498 17.498s-17.5 26.167 -17.5 43.5c-0.666992 12.667 2.66602 23.834 9.99902 33.501s16.5 16.667 27.5 21s22.667 5.83301 35 4.5s22.5 -7 30.5 -17
c10 -8 15.667 -18.167 17 -30.5s-0.166992 -24 -4.5 -35s-11.333 -20.167 -21 -27.5s-20.834 -10.666 -33.501 -9.99902z" />
    <glyph glyph-name="igrave" unicode="&#xec;" horiz-adv-x="254" 
d="M172 0h-90v468h90v-468zM106 734l125 -166l-44 -27l-164 149z" />
    <glyph glyph-name="iacute" unicode="&#xed;" horiz-adv-x="254" 
d="M172 0h-90v468h90v-468zM231 690l-164 -149l-44 27l125 166z" />
    <glyph glyph-name="icircumflex" unicode="&#xee;" horiz-adv-x="254" 
d="M172 0h-90v468h90v-468zM126 734l161 -145l-59 -46l-102 96l-101 -96l-58 46z" />
    <glyph glyph-name="idieresis" unicode="&#xef;" horiz-adv-x="254" 
d="M172 0h-90v468h90v-468zM22 573c-17.333 0 -31.8311 5.83105 -43.498 17.498s-17.5 26.167 -17.5 43.5c-0.666992 12.667 2.66602 23.834 9.99902 33.501s16.5 16.667 27.5 21s22.667 5.83301 35 4.5s22.5 -7 30.5 -17c10 -8 15.667 -18.167 17 -30.5
s-0.166992 -24 -4.5 -35s-11.333 -20.167 -21 -27.5s-20.834 -10.666 -33.501 -9.99902zM172.002 633.998c0 16.667 6 30.834 18 42.501s26.333 17.5 43 17.5s30.834 -5.83301 42.501 -17.5s17.5 -25.834 17.5 -42.501s-5.83301 -31 -17.5 -43s-25.834 -18 -42.501 -18
s-31 5.83301 -43 17.5s-18 26.167 -18 43.5z" />
    <glyph glyph-name="eth" unicode="&#xf0;" horiz-adv-x="540" 
d="M110 233c0 -43.333 15.667 -81.666 47 -114.999c30.667 -32 68.334 -48 113.001 -48c44 0 81.667 16 113 48c31.333 33.333 47 71.666 47 114.999c0 44 -15.667 82.333 -47 115c-31.333 32 -69 48 -113 48c-44.667 0 -82.334 -16 -113.001 -48
c-31.333 -32.667 -47 -71 -47 -115zM124 868l100.999 -111.001l146 83l49 -54l-145 -84c50 -59.333 105 -137.333 165 -234c53.333 -87.333 80 -165.666 80 -234.999c0 -74 -24 -134 -72 -180c-47.333 -46 -106.666 -69 -177.999 -69c-70 0 -129.333 24 -178 72
c-48 48 -72 107 -72 177s24 129 72 177c48.667 48 108 72 178 72c22 0 44 -4.66699 66 -14l2 2c-18.667 30.667 -43.334 66.334 -74.001 107.001c-14.667 20 -27.667 36.667 -39 50s-20.666 23.666 -27.999 30.999l-158 -91l-50 55l158 91l-101 111z" />
    <glyph glyph-name="ntilde" unicode="&#xf1;" horiz-adv-x="523" 
d="M152 405l2.00098 0.000976562c13.333 24.667 32.666 43.667 57.999 57s53 20 83 20c30.667 0 56.667 -4.66699 78 -14s38.5 -22.666 51.5 -39.999s22.333 -38.5 28 -63.5s8.5 -53.5 8.5 -85.5v-279h-90v268c0 46 -6.66699 79.667 -20 101c-13.333 22 -41 33 -83 33
c-15.333 0 -28.333 -1.5 -39 -4.5s-20 -7.33301 -28 -13s-14.667 -12.167 -20 -19.5s-10.333 -15.333 -15 -24c-2 -4.66699 -3.83301 -10.667 -5.5 -18s-3.16699 -14.833 -4.5 -22.5s-2.33301 -15.334 -3 -23.001s-1 -13.834 -1 -18.501v-44v-215h-90v468h90v-63z
M71.001 613.001l3 5c11.333 16 21 28.667 29 38s19 18 33 26s29.333 12 46 12c26.667 0 56.334 -8.66699 89.001 -26c32.667 -18 56.667 -27 72 -27c23.333 0 44.666 16 63.999 48l47 -39c-26.667 -54.667 -66 -82 -118 -82c-18.667 0 -46.334 8.66699 -83.001 26
c-35.333 16.667 -61.333 25 -78 25c-11.333 0 -22.166 -4.66699 -32.499 -14s-18.5 -20 -24.5 -32z" />
    <glyph glyph-name="ograve" unicode="&#xf2;" horiz-adv-x="540" 
d="M92 410c48.667 48 108 72 178 72s129 -24 177 -72c48.667 -48 73 -107 73 -177s-24.333 -129 -73 -177c-48 -48 -107 -72 -177 -72s-129.333 24 -178 72c-48 48 -72 107 -72 177s24 129 72 177zM110 233c0 -43.333 15.667 -81.666 47 -114.999
c30.667 -32 68.334 -48 113.001 -48c44 0 81.667 16 113 48c31.333 33.333 47 71.666 47 114.999c0 44 -15.667 82.333 -47 115c-31.333 32 -69 48 -113 48c-44.667 0 -82.334 -16 -113.001 -48c-31.333 -32.667 -47 -71 -47 -115zM249 734l125 -166l-44 -27l-164 149z" />
    <glyph glyph-name="oacute" unicode="&#xf3;" horiz-adv-x="540" 
d="M92 410c48.667 48 108 72 178 72s129 -24 177 -72c48.667 -48 73 -107 73 -177s-24.333 -129 -73 -177c-48 -48 -107 -72 -177 -72s-129.333 24 -178 72c-48 48 -72 107 -72 177s24 129 72 177zM110 233c0 -43.333 15.667 -81.666 47 -114.999
c30.667 -32 68.334 -48 113.001 -48c44 0 81.667 16 113 48c31.333 33.333 47 71.666 47 114.999c0 44 -15.667 82.333 -47 115c-31.333 32 -69 48 -113 48c-44.667 0 -82.334 -16 -113.001 -48c-31.333 -32.667 -47 -71 -47 -115zM374 690l-164 -149l-44 27l125 166z" />
    <glyph glyph-name="ocircumflex" unicode="&#xf4;" horiz-adv-x="540" 
d="M92 410c48.667 48 108 72 178 72s129 -24 177 -72c48.667 -48 73 -107 73 -177s-24.333 -129 -73 -177c-48 -48 -107 -72 -177 -72s-129.333 24 -178 72c-48 48 -72 107 -72 177s24 129 72 177zM110 233c0 -43.333 15.667 -81.666 47 -114.999
c30.667 -32 68.334 -48 113.001 -48c44 0 81.667 16 113 48c31.333 33.333 47 71.666 47 114.999c0 44 -15.667 82.333 -47 115c-31.333 32 -69 48 -113 48c-44.667 0 -82.334 -16 -113.001 -48c-31.333 -32.667 -47 -71 -47 -115zM269 734l161 -145l-59 -46l-102 96
l-101 -96l-58 46z" />
    <glyph glyph-name="otilde" unicode="&#xf5;" horiz-adv-x="540" 
d="M92 410c48.667 48 108 72 178 72s129 -24 177 -72c48.667 -48 73 -107 73 -177s-24.333 -129 -73 -177c-48 -48 -107 -72 -177 -72s-129.333 24 -178 72c-48 48 -72 107 -72 177s24 129 72 177zM110 233c0 -43.333 15.667 -81.666 47 -114.999
c30.667 -32 68.334 -48 113.001 -48c44 0 81.667 16 113 48c31.333 33.333 47 71.666 47 114.999c0 44 -15.667 82.333 -47 115c-31.333 32 -69 48 -113 48c-44.667 0 -82.334 -16 -113.001 -48c-31.333 -32.667 -47 -71 -47 -115zM79 613l3 5c11.333 16 21 28.667 29 38
s19 18 33 26s29.333 12 46 12c26.667 0 56.334 -8.66699 89.001 -26c32.667 -18 56.667 -27 72 -27c23.333 0 44.666 16 63.999 48l47 -39c-26.667 -54.667 -66 -82 -118 -82c-18.667 0 -46.334 8.66699 -83.001 26c-35.333 16.667 -61.333 25 -78 25
c-11.333 0 -22.166 -4.66699 -32.499 -14s-18.5 -20 -24.5 -32z" />
    <glyph glyph-name="odieresis" unicode="&#xf6;" horiz-adv-x="540" 
d="M92 410c48.667 48 108 72 178 72s129 -24 177 -72c48.667 -48 73 -107 73 -177s-24.333 -129 -73 -177c-48 -48 -107 -72 -177 -72s-129.333 24 -178 72c-48 48 -72 107 -72 177s24 129 72 177zM110 233c0 -43.333 15.667 -81.666 47 -114.999
c30.667 -32 68.334 -48 113.001 -48c44 0 81.667 16 113 48c31.333 33.333 47 71.666 47 114.999c0 44 -15.667 82.333 -47 115c-31.333 32 -69 48 -113 48c-44.667 0 -82.334 -16 -113.001 -48c-31.333 -32.667 -47 -71 -47 -115zM104 634c0 16.667 6 30.834 18 42.501
s26.333 17.5 43 17.5s30.834 -5.83301 42.501 -17.5s17.5 -25.834 17.5 -42.501s-5.83301 -31 -17.5 -43s-25.834 -18 -42.501 -18s-31 5.83301 -43 17.5s-18 26.167 -18 43.5zM376 573c-17.333 0 -31.8311 5.83105 -43.498 17.498s-17.5 26.167 -17.5 43.5
c-0.666992 12.667 2.66602 23.834 9.99902 33.501s16.5 16.667 27.5 21s22.667 5.83301 35 4.5s22.5 -7 30.5 -17c10 -8 15.667 -18.167 17 -30.5s-0.166992 -24 -4.5 -35s-11.333 -20.167 -21 -27.5s-20.834 -10.666 -33.501 -9.99902z" />
    <glyph glyph-name="divide" unicode="&#xf7;" 
d="M33 299h512v-86h-512v86zM351 61c0 -16.667 -6 -31 -18 -43s-26.667 -18 -44 -18s-32 6 -44 18s-18 26.333 -18 43c0 17.333 6 32.166 18 44.499s26.667 18.5 44 18.5s32 -6.16699 44 -18.5s18 -27.166 18 -44.499zM351 449c0 -16.667 -6 -31 -18 -43
s-26.667 -18 -44 -18s-32 6 -44 18s-18 26.333 -18 43c0 17.333 6 32.166 18 44.499s26.667 18.5 44 18.5s32 -6.16699 44 -18.5s18 -27.166 18 -44.499z" />
    <glyph glyph-name="oslash" unicode="&#xf8;" horiz-adv-x="540" 
d="M461 395c39.333 -53.333 59 -107.333 59 -162c0 -70 -24.333 -129 -73 -177c-48 -48 -107 -72 -177 -72c-62 0 -116.333 19.333 -163 58l-61 -64l-31 31l61 62c-37.333 52.667 -56 106.667 -56 162c0 70 24 129 72 177c48.667 48 108 72 178 72
c61.333 0 114.333 -19.333 159 -58l66 67l31 -32zM365 363c-28 22 -59.666 33 -94.999 33c-44.667 0 -82.334 -16 -113.001 -48c-31.333 -32.667 -47 -71 -47 -115c0 -34.667 10.667 -67.667 32 -99zM173.001 102c26.667 -21.333 59 -31.998 97 -31.998
c44 0 81.667 16 113 48c31.333 33.333 47 71.666 47 114.999c0 37.333 -11.667 69.666 -35 96.999z" />
    <glyph glyph-name="ugrave" unicode="&#xf9;" horiz-adv-x="512" 
d="M148 468v-259c0 -44 7.83301 -78.5 23.5 -103.5s43.834 -37.5 84.501 -37.5s68.834 12.5 84.501 37.5s23.5 59.5 23.5 103.5v259h90v-269c0 -66.667 -16.333 -119.167 -49 -157.5s-82.334 -57.5 -149.001 -57.5s-116.334 19.167 -149.001 57.5s-49 90.833 -49 157.5v269
h90zM235 734l125 -166l-44 -27l-164 149z" />
    <glyph glyph-name="uacute" unicode="&#xfa;" horiz-adv-x="512" 
d="M148 468v-259c0 -44 7.83301 -78.5 23.5 -103.5s43.834 -37.5 84.501 -37.5s68.834 12.5 84.501 37.5s23.5 59.5 23.5 103.5v259h90v-269c0 -66.667 -16.333 -119.167 -49 -157.5s-82.334 -57.5 -149.001 -57.5s-116.334 19.167 -149.001 57.5s-49 90.833 -49 157.5v269
h90zM360 690l-164 -149l-44 27l125 166z" />
    <glyph glyph-name="ucircumflex" unicode="&#xfb;" horiz-adv-x="512" 
d="M148 468v-259c0 -44 7.83301 -78.5 23.5 -103.5s43.834 -37.5 84.501 -37.5s68.834 12.5 84.501 37.5s23.5 59.5 23.5 103.5v259h90v-269c0 -66.667 -16.333 -119.167 -49 -157.5s-82.334 -57.5 -149.001 -57.5s-116.334 19.167 -149.001 57.5s-49 90.833 -49 157.5v269
h90zM255 734l161 -145l-59 -46l-102 96l-101 -96l-58 46z" />
    <glyph glyph-name="udieresis" unicode="&#xfc;" horiz-adv-x="512" 
d="M148 468v-259c0 -44 7.83301 -78.5 23.5 -103.5s43.834 -37.5 84.501 -37.5s68.834 12.5 84.501 37.5s23.5 59.5 23.5 103.5v259h90v-269c0 -66.667 -16.333 -119.167 -49 -157.5s-82.334 -57.5 -149.001 -57.5s-116.334 19.167 -149.001 57.5s-49 90.833 -49 157.5v269
h90zM90 634c0 16.667 6 30.834 18 42.501s26.333 17.5 43 17.5s30.834 -5.83301 42.501 -17.5s17.5 -25.834 17.5 -42.501s-5.83301 -31 -17.5 -43s-25.834 -18 -42.501 -18s-31 5.83301 -43 17.5s-18 26.167 -18 43.5zM362 573c-17.333 0 -31.8311 5.83105 -43.498 17.498
s-17.5 26.167 -17.5 43.5c-0.666992 12.667 2.66602 23.834 9.99902 33.501s16.5 16.667 27.5 21s22.667 5.83301 35 4.5s22.5 -7 30.5 -17c10 -8 15.667 -18.167 17 -30.5s-0.166992 -24 -4.5 -35s-11.333 -20.167 -21 -27.5s-20.834 -10.666 -33.501 -9.99902z" />
    <glyph glyph-name="yacute" unicode="&#xfd;" horiz-adv-x="484" 
d="M-13 468h105l158 -297l147 297h101l-379 -736h-102l184 348zM346 690l-164 -149l-44 27l125 166z" />
    <glyph glyph-name="thorn" unicode="&#xfe;" horiz-adv-x="556" 
d="M145 390l2.00195 -0.000976562c41.333 61.333 95.666 92 162.999 92c65.333 0 118.333 -24.333 159 -73c40.667 -47.333 61 -104.666 61 -171.999c0 -71.333 -20 -131.333 -60 -180s-94.667 -73 -164 -73c-32 0 -61.833 7.83301 -89.5 23.5s-50.834 37.5 -69.501 65.5h-2
v-341h-90v1136h90v-478zM288.002 63.999c47.333 0 84.333 16.333 111 49c27.333 33.333 41 73.666 41 120.999c0 46.667 -13.667 86.334 -41 119.001c-26.667 32.667 -63.667 49 -111 49c-44.667 0 -80.667 -16.667 -108 -50c-26.667 -32.667 -40 -72 -40 -118
c0 -47.333 13.333 -87.333 40 -120c27.333 -33.333 63.333 -50 108 -50z" />
    <glyph glyph-name="ydieresis" unicode="&#xff;" horiz-adv-x="484" 
d="M-13 468h105l158 -297l147 297h101l-379 -736h-102l184 348zM76 634c0 16.667 6 30.834 18 42.501s26.333 17.5 43 17.5s30.834 -5.83301 42.501 -17.5s17.5 -25.834 17.5 -42.501s-5.83301 -31 -17.5 -43s-25.834 -18 -42.501 -18s-31 5.83301 -43 17.5
s-18 26.167 -18 43.5zM348 573c-17.333 0 -31.8311 5.83105 -43.498 17.498s-17.5 26.167 -17.5 43.5c-0.666992 12.667 2.66602 23.834 9.99902 33.501s16.5 16.667 27.5 21s22.667 5.83301 35 4.5s22.5 -7 30.5 -17c10 -8 15.667 -18.167 17 -30.5s-0.166992 -24 -4.5 -35
s-11.333 -20.167 -21 -27.5s-20.834 -10.666 -33.501 -9.99902z" />
    <glyph glyph-name="Abreve" unicode="&#x102;" horiz-adv-x="703" 
d="M179 189l-86 -189h-101l360 786l360 -786h-101l-86 189h-346zM352 580l-134 -305h268zM250 965c20.667 -50 54.668 -74.999 102.001 -74.999c26 0 46.833 6.16699 62.5 18.5s29.167 31.166 40.5 56.499h71c-6.66699 -40.667 -27 -74.667 -61 -102
c-33.333 -26 -71 -39 -113 -39c-42.667 0 -80.334 13 -113.001 39c-32.667 26.667 -53 60.667 -61 102h72z" />
    <glyph glyph-name="abreve" unicode="&#x103;" horiz-adv-x="556" 
d="M264 64c47.333 0 84.333 16.333 111 49c27.333 33.333 41 73.666 41 120.999c0 46.667 -13.667 86.334 -41 119.001c-26.667 32.667 -63.667 49 -111 49c-44.667 0 -80.667 -16.667 -108 -50c-26.667 -32.667 -40 -72 -40 -118c0 -47.333 13.333 -87.333 40 -120
c27.333 -33.333 63.333 -50 108 -50zM501 0l-89.999 0.000976562v73h-2c-40 -59.333 -93 -89 -159 -89c-68.667 0 -123.334 24.333 -164.001 73c-40 48.667 -60 108.667 -60 180c0 67.333 20.333 124.666 61 171.999c40.667 48.667 94 73 160 73
c66.667 0 120.667 -30.667 162 -92h2v78h90v-468zM160.001 694.001c20.667 -50 54.668 -74.999 102.001 -74.999c26 0 46.833 6.16699 62.5 18.5s29.167 31.166 40.5 56.499h71c-6.66699 -40.667 -27 -74.667 -61 -102c-33.333 -26 -71 -39 -113 -39
c-42.667 0 -80.334 13 -113.001 39c-32.667 26.667 -53 60.667 -61 102h72z" />
    <glyph glyph-name="Dcroat" unicode="&#x110;" horiz-adv-x="665" 
d="M64 754l155.999 -0.000976562c122.667 0 223.667 -32.333 303 -97c80 -64 120 -156 120 -276c0 -123.333 -39.667 -217.666 -119 -282.999s-181.666 -98 -306.999 -98h-153v362h-64v88h64v304zM157.999 449.999l134.002 0.000976562v-88h-134v-276h33
c48.667 0 94.667 4.83301 138 14.5s81.166 26 113.499 49s58.166 53 77.499 90s29 82.833 29 137.5c0 54 -9.5 100.167 -28.5 138.5s-45.5 68.166 -79.5 89.499c-34 22 -71.5 38 -112.5 48s-86.833 15 -137.5 15h-33v-218z" />
    <glyph glyph-name="dcroat" unicode="&#x111;" horiz-adv-x="556" 
d="M411 697l0.00195312 171.001h90v-171h51v-75h-51v-622h-90v73h-2c-18.667 -28 -41.834 -49.833 -69.501 -65.5s-57.5 -23.5 -89.5 -23.5c-69.333 0 -124 24.333 -164 73s-60 108.667 -60 180c0 67.333 20.333 124.666 61 171.999c40.667 48.667 93.667 73 159 73
c67.333 0 121.666 -30.667 162.999 -92h2v232h-78v75h78zM264.002 64.001c47.333 0 84.333 16.333 111 49c27.333 33.333 41 73.666 41 120.999c0 46.667 -13.667 86.334 -41 119.001c-26.667 32.667 -63.667 49 -111 49c-44.667 0 -80.667 -16.667 -108 -50
c-26.667 -32.667 -40 -72 -40 -118c0 -47.333 13.333 -87.333 40 -120c27.333 -33.333 63.333 -50 108 -50z" />
    <glyph glyph-name="Itilde" unicode="&#x128;" horiz-adv-x="232" 
d="M163 0h-94v754h94v-754zM-75 873l3 5c11.333 16 21 28.667 29 38s19 18 33 26s29.333 12 46 12c26.667 0 56.334 -8.66699 89.001 -26c32.667 -18 56.667 -27 72 -27c23.333 0 44.666 16 63.999 48l47 -39c-26.667 -54.667 -66 -82 -118 -82
c-18.667 0 -46.334 8.66699 -83.001 26c-35.333 16.667 -61.333 25 -78 25c-11.333 0 -22.166 -4.66699 -32.499 -14s-18.5 -20 -24.5 -32z" />
    <glyph glyph-name="itilde" unicode="&#x129;" horiz-adv-x="254" 
d="M172 0h-90v468h90v-468zM-64 613l3 5c11.333 16 21 28.667 29 38s19 18 33 26s29.333 12 46 12c26.667 0 56.334 -8.66699 89.001 -26c32.667 -18 56.667 -27 72 -27c23.333 0 44.666 16 63.999 48l47 -39c-26.667 -54.667 -66 -82 -118 -82
c-18.667 0 -46.334 8.66699 -83.001 26c-35.333 16.667 -61.333 25 -78 25c-11.333 0 -22.166 -4.66699 -32.499 -14s-18.5 -20 -24.5 -32z" />
    <glyph glyph-name="dotlessi" unicode="&#x131;" horiz-adv-x="254" 
d="M172 0h-90v468h90v-468z" />
    <glyph glyph-name="Lslash" unicode="&#x141;" horiz-adv-x="385" 
d="M166 470l118 83v-96l-118 -79v-292h229v-86h-323v320l-81 -58v97l81 54v341h94v-284z" />
    <glyph glyph-name="lslash" unicode="&#x142;" horiz-adv-x="255" 
d="M179 552l82 64v-94l-82 -61v-461h-90v412l-81 -61v93l81 57v367h90v-316z" />
    <glyph glyph-name="OE" unicode="&#x152;" horiz-adv-x="1143" 
d="M718 126l-2.00098 0.00195312c-34 -46 -77.333 -81.333 -130 -106s-110 -36.667 -172 -36c-109.333 0 -202.666 37.667 -279.999 113c-76.667 74.667 -115 168 -115 280c0 107.333 38.667 199.666 116 276.999c78.667 77.333 171.667 116 279 116
c30 -1.33301 59.667 -5.33301 89 -12s57 -16.334 83 -29.001s50.167 -28 72.5 -46s41.5 -38.333 57.5 -61h2v132h395v-86h-310v-211h301v-86h-301v-285h310v-86h-395v126zM714.999 377.002c0 84.667 -28.6689 156.667 -86.002 216s-129 89 -215 89
c-86.667 0 -158.667 -29.667 -216 -89c-56.667 -58.667 -85 -130.667 -85 -216s29.667 -157.666 89 -216.999c58.667 -58.667 129.334 -88 212.001 -88s153.334 29.333 212.001 88c59.333 59.333 89 131.666 89 216.999z" />
    <glyph glyph-name="oe" unicode="&#x153;" horiz-adv-x="897" 
d="M791 287c-5.33301 36 -19.165 64.501 -41.498 85.501s-51.5 31.5 -87.5 31.5c-17.333 0 -33.5 -2.83301 -48.5 -8.5s-28.333 -13.834 -40 -24.501s-21.334 -23.167 -29.001 -37.5s-12.834 -29.833 -15.501 -46.5h262zM110.001 233.001
c0 -43.333 15.667 -81.666 47 -114.999c30.667 -32 68.334 -48 113.001 -48c44 0 81.667 16 113 48c31.333 33.333 47 71.666 47 114.999c0 44 -15.667 82.333 -47 115c-31.333 32 -69 48 -113 48c-44.667 0 -82.334 -16 -113.001 -48c-31.333 -32.667 -47 -71 -47 -115z
M525.001 219.001c1.33301 -42 14.667 -78.332 40 -108.999c26 -30.667 59.667 -46 101 -46c32.667 0 59.5 7.5 80.5 22.5s40.833 37.833 59.5 68.5l76 -43c-22 -40 -52.167 -71.333 -90.5 -94s-80.5 -34 -126.5 -34c-40 -0.666992 -77.667 8.16602 -113 26.499
s-62.666 43.833 -81.999 76.5c-22 -32.667 -50.833 -58.167 -86.5 -76.5s-73.5 -27.166 -113.5 -26.499c-70 0 -129.333 24 -178 72c-48 48 -72 107 -72 177s24 129 72 177c48.667 48 108 72 178 72c19.333 -0.666992 38.5 -3.66699 57.5 -9s37.333 -12.5 55 -21.5
s34 -19.667 49 -32s27.833 -26.5 38.5 -42.5c43.333 67.333 107.666 102.333 192.999 105c72 0 126.333 -23.333 163 -70c37.333 -46.667 56 -106.334 56 -179.001v-14h-357z" />
    <glyph glyph-name="Scaron" unicode="&#x160;" horiz-adv-x="537" 
d="M407 611c-28 47.333 -68.333 71 -121 71c-32 0 -61 -10 -87 -30s-39 -45.667 -39 -77c0 -45.333 35 -81.333 105 -108l54 -21c30 -12 56.667 -25 80 -39s42.833 -30 58.5 -48s27.667 -38.5 36 -61.5s12.5 -49.167 12.5 -78.5c0 -68 -23.333 -124.333 -70 -169
c-46 -44 -103 -66 -171 -66c-60.667 0 -112.667 19.667 -156 59c-43.333 40 -69 90.667 -77 152l95 20c-0.666992 -40.667 13 -74.667 41 -102c29.333 -27.333 64.333 -41 105 -41c40 0 73 14.333 99 43c26.667 28.667 40 63.334 40 104.001c0 36.667 -11.5 65.5 -34.5 86.5
s-54.833 39.833 -95.5 56.5l-52 22c-26 10.667 -49.167 22.167 -69.5 34.5s-37.5 26.166 -51.5 41.499s-24.667 32.333 -32 51s-11 40 -11 64c0 58.667 22 105.667 66 141c44 36 96 54 156 54c86 0 150.667 -38 194 -114zM167 1020l101 -96l102 96l59 -46l-161 -145
l-159 145z" />
    <glyph glyph-name="scaron" unicode="&#x161;" horiz-adv-x="384" 
d="M250 361c-13.333 27.333 -33.3398 40.9961 -60.0068 40.9961c-12.667 0 -24 -4.5 -34 -13.5s-15 -19.833 -15 -32.5c0 -12 3.83301 -22.167 11.5 -30.5s18.167 -16.166 31.5 -23.499c8.66699 -4 15.334 -7.16699 20.001 -9.5s12.334 -5.83301 23.001 -10.5
c5.33301 -2.66699 10 -4.66699 14 -6s7 -2.66602 9 -3.99902c33.333 -15.333 59.666 -33 78.999 -53s29 -46.667 29 -80c0 -44 -16 -81 -48 -111c-31.333 -29.333 -69 -44 -113 -44c-18 0 -35.333 2.5 -52 7.5s-32.167 12 -46.5 21s-27 20 -38 33s-19.5 27.5 -25.5 43.5
l77 35c22 -40 50.333 -60 85 -60c14 0 27 3.83301 39 11.5s20.833 17.334 26.5 29.001s6.83398 24.334 3.50098 38.001s-13.666 26.5 -30.999 38.5l-88 47c-15.333 8 -28.666 16 -39.999 24s-20.666 16.5 -27.999 25.5s-12.833 19 -16.5 30s-5.5 23.833 -5.5 38.5
c0 38 13.333 70 40 96c26.667 26.667 59.334 40 98.001 40c58.667 0 101.334 -27.333 128.001 -82zM89.9932 733.996l101 -96l102 96l59 -46l-161 -145l-159 145z" />
    <glyph glyph-name="Utilde" unicode="&#x168;" horiz-adv-x="669" 
d="M144 873l3 5c11.333 16 21 28.667 29 38s19 18 33 26s29.333 12 46 12c26.667 0 56.334 -8.66699 89.001 -26c32.667 -18 56.667 -27 72 -27c23.333 0 44.666 16 63.999 48l47 -39c-26.667 -54.667 -66 -82 -118 -82c-18.667 0 -46.334 8.66699 -83.001 26
c-35.333 16.667 -61.333 25 -78 25c-11.333 0 -22.166 -4.66699 -32.499 -14s-18.5 -20 -24.5 -32zM153 754v-444.999c0 -158 60.667 -237 182 -237s182 79 182 237v445h94v-477c0 -86 -25 -156.333 -75 -211c-48.667 -54.667 -115.667 -82 -201 -82
c-84.667 0 -152 27.333 -202 82c-49.333 55.333 -74 125.666 -74 210.999v477h94z" />
    <glyph glyph-name="utilde" unicode="&#x169;" horiz-adv-x="512" 
d="M148 468v-259c0 -44 7.83301 -78.5 23.5 -103.5s43.834 -37.5 84.501 -37.5s68.834 12.5 84.501 37.5s23.5 59.5 23.5 103.5v259h90v-269c0 -66.667 -16.333 -119.167 -49 -157.5s-82.334 -57.5 -149.001 -57.5s-116.334 19.167 -149.001 57.5s-49 90.833 -49 157.5v269
h90zM65 613l3 5c11.333 16 21 28.667 29 38s19 18 33 26s29.333 12 46 12c26.667 0 56.334 -8.66699 89.001 -26c32.667 -18 56.667 -27 72 -27c23.333 0 44.666 16 63.999 48l47 -39c-26.667 -54.667 -66 -82 -118 -82c-18.667 0 -46.334 8.66699 -83.001 26
c-35.333 16.667 -61.333 25 -78 25c-11.333 0 -22.166 -4.66699 -32.499 -14s-18.5 -20 -24.5 -32z" />
    <glyph glyph-name="Ydieresis" unicode="&#x178;" horiz-adv-x="573" 
d="M-6 754h108l185 -322l185 322h108l-246 -426v-328h-94v328zM182 859c-17.333 0 -31.8301 5.83105 -43.4971 17.498s-17.5 26.167 -17.5 43.5c-0.666992 12.667 2.66602 23.834 9.99902 33.501s16.5 16.667 27.5 21s22.667 5.83301 35 4.5s22.5 -7 30.5 -17
c10 -8 15.833 -18.167 17.5 -30.5s0.166992 -24 -4.5 -35s-11.834 -20.167 -21.501 -27.5s-20.834 -10.666 -33.501 -9.99902zM332.003 919.998c0 16.667 6 30.834 18 42.501s26.333 17.5 43 17.5s30.834 -5.83301 42.501 -17.5s17.5 -25.834 17.5 -42.501
s-5.83301 -31 -17.5 -43s-25.834 -18 -42.501 -18s-31 5.83301 -43 17.5s-18 26.167 -18 43.5z" />
    <glyph glyph-name="Zcaron" unicode="&#x17d;" horiz-adv-x="552" 
d="M544 86v-86h-535l382 668h-328v86h481l-382 -668h382zM174 1020l101 -96l102 96l59 -46l-161 -145l-159 145z" />
    <glyph glyph-name="zcaron" unicode="&#x17e;" horiz-adv-x="495" 
d="M481 84v-84h-479l317 384h-263v84h438l-317 -384h304zM146 734l101 -96l102 96l59 -46l-161 -145l-159 145z" />
    <glyph glyph-name="florin" unicode="&#x192;" 
d="M484 505l-9.00098 -67.998h-131l-55 -303c-2 -14 -4 -26.333 -6 -37l-6 -30.5c-2 -9.66699 -4.33301 -19.167 -7 -28.5s-6 -19.666 -10 -30.999c-6.66699 -22 -13.834 -39.667 -21.501 -53s-17.834 -27.333 -30.501 -42c-32.667 -40.667 -89.334 -61 -170.001 -61h-24
l15 86h19c28 -2 51 3.33301 69 16s31.667 26.667 41 42c6 8 11.667 21.667 17 41c2.66699 9.33301 4.83398 17.5 6.50098 24.5l4.5 18.5c1.33301 5.33301 2.66602 12.166 3.99902 20.499s3 18.166 5 29.499l53 308h-65l9 68h70l21 124c10.667 66.667 30.667 117.667 60 153
c28.667 36 74.334 54 137.001 54c23.333 0 43.333 -2.33301 60 -7l-16 -84c-10 4 -20.333 6.16699 -31 6.5s-21 -0.5 -31 -2.5s-19.167 -5.16699 -27.5 -9.5s-15.166 -9.16602 -20.499 -14.499c-6 -6.66699 -11.833 -17.334 -17.5 -32.001s-9.5 -26.334 -11.5 -35.001
c-1.33301 -4 -2.66602 -9.33301 -3.99902 -16s-2.66602 -14.667 -3.99902 -24l-22 -113h129z" />
    <glyph glyph-name="Ohorn" unicode="&#x1a0;" horiz-adv-x="828" 
d="M809 377c0 -112 -38.335 -205.33 -115.002 -279.997c-77.333 -75.333 -170.666 -113 -279.999 -113s-202.666 37.667 -279.999 113c-76.667 74.667 -115 168 -115 280c0 107.333 38.667 199.666 116 276.999c78.667 77.333 171.667 116 279 116
c108 0 200.667 -38.667 278 -116l11.5 -12l10.5 -12c12.667 3.33301 22.5 8.66602 29.5 15.999s12 14.666 15 21.999s4.66699 14 5 20s0.5 9.66699 0.5 11v55h81v-53c0 -19.333 -3.16699 -36 -9.5 -50s-14.333 -25.5 -24 -34.5s-20 -16.167 -31 -21.5
s-21.167 -9.33301 -30.5 -12c39.333 -61.333 59 -130 59 -206zM714.998 377.003c0 84.667 -28.6689 156.667 -86.002 216s-129 89 -215 89c-86.667 0 -158.667 -29.667 -216 -89c-56.667 -58.667 -85 -130.667 -85 -216s29.667 -157.666 89 -216.999
c58.667 -58.667 129.334 -88 212.001 -88s153.334 29.333 212.001 88c59.333 59.333 89 131.666 89 216.999z" />
    <glyph glyph-name="ohorn" unicode="&#x1a1;" horiz-adv-x="551" 
d="M92 410c48.667 48 108.002 72.001 178.002 72.001s129 -24 177 -72c8 -8 15.5 -16.333 22.5 -25s13.167 -17.667 18.5 -27c6 4.66699 10.5 10.167 13.5 16.5s5.16699 12.166 6.5 17.499s2.16602 10 2.49902 14s0.5 6.66699 0.5 8v55h81v-53
c0 -17.333 -2.5 -32.333 -7.5 -45s-11.333 -23.5 -19 -32.5s-16.334 -16.5 -26.001 -22.5s-19.167 -10.667 -28.5 -14c6 -22 9 -45 9 -69c0 -70 -24.333 -129 -73 -177c-48 -48 -107 -72 -177 -72s-129.333 24 -178 72c-48 48 -72 107 -72 177s24 129 72 177z
M110.002 233.001c0 -43.333 15.667 -81.666 47 -114.999c30.667 -32 68.334 -48 113.001 -48c44 0 81.667 16 113 48c31.333 33.333 47 71.666 47 114.999c0 44 -15.667 82.333 -47 115c-31.333 32 -69 48 -113 48c-44.667 0 -82.334 -16 -113.001 -48
c-31.333 -32.667 -47 -71 -47 -115z" />
    <glyph glyph-name="Uhorn" unicode="&#x1af;" horiz-adv-x="700" 
d="M153 754l-0.000976562 -444.998c0 -158 60.667 -237 182 -237s182 79 182 237v445h94v-123c12 4 21 9.5 27 16.5s10.333 14.167 13 21.5s4.16699 13.833 4.5 19.5s0.5 9.16699 0.5 10.5v55h81v-53c0 -26.667 -5.66699 -48.167 -17 -64.5s-24.166 -28.833 -38.499 -37.5
s-28.5 -14.334 -42.5 -17.001s-23.333 -4 -28 -4v-301c0 -86 -25 -156.333 -75 -211c-48.667 -54.667 -115.667 -82 -201 -82c-84.667 0 -152 27.333 -202 82c-49.333 55.333 -74 125.666 -74 210.999v477h94z" />
    <glyph glyph-name="uhorn" unicode="&#x1b0;" horiz-adv-x="522" 
d="M148 468l-0.000976562 -259.003c0 -44 7.83301 -78.5 23.5 -103.5s43.834 -37.5 84.501 -37.5s68.834 12.5 84.501 37.5s23.5 59.5 23.5 103.5v259h90v-119c8.66699 4.66699 15.5 10.334 20.5 17.001s8.5 13.334 10.5 20.001s3.16699 12.5 3.5 17.5s0.5 8.16699 0.5 9.5
v55h81v-53c0 -23.333 -4.5 -42.666 -13.5 -57.999s-19.667 -27.5 -32 -36.5s-25.166 -15.667 -38.499 -20s-24 -6.83301 -32 -7.5v-94c0 -66.667 -16.333 -119.167 -49 -157.5s-82.334 -57.5 -149.001 -57.5s-116.334 19.167 -149.001 57.5s-49 90.833 -49 157.5v269h90z
" />
    <glyph glyph-name="circumflex" unicode="&#x2c6;" horiz-adv-x="470" 
d="M234 734l161 -145l-59 -46l-102 96l-101 -96l-58 46z" />
    <glyph glyph-name="caron" unicode="&#x2c7;" horiz-adv-x="472" 
d="M134 734l101 -96l102 96l59 -46l-161 -145l-159 145z" />
    <glyph glyph-name="breve" unicode="&#x2d8;" horiz-adv-x="490" 
d="M143 694c20.667 -50 54.668 -74.999 102.001 -74.999c26 0 46.833 6.16699 62.5 18.5s29.167 31.166 40.5 56.499h71c-6.66699 -40.667 -27 -74.667 -61 -102c-33.333 -26 -71 -39 -113 -39c-42.667 0 -80.334 13 -113.001 39c-32.667 26.667 -53 60.667 -61 102h72z" />
    <glyph glyph-name="dotaccent" unicode="&#x2d9;" horiz-adv-x="360" 
d="M120 634c0 16.667 6 30.834 18 42.501s26.333 17.5 43 17.5s30.834 -5.83301 42.501 -17.5s17.5 -25.834 17.5 -42.501s-5.83301 -31 -17.5 -43s-25.834 -18 -42.501 -18s-31 5.83301 -43 17.5s-18 26.167 -18 43.5z" />
    <glyph glyph-name="ring" unicode="&#x2da;" horiz-adv-x="360" 
d="M180 734c19.333 1.33301 36.333 -3.66895 51 -15.002s25.5 -25.166 32.5 -41.499s9.16699 -33.666 6.5 -51.999s-11.334 -33.833 -26.001 -46.5c-12.667 -14 -28.167 -22.167 -46.5 -24.5s-35.666 -0.166016 -51.999 6.50098s-30 17.167 -41 31.5
s-15.833 31.166 -14.5 50.499c0 12.667 2.33301 24.5 7 35.5s11.167 20.667 19.5 29s18 14.833 29 19.5s22.5 7 34.5 7zM180 597.998c12.667 0 23.5 4.33301 32.5 13s13.5 19.334 13.5 32.001s-4.5 23.5 -13.5 32.5s-19.833 13.5 -32.5 13.5c-12 0 -22.5 -4.5 -31.5 -13.5
s-13.5 -19.833 -13.5 -32.5s4.5 -23.334 13.5 -32.001s19.5 -13 31.5 -13z" />
    <glyph glyph-name="ogonek" unicode="&#x2db;" horiz-adv-x="340" 
d="M211 -16l-0.000976562 -2c-40.667 -26.667 -61 -55 -61 -85c0 -31.333 18.667 -47 56 -47c20.667 0 37.334 4.33301 50.001 13l-7 -58c-18.667 -11.333 -40 -17 -64 -17c-13.333 0 -26 1.83301 -38 5.5s-22.667 9 -32 16s-16.833 15.667 -22.5 26s-8.5 21.833 -8.5 34.5
c0 42.667 27 80.667 81 114h46z" />
    <glyph glyph-name="tilde" unicode="&#x2dc;" horiz-adv-x="510" 
d="M64 613l3 5c11.333 16 21 28.667 29 38s19 18 33 26s29.333 12 46 12c26.667 0 56.334 -8.66699 89.001 -26c32.667 -18 56.667 -27 72 -27c23.333 0 44.666 16 63.999 48l47 -39c-26.667 -54.667 -66 -82 -118 -82c-18.667 0 -46.334 8.66699 -83.001 26
c-35.333 16.667 -61.333 25 -78 25c-11.333 0 -22.166 -4.66699 -32.499 -14s-18.5 -20 -24.5 -32z" />
    <glyph glyph-name="hungarumlaut" unicode="&#x2dd;" horiz-adv-x="470" 
d="M432 681l-164 -149l-44 27l125 166zM246 690l-164 -149l-44 27l125 166z" />
    <glyph glyph-name="hookabovecomb" unicode="&#x309;" horiz-adv-x="639" 
d="M431 640c-3.33301 -11.333 -8.99805 -20.998 -16.998 -28.998s-16 -15.333 -24 -22c-5.33301 -4.66699 -10 -9 -14 -13s-6.66699 -8.66699 -8 -14h-59c3.33301 19.333 9.16602 33.166 17.499 41.499s16.833 16.166 25.5 23.499
c7.33301 5.33301 13.666 11.166 18.999 17.499s8 14.166 8 23.499c0 12 -4 21.333 -12 28s-17.667 10 -29 10c-10.667 0 -19.5 -3.5 -26.5 -10.5s-10.5 -15.5 -10.5 -25.5c0 -3.33301 0.166992 -6.33301 0.5 -9s1.16602 -7 2.49902 -13h-58l-1 22
c0 25.333 9.33301 46.333 28 63c19.333 17.333 41.333 26 66 26c26.667 0 49.334 -9 68.001 -27c9.33301 -9.33301 17 -22.166 23 -38.499s6.33301 -34.166 1 -53.499z" />
    <glyph glyph-name="dotbelowcomb" unicode="&#x323;" horiz-adv-x="360" 
d="M121 -130c0 16.667 6 30.834 18 42.501s26.333 17.5 43 17.5s30.834 -5.83301 42.501 -17.5s17.5 -25.834 17.5 -42.501s-5.83301 -31 -17.5 -43s-25.834 -18 -42.501 -18s-31 5.83301 -43 17.5s-18 26.167 -18 43.5z" />
    <glyph glyph-name="mu" unicode="&#x3bc;" horiz-adv-x="512" 
d="M148 468l-0.000976562 -259c0 -44 7.83301 -78.5 23.5 -103.5s43.834 -37.5 84.501 -37.5s68.834 12.5 84.501 37.5s23.5 59.5 23.5 103.5v259h90v-269c0 -66.667 -16.333 -119.167 -49 -157.5s-82.334 -57.5 -149.001 -57.5c-36.667 0 -72.667 14.667 -108 44v-296h-90
v736h90z" />
    <glyph glyph-name="uni1EA0" unicode="&#x1ea0;" horiz-adv-x="703" 
d="M179 189l-86 -189h-101l360 786l360 -786h-101l-86 189h-346zM352 580l-134 -305h268zM292 -130c0 16.667 6 30.834 18 42.501s26.333 17.5 43 17.5s30.834 -5.83301 42.501 -17.5s17.5 -25.834 17.5 -42.501s-5.83301 -31 -17.5 -43s-25.834 -18 -42.501 -18
s-31 5.83301 -43 17.5s-18 26.167 -18 43.5z" />
    <glyph glyph-name="uni1EA1" unicode="&#x1ea1;" horiz-adv-x="556" 
d="M264 64c47.333 0 84.333 16.333 111 49c27.333 33.333 41 73.666 41 120.999c0 46.667 -13.667 86.334 -41 119.001c-26.667 32.667 -63.667 49 -111 49c-44.667 0 -80.667 -16.667 -108 -50c-26.667 -32.667 -40 -72 -40 -118c0 -47.333 13.333 -87.333 40 -120
c27.333 -33.333 63.333 -50 108 -50zM501 0l-89.999 0.000976562v73h-2c-40 -59.333 -93 -89 -159 -89c-68.667 0 -123.334 24.333 -164.001 73c-40 48.667 -60 108.667 -60 180c0 67.333 20.333 124.666 61 171.999c40.667 48.667 94 73 160 73
c66.667 0 120.667 -30.667 162 -92h2v78h90v-468zM218.001 -129.999c0 16.667 6 30.834 18 42.501s26.333 17.5 43 17.5s30.834 -5.83301 42.501 -17.5s17.5 -25.834 17.5 -42.501s-5.83301 -31 -17.5 -43s-25.834 -18 -42.501 -18s-31 5.83301 -43 17.5
s-18 26.167 -18 43.5z" />
    <glyph glyph-name="uni1EA2" unicode="&#x1ea2;" horiz-adv-x="703" 
d="M179 189l-86 -189h-101l360 786l360 -786h-101l-86 189h-346zM352 580l-134 -305h268zM440 900c-3.33301 -11.333 -8.99805 -20.998 -16.998 -28.998s-16 -15.333 -24 -22c-5.33301 -4.66699 -10 -9 -14 -13s-6.66699 -8.66699 -8 -14h-59
c3.33301 19.333 9.16602 33.166 17.499 41.499s16.833 16.166 25.5 23.499c7.33301 5.33301 13.666 11.166 18.999 17.499s8 14.166 8 23.499c0 12 -4 21.333 -12 28s-17.667 10 -29 10c-10.667 0 -19.5 -3.5 -26.5 -10.5s-10.5 -15.5 -10.5 -25.5
c0 -3.33301 0.166992 -6.33301 0.5 -9s1.16602 -7 2.49902 -13h-58l-1 22c0 25.333 9.33301 46.333 28 63c19.333 17.333 41.333 26 66 26c26.667 0 49.334 -9 68.001 -27c9.33301 -9.33301 17 -22.166 23 -38.499s6.33301 -34.166 1 -53.499z" />
    <glyph glyph-name="uni1EA3" unicode="&#x1ea3;" horiz-adv-x="556" 
d="M264 64c47.333 0 84.333 16.333 111 49c27.333 33.333 41 73.666 41 120.999c0 46.667 -13.667 86.334 -41 119.001c-26.667 32.667 -63.667 49 -111 49c-44.667 0 -80.667 -16.667 -108 -50c-26.667 -32.667 -40 -72 -40 -118c0 -47.333 13.333 -87.333 40 -120
c27.333 -33.333 63.333 -50 108 -50zM501 0l-89.999 0.000976562v73h-2c-40 -59.333 -93 -89 -159 -89c-68.667 0 -123.334 24.333 -164.001 73c-40 48.667 -60 108.667 -60 180c0 67.333 20.333 124.666 61 171.999c40.667 48.667 94 73 160 73
c66.667 0 120.667 -30.667 162 -92h2v78h90v-468zM351.001 640.001c-3.33301 -11.333 -8.99805 -20.998 -16.998 -28.998s-16 -15.333 -24 -22c-5.33301 -4.66699 -10 -9 -14 -13s-6.66699 -8.66699 -8 -14h-59c3.33301 19.333 9.16602 33.166 17.499 41.499
s16.833 16.166 25.5 23.499c7.33301 5.33301 13.666 11.166 18.999 17.499s8 14.166 8 23.499c0 12 -4 21.333 -12 28s-17.667 10 -29 10c-10.667 0 -19.5 -3.5 -26.5 -10.5s-10.5 -15.5 -10.5 -25.5c0 -3.33301 0.166992 -6.33301 0.5 -9s1.16602 -7 2.49902 -13h-58l-1 22
c0 25.333 9.33301 46.333 28 63c19.333 17.333 41.333 26 66 26c26.667 0 49.334 -9 68.001 -27c9.33301 -9.33301 17 -22.166 23 -38.499s6.33301 -34.166 1 -53.499z" />
    <glyph glyph-name="uni1EA4" unicode="&#x1ea4;" horiz-adv-x="703" 
d="M179 189l-86 -189h-101l360 786l360 -786h-101l-86 189h-346zM352 580l-134 -305h268zM351 1020l161 -145l-59 -46l-102 96l-101 -96l-58 46zM664 1109l-164 -149l-44 27l125 166z" />
    <glyph glyph-name="uni1EA5" unicode="&#x1ea5;" horiz-adv-x="556" 
d="M264 64c47.333 0 84.333 16.333 111 49c27.333 33.333 41 73.666 41 120.999c0 46.667 -13.667 86.334 -41 119.001c-26.667 32.667 -63.667 49 -111 49c-44.667 0 -80.667 -16.667 -108 -50c-26.667 -32.667 -40 -72 -40 -118c0 -47.333 13.333 -87.333 40 -120
c27.333 -33.333 63.333 -50 108 -50zM501 0l-89.999 0.000976562v73h-2c-40 -59.333 -93 -89 -159 -89c-68.667 0 -123.334 24.333 -164.001 73c-40 48.667 -60 108.667 -60 180c0 67.333 20.333 124.666 61 171.999c40.667 48.667 94 73 160 73
c66.667 0 120.667 -30.667 162 -92h2v78h90v-468zM277.001 734.001l161 -145l-59 -46l-102 96l-101 -96l-58 46zM564.001 849.001l-164 -149l-44 27l125 166z" />
    <glyph glyph-name="uni1EA6" unicode="&#x1ea6;" horiz-adv-x="703" 
d="M179 189l-86 -189h-101l360 786l360 -786h-101l-86 189h-346zM352 580l-134 -305h268zM351 1020l161 -145l-59 -46l-102 96l-101 -96l-58 46zM419 1193l125 -166l-44 -27l-164 149z" />
    <glyph glyph-name="uni1EA7" unicode="&#x1ea7;" horiz-adv-x="556" 
d="M264 64c47.333 0 84.333 16.333 111 49c27.333 33.333 41 73.666 41 120.999c0 46.667 -13.667 86.334 -41 119.001c-26.667 32.667 -63.667 49 -111 49c-44.667 0 -80.667 -16.667 -108 -50c-26.667 -32.667 -40 -72 -40 -118c0 -47.333 13.333 -87.333 40 -120
c27.333 -33.333 63.333 -50 108 -50zM501 0l-89.999 0.000976562v73h-2c-40 -59.333 -93 -89 -159 -89c-68.667 0 -123.334 24.333 -164.001 73c-40 48.667 -60 108.667 -60 180c0 67.333 20.333 124.666 61 171.999c40.667 48.667 94 73 160 73
c66.667 0 120.667 -30.667 162 -92h2v78h90v-468zM277.001 734.001l161 -145l-59 -46l-102 96l-101 -96l-58 46zM319.001 893.001l125 -166l-44 -27l-164 149z" />
    <glyph glyph-name="uni1EA8" unicode="&#x1ea8;" horiz-adv-x="703" 
d="M179 189l-86 -189h-101l360 786l360 -786h-101l-86 189h-346zM352 580l-134 -305h268zM351 1020l161 -145l-59 -46l-102 96l-101 -96l-58 46zM600 1028c-3.33301 -11.333 -8.99805 -20.998 -16.998 -28.998s-16 -15.333 -24 -22c-5.33301 -4.66699 -10 -9 -14 -13
s-6.66699 -8.66699 -8 -14h-59c3.33301 19.333 9.16602 33.166 17.499 41.499s16.833 16.166 25.5 23.499c7.33301 5.33301 13.666 11.166 18.999 17.499s8 14.166 8 23.499c0 12 -4 21.333 -12 28s-17.667 10 -29 10c-10.667 0 -19.5 -3.5 -26.5 -10.5
s-10.5 -15.5 -10.5 -25.5c0 -3.33301 0.166992 -6.33301 0.5 -9s1.16602 -7 2.49902 -13h-58l-1 22c0 25.333 9.33301 46.333 28 63c19.333 17.333 41.333 26 66 26c26.667 0 49.334 -9 68.001 -27c9.33301 -9.33301 17 -22.166 23 -38.499s6.33301 -34.166 1 -53.499z" />
    <glyph glyph-name="uni1EA9" unicode="&#x1ea9;" horiz-adv-x="556" 
d="M264 64c47.333 0 84.333 16.333 111 49c27.333 33.333 41 73.666 41 120.999c0 46.667 -13.667 86.334 -41 119.001c-26.667 32.667 -63.667 49 -111 49c-44.667 0 -80.667 -16.667 -108 -50c-26.667 -32.667 -40 -72 -40 -118c0 -47.333 13.333 -87.333 40 -120
c27.333 -33.333 63.333 -50 108 -50zM501 0l-89.999 0.000976562v73h-2c-40 -59.333 -93 -89 -159 -89c-68.667 0 -123.334 24.333 -164.001 73c-40 48.667 -60 108.667 -60 180c0 67.333 20.333 124.666 61 171.999c40.667 48.667 94 73 160 73
c66.667 0 120.667 -30.667 162 -92h2v78h90v-468zM277.001 734.001l161 -145l-59 -46l-102 96l-101 -96l-58 46zM488.001 778.001c-3.33301 -11.333 -8.99805 -20.998 -16.998 -28.998s-16 -15.333 -24 -22c-5.33301 -4.66699 -10 -9 -14 -13s-6.66699 -8.66699 -8 -14h-59
c3.33301 19.333 9.16602 33.166 17.499 41.499s16.833 16.166 25.5 23.499c7.33301 5.33301 13.666 11.166 18.999 17.499s8 14.166 8 23.499c0 12 -4 21.333 -12 28s-17.667 10 -29 10c-10.667 0 -19.5 -3.5 -26.5 -10.5s-10.5 -15.5 -10.5 -25.5
c0 -3.33301 0.166992 -6.33301 0.5 -9s1.16602 -7 2.49902 -13h-58l-1 22c0 25.333 9.33301 46.333 28 63c19.333 17.333 41.333 26 66 26c26.667 0 49.334 -9 68.001 -27c9.33301 -9.33301 17 -22.166 23 -38.499s6.33301 -34.166 1 -53.499z" />
    <glyph glyph-name="uni1EAA" unicode="&#x1eaa;" horiz-adv-x="703" 
d="M179 189l-86 -189h-101l360 786l360 -786h-101l-86 189h-346zM352 580l-134 -305h268zM351 1020l161 -145l-59 -46l-102 96l-101 -96l-58 46zM160 1100l3 5c11.333 16 21 28.667 29 38s19 18 33 26s29.333 12 46 12c26.667 0 56.334 -8.66699 89.001 -26
c32.667 -18 56.667 -27 72 -27c23.333 0 44.666 16 63.999 48l47 -39c-26.667 -54.667 -66 -82 -118 -82c-18.667 0 -46.334 8.66699 -83.001 26c-35.333 16.667 -61.333 25 -78 25c-11.333 0 -22.166 -4.66699 -32.499 -14s-18.5 -20 -24.5 -32z" />
    <glyph glyph-name="uni1EAB" unicode="&#x1eab;" horiz-adv-x="556" 
d="M264 64c47.333 0 84.333 16.333 111 49c27.333 33.333 41 73.666 41 120.999c0 46.667 -13.667 86.334 -41 119.001c-26.667 32.667 -63.667 49 -111 49c-44.667 0 -80.667 -16.667 -108 -50c-26.667 -32.667 -40 -72 -40 -118c0 -47.333 13.333 -87.333 40 -120
c27.333 -33.333 63.333 -50 108 -50zM501 0l-89.999 0.000976562v73h-2c-40 -59.333 -93 -89 -159 -89c-68.667 0 -123.334 24.333 -164.001 73c-40 48.667 -60 108.667 -60 180c0 67.333 20.333 124.666 61 171.999c40.667 48.667 94 73 160 73
c66.667 0 120.667 -30.667 162 -92h2v78h90v-468zM277.001 734.001l161 -145l-59 -46l-102 96l-101 -96l-58 46zM86.001 799.001l3 5c11.333 16 21 28.667 29 38s19 18 33 26s29.333 12 46 12c26.667 0 56.334 -8.66699 89.001 -26c32.667 -18 56.667 -27 72 -27
c23.333 0 44.666 16 63.999 48l47 -39c-26.667 -54.667 -66 -82 -118 -82c-18.667 0 -46.334 8.66699 -83.001 26c-35.333 16.667 -61.333 25 -78 25c-11.333 0 -22.166 -4.66699 -32.499 -14s-18.5 -20 -24.5 -32z" />
    <glyph glyph-name="uni1EAC" unicode="&#x1eac;" horiz-adv-x="703" 
d="M292 -130c0 16.667 6 30.834 18 42.501s26.333 17.5 43 17.5s30.834 -5.83301 42.501 -17.5s17.5 -25.834 17.5 -42.501s-5.83301 -31 -17.5 -43s-25.834 -18 -42.501 -18s-31 5.83301 -43 17.5s-18 26.167 -18 43.5zM179 189l-86 -189h-101l360 786l360 -786h-101
l-86 189h-346zM352 580l-134 -305h268zM351 1020l161 -145l-59 -46l-102 96l-101 -96l-58 46z" />
    <glyph glyph-name="uni1EAD" unicode="&#x1ead;" horiz-adv-x="556" 
d="M264 64c47.333 0 84.333 16.333 111 49c27.333 33.333 41 73.666 41 120.999c0 46.667 -13.667 86.334 -41 119.001c-26.667 32.667 -63.667 49 -111 49c-44.667 0 -80.667 -16.667 -108 -50c-26.667 -32.667 -40 -72 -40 -118c0 -47.333 13.333 -87.333 40 -120
c27.333 -33.333 63.333 -50 108 -50zM501 0l-89.999 0.000976562v73h-2c-40 -59.333 -93 -89 -159 -89c-68.667 0 -123.334 24.333 -164.001 73c-40 48.667 -60 108.667 -60 180c0 67.333 20.333 124.666 61 171.999c40.667 48.667 94 73 160 73
c66.667 0 120.667 -30.667 162 -92h2v78h90v-468zM218.001 -129.999c0 16.667 6 30.834 18 42.501s26.333 17.5 43 17.5s30.834 -5.83301 42.501 -17.5s17.5 -25.834 17.5 -42.501s-5.83301 -31 -17.5 -43s-25.834 -18 -42.501 -18s-31 5.83301 -43 17.5
s-18 26.167 -18 43.5zM277.001 734.001l161 -145l-59 -46l-102 96l-101 -96l-58 46z" />
    <glyph glyph-name="uni1EAE" unicode="&#x1eae;" horiz-adv-x="703" 
d="M179 189l-86 -189h-101l360 786l360 -786h-101l-86 189h-346zM352 580l-134 -305h268zM250 965c20.667 -50 54.668 -74.999 102.001 -74.999c26 0 46.833 6.16699 62.5 18.5s29.167 31.166 40.5 56.499h71c-6.66699 -40.667 -27 -74.667 -61 -102
c-33.333 -26 -71 -39 -113 -39c-42.667 0 -80.334 13 -113.001 39c-32.667 26.667 -53 60.667 -61 102h72zM504.001 1149l-164 -149l-44 27l125 166z" />
    <glyph glyph-name="uni1EAF" unicode="&#x1eaf;" horiz-adv-x="556" 
d="M264 64c47.333 0 84.333 16.333 111 49c27.333 33.333 41 73.666 41 120.999c0 46.667 -13.667 86.334 -41 119.001c-26.667 32.667 -63.667 49 -111 49c-44.667 0 -80.667 -16.667 -108 -50c-26.667 -32.667 -40 -72 -40 -118c0 -47.333 13.333 -87.333 40 -120
c27.333 -33.333 63.333 -50 108 -50zM501 0l-89.999 0.000976562v73h-2c-40 -59.333 -93 -89 -159 -89c-68.667 0 -123.334 24.333 -164.001 73c-40 48.667 -60 108.667 -60 180c0 67.333 20.333 124.666 61 171.999c40.667 48.667 94 73 160 73
c66.667 0 120.667 -30.667 162 -92h2v78h90v-468zM160.001 694.001c20.667 -50 54.668 -74.999 102.001 -74.999c26 0 46.833 6.16699 62.5 18.5s29.167 31.166 40.5 56.499h71c-6.66699 -40.667 -27 -74.667 -61 -102c-33.333 -26 -71 -39 -113 -39
c-42.667 0 -80.334 13 -113.001 39c-32.667 26.667 -53 60.667 -61 102h72zM424.002 849.002l-164 -149l-44 27l125 166z" />
    <glyph glyph-name="uni1EB0" unicode="&#x1eb0;" horiz-adv-x="703" 
d="M179 189l-86 -189h-101l360 786l360 -786h-101l-86 189h-346zM352 580l-134 -305h268zM250 965c20.667 -50 54.668 -74.999 102.001 -74.999c26 0 46.833 6.16699 62.5 18.5s29.167 31.166 40.5 56.499h71c-6.66699 -40.667 -27 -74.667 -61 -102
c-33.333 -26 -71 -39 -113 -39c-42.667 0 -80.334 13 -113.001 39c-32.667 26.667 -53 60.667 -61 102h72zM279.001 1193l125 -166l-44 -27l-164 149z" />
    <glyph glyph-name="uni1EB1" unicode="&#x1eb1;" horiz-adv-x="556" 
d="M264 64c47.333 0 84.333 16.333 111 49c27.333 33.333 41 73.666 41 120.999c0 46.667 -13.667 86.334 -41 119.001c-26.667 32.667 -63.667 49 -111 49c-44.667 0 -80.667 -16.667 -108 -50c-26.667 -32.667 -40 -72 -40 -118c0 -47.333 13.333 -87.333 40 -120
c27.333 -33.333 63.333 -50 108 -50zM501 0l-89.999 0.000976562v73h-2c-40 -59.333 -93 -89 -159 -89c-68.667 0 -123.334 24.333 -164.001 73c-40 48.667 -60 108.667 -60 180c0 67.333 20.333 124.666 61 171.999c40.667 48.667 94 73 160 73
c66.667 0 120.667 -30.667 162 -92h2v78h90v-468zM160.001 694.001c20.667 -50 54.668 -74.999 102.001 -74.999c26 0 46.833 6.16699 62.5 18.5s29.167 31.166 40.5 56.499h71c-6.66699 -40.667 -27 -74.667 -61 -102c-33.333 -26 -71 -39 -113 -39
c-42.667 0 -80.334 13 -113.001 39c-32.667 26.667 -53 60.667 -61 102h72zM219.002 893.002l125 -166l-44 -27l-164 149z" />
    <glyph glyph-name="uni1EB2" unicode="&#x1eb2;" horiz-adv-x="703" 
d="M179 189l-86 -189h-101l360 786l360 -786h-101l-86 189h-346zM352 580l-134 -305h268zM250 965c20.667 -50 54.668 -74.999 102.001 -74.999c26 0 46.833 6.16699 62.5 18.5s29.167 31.166 40.5 56.499h71c-6.66699 -40.667 -27 -74.667 -61 -102
c-33.333 -26 -71 -39 -113 -39c-42.667 0 -80.334 13 -113.001 39c-32.667 26.667 -53 60.667 -61 102h72zM440.001 1043c-3.33301 -11.333 -8.99805 -20.998 -16.998 -28.998s-16 -15.333 -24 -22c-5.33301 -4.66699 -10 -9 -14 -13s-6.66699 -8.66699 -8 -14h-59
c3.33301 19.333 9.16602 33.166 17.499 41.499s16.833 16.166 25.5 23.499c7.33301 5.33301 13.666 11.166 18.999 17.499s8 14.166 8 23.499c0 12 -4 21.333 -12 28s-17.667 10 -29 10c-10.667 0 -19.5 -3.5 -26.5 -10.5s-10.5 -15.5 -10.5 -25.5
c0 -3.33301 0.166992 -6.33301 0.5 -9s1.16602 -7 2.49902 -13h-58l-1 22c0 25.333 9.33301 46.333 28 63c19.333 17.333 41.333 26 66 26c26.667 0 49.334 -9 68.001 -27c9.33301 -9.33301 17 -22.166 23 -38.499s6.33301 -34.166 1 -53.499z" />
    <glyph glyph-name="uni1EB3" unicode="&#x1eb3;" horiz-adv-x="556" 
d="M264 64c47.333 0 84.333 16.333 111 49c27.333 33.333 41 73.666 41 120.999c0 46.667 -13.667 86.334 -41 119.001c-26.667 32.667 -63.667 49 -111 49c-44.667 0 -80.667 -16.667 -108 -50c-26.667 -32.667 -40 -72 -40 -118c0 -47.333 13.333 -87.333 40 -120
c27.333 -33.333 63.333 -50 108 -50zM501 0l-89.999 0.000976562v73h-2c-40 -59.333 -93 -89 -159 -89c-68.667 0 -123.334 24.333 -164.001 73c-40 48.667 -60 108.667 -60 180c0 67.333 20.333 124.666 61 171.999c40.667 48.667 94 73 160 73
c66.667 0 120.667 -30.667 162 -92h2v78h90v-468zM160.001 694.001c20.667 -50 54.668 -74.999 102.001 -74.999c26 0 46.833 6.16699 62.5 18.5s29.167 31.166 40.5 56.499h71c-6.66699 -40.667 -27 -74.667 -61 -102c-33.333 -26 -71 -39 -113 -39
c-42.667 0 -80.334 13 -113.001 39c-32.667 26.667 -53 60.667 -61 102h72zM366.002 778.002c-3.33301 -11.333 -8.99805 -20.998 -16.998 -28.998s-16 -15.333 -24 -22c-5.33301 -4.66699 -10 -9 -14 -13s-6.66699 -8.66699 -8 -14h-59
c3.33301 19.333 9.16602 33.166 17.499 41.499s16.833 16.166 25.5 23.499c7.33301 5.33301 13.666 11.166 18.999 17.499s8 14.166 8 23.499c0 12 -4 21.333 -12 28s-17.667 10 -29 10c-10.667 0 -19.5 -3.5 -26.5 -10.5s-10.5 -15.5 -10.5 -25.5
c0 -3.33301 0.166992 -6.33301 0.5 -9s1.16602 -7 2.49902 -13h-58l-1 22c0 25.333 9.33301 46.333 28 63c19.333 17.333 41.333 26 66 26c26.667 0 49.334 -9 68.001 -27c9.33301 -9.33301 17 -22.166 23 -38.499s6.33301 -34.166 1 -53.499z" />
    <glyph glyph-name="uni1EB4" unicode="&#x1eb4;" horiz-adv-x="703" 
d="M179 189l-86 -189h-101l360 786l360 -786h-101l-86 189h-346zM352 580l-134 -305h268zM250 965c20.667 -50 54.668 -74.999 102.001 -74.999c26 0 46.833 6.16699 62.5 18.5s29.167 31.166 40.5 56.499h71c-6.66699 -40.667 -27 -74.667 -61 -102
c-33.333 -26 -71 -39 -113 -39c-42.667 0 -80.334 13 -113.001 39c-32.667 26.667 -53 60.667 -61 102h72zM161.001 1048l3 5c11.333 16 21 28.667 29 38s19 18 33 26s29.333 12 46 12c26.667 0 56.334 -8.66699 89.001 -26c32.667 -18 56.667 -27 72 -27
c23.333 0 44.666 16 63.999 48l47 -39c-26.667 -54.667 -66 -82 -118 -82c-18.667 0 -46.334 8.66699 -83.001 26c-35.333 16.667 -61.333 25 -78 25c-11.333 0 -22.166 -4.66699 -32.499 -14s-18.5 -20 -24.5 -32z" />
    <glyph glyph-name="uni1EB5" unicode="&#x1eb5;" horiz-adv-x="556" 
d="M264 64c47.333 0 84.333 16.333 111 49c27.333 33.333 41 73.666 41 120.999c0 46.667 -13.667 86.334 -41 119.001c-26.667 32.667 -63.667 49 -111 49c-44.667 0 -80.667 -16.667 -108 -50c-26.667 -32.667 -40 -72 -40 -118c0 -47.333 13.333 -87.333 40 -120
c27.333 -33.333 63.333 -50 108 -50zM501 0l-89.999 0.000976562v73h-2c-40 -59.333 -93 -89 -159 -89c-68.667 0 -123.334 24.333 -164.001 73c-40 48.667 -60 108.667 -60 180c0 67.333 20.333 124.666 61 171.999c40.667 48.667 94 73 160 73
c66.667 0 120.667 -30.667 162 -92h2v78h90v-468zM160.001 694.001c20.667 -50 54.668 -74.999 102.001 -74.999c26 0 46.833 6.16699 62.5 18.5s29.167 31.166 40.5 56.499h71c-6.66699 -40.667 -27 -74.667 -61 -102c-33.333 -26 -71 -39 -113 -39
c-42.667 0 -80.334 13 -113.001 39c-32.667 26.667 -53 60.667 -61 102h72zM72.002 799.002l3 5c11.333 16 21 28.667 29 38s19 18 33 26s29.333 12 46 12c26.667 0 56.334 -8.66699 89.001 -26c32.667 -18 56.667 -27 72 -27c23.333 0 44.666 16 63.999 48l47 -39
c-26.667 -54.667 -66 -82 -118 -82c-18.667 0 -46.334 8.66699 -83.001 26c-35.333 16.667 -61.333 25 -78 25c-11.333 0 -22.166 -4.66699 -32.499 -14s-18.5 -20 -24.5 -32z" />
    <glyph glyph-name="uni1EB6" unicode="&#x1eb6;" horiz-adv-x="703" 
d="M292 -130c0 16.667 6 30.834 18 42.501s26.333 17.5 43 17.5s30.834 -5.83301 42.501 -17.5s17.5 -25.834 17.5 -42.501s-5.83301 -31 -17.5 -43s-25.834 -18 -42.501 -18s-31 5.83301 -43 17.5s-18 26.167 -18 43.5zM179 189l-86 -189h-101l360 786l360 -786h-101
l-86 189h-346zM352 580l-134 -305h268zM250 965c20.667 -50 54.668 -74.999 102.001 -74.999c26 0 46.833 6.16699 62.5 18.5s29.167 31.166 40.5 56.499h71c-6.66699 -40.667 -27 -74.667 -61 -102c-33.333 -26 -71 -39 -113 -39c-42.667 0 -80.334 13 -113.001 39
c-32.667 26.667 -53 60.667 -61 102h72z" />
    <glyph glyph-name="uni1EB7" unicode="&#x1eb7;" horiz-adv-x="556" 
d="M218 -130c0 16.667 6 30.834 18 42.501s26.333 17.5 43 17.5s30.834 -5.83301 42.501 -17.5s17.5 -25.834 17.5 -42.501s-5.83301 -31 -17.5 -43s-25.834 -18 -42.501 -18s-31 5.83301 -43 17.5s-18 26.167 -18 43.5zM264 64c47.333 0 84.333 16.333 111 49
c27.333 33.333 41 73.666 41 120.999c0 46.667 -13.667 86.334 -41 119.001c-26.667 32.667 -63.667 49 -111 49c-44.667 0 -80.667 -16.667 -108 -50c-26.667 -32.667 -40 -72 -40 -118c0 -47.333 13.333 -87.333 40 -120c27.333 -33.333 63.333 -50 108 -50zM501 0
l-89.999 0.000976562v73h-2c-40 -59.333 -93 -89 -159 -89c-68.667 0 -123.334 24.333 -164.001 73c-40 48.667 -60 108.667 -60 180c0 67.333 20.333 124.666 61 171.999c40.667 48.667 94 73 160 73c66.667 0 120.667 -30.667 162 -92h2v78h90v-468zM160.001 694.001
c20.667 -50 54.668 -74.999 102.001 -74.999c26 0 46.833 6.16699 62.5 18.5s29.167 31.166 40.5 56.499h71c-6.66699 -40.667 -27 -74.667 -61 -102c-33.333 -26 -71 -39 -113 -39c-42.667 0 -80.334 13 -113.001 39c-32.667 26.667 -53 60.667 -61 102h72z" />
    <glyph glyph-name="uni1EB8" unicode="&#x1eb8;" horiz-adv-x="521" 
d="M72 754h405v-86h-311v-211h302v-86h-302v-285h311v-86h-405v754zM200 -130c0 16.667 6 30.834 18 42.501s26.333 17.5 43 17.5s30.834 -5.83301 42.501 -17.5s17.5 -25.834 17.5 -42.501s-5.83301 -31 -17.5 -43s-25.834 -18 -42.501 -18s-31 5.83301 -43 17.5
s-18 26.167 -18 43.5z" />
    <glyph glyph-name="uni1EB9" unicode="&#x1eb9;" horiz-adv-x="488" 
d="M116 219c1.33301 -42 14.667 -78.332 40 -108.999c26 -30.667 59.667 -46 101 -46c32.667 0 59.5 7.5 80.5 22.5s40.833 37.833 59.5 68.5l76 -43c-22 -40 -52.167 -71.333 -90.5 -94s-80.5 -34 -126.5 -34c-70 0 -126 23.333 -168 70c-41.333 47.333 -62 106 -62 176
c0 74 19.667 134.667 59 182c38.667 46.667 95 70 169 70c72 0 126.333 -23.333 163 -70c37.333 -46.667 56 -106.334 56 -179.001v-14h-357zM383.001 287.001c-5.33301 36 -19.165 64.501 -41.498 85.501s-51.5 31.5 -87.5 31.5c-17.333 0 -33.5 -2.83301 -48.5 -8.5
s-28.333 -13.834 -40 -24.501s-21.334 -23.167 -29.001 -37.5s-12.834 -29.833 -15.501 -46.5h262zM183.002 -129.998c0 16.667 6 30.834 18 42.501s26.333 17.5 43 17.5s30.834 -5.83301 42.501 -17.5s17.5 -25.834 17.5 -42.501s-5.83301 -31 -17.5 -43
s-25.834 -18 -42.501 -18s-31 5.83301 -43 17.5s-18 26.167 -18 43.5z" />
    <glyph glyph-name="uni1EBA" unicode="&#x1eba;" horiz-adv-x="521" 
d="M72 754h405v-86h-311v-211h302v-86h-302v-285h311v-86h-405v754zM349 900c-3.33301 -11.333 -8.99805 -20.998 -16.998 -28.998s-16 -15.333 -24 -22c-5.33301 -4.66699 -10 -9 -14 -13s-6.66699 -8.66699 -8 -14h-59c3.33301 19.333 9.16602 33.166 17.499 41.499
s16.833 16.166 25.5 23.499c7.33301 5.33301 13.666 11.166 18.999 17.499s8 14.166 8 23.499c0 12 -4 21.333 -12 28s-17.667 10 -29 10c-10.667 0 -19.5 -3.5 -26.5 -10.5s-10.5 -15.5 -10.5 -25.5c0 -3.33301 0.166992 -6.33301 0.5 -9s1.16602 -7 2.49902 -13h-58l-1 22
c0 25.333 9.33301 46.333 28 63c19.333 17.333 41.333 26 66 26c26.667 0 49.334 -9 68.001 -27c9.33301 -9.33301 17 -22.166 23 -38.499s6.33301 -34.166 1 -53.499z" />
    <glyph glyph-name="uni1EBB" unicode="&#x1ebb;" horiz-adv-x="488" 
d="M116 219c1.33301 -42 14.667 -78.332 40 -108.999c26 -30.667 59.667 -46 101 -46c32.667 0 59.5 7.5 80.5 22.5s40.833 37.833 59.5 68.5l76 -43c-22 -40 -52.167 -71.333 -90.5 -94s-80.5 -34 -126.5 -34c-70 0 -126 23.333 -168 70c-41.333 47.333 -62 106 -62 176
c0 74 19.667 134.667 59 182c38.667 46.667 95 70 169 70c72 0 126.333 -23.333 163 -70c37.333 -46.667 56 -106.334 56 -179.001v-14h-357zM383.001 287.001c-5.33301 36 -19.165 64.501 -41.498 85.501s-51.5 31.5 -87.5 31.5c-17.333 0 -33.5 -2.83301 -48.5 -8.5
s-28.333 -13.834 -40 -24.501s-21.334 -23.167 -29.001 -37.5s-12.834 -29.833 -15.501 -46.5h262zM332.002 640.002c-3.33301 -11.333 -8.99805 -20.998 -16.998 -28.998s-16 -15.333 -24 -22c-5.33301 -4.66699 -10 -9 -14 -13s-6.66699 -8.66699 -8 -14h-59
c3.33301 19.333 9.16602 33.166 17.499 41.499s16.833 16.166 25.5 23.499c7.33301 5.33301 13.666 11.166 18.999 17.499s8 14.166 8 23.499c0 12 -4 21.333 -12 28s-17.667 10 -29 10c-10.667 0 -19.5 -3.5 -26.5 -10.5s-10.5 -15.5 -10.5 -25.5
c0 -3.33301 0.166992 -6.33301 0.5 -9s1.16602 -7 2.49902 -13h-58l-1 22c0 25.333 9.33301 46.333 28 63c19.333 17.333 41.333 26 66 26c26.667 0 49.334 -9 68.001 -27c9.33301 -9.33301 17 -22.166 23 -38.499s6.33301 -34.166 1 -53.499z" />
    <glyph glyph-name="uni1EBC" unicode="&#x1ebc;" horiz-adv-x="521" 
d="M72 754h405v-86h-311v-211h302v-86h-302v-285h311v-86h-405v754zM69 873l3 5c11.333 16 21 28.667 29 38s19 18 33 26s29.333 12 46 12c26.667 0 56.334 -8.66699 89.001 -26c32.667 -18 56.667 -27 72 -27c23.333 0 44.666 16 63.999 48l47 -39
c-26.667 -54.667 -66 -82 -118 -82c-18.667 0 -46.334 8.66699 -83.001 26c-35.333 16.667 -61.333 25 -78 25c-11.333 0 -22.166 -4.66699 -32.499 -14s-18.5 -20 -24.5 -32z" />
    <glyph glyph-name="uni1EBD" unicode="&#x1ebd;" horiz-adv-x="488" 
d="M116 219c1.33301 -42 14.667 -78.332 40 -108.999c26 -30.667 59.667 -46 101 -46c32.667 0 59.5 7.5 80.5 22.5s40.833 37.833 59.5 68.5l76 -43c-22 -40 -52.167 -71.333 -90.5 -94s-80.5 -34 -126.5 -34c-70 0 -126 23.333 -168 70c-41.333 47.333 -62 106 -62 176
c0 74 19.667 134.667 59 182c38.667 46.667 95 70 169 70c72 0 126.333 -23.333 163 -70c37.333 -46.667 56 -106.334 56 -179.001v-14h-357zM383.001 287.001c-5.33301 36 -19.165 64.501 -41.498 85.501s-51.5 31.5 -87.5 31.5c-17.333 0 -33.5 -2.83301 -48.5 -8.5
s-28.333 -13.834 -40 -24.501s-21.334 -23.167 -29.001 -37.5s-12.834 -29.833 -15.501 -46.5h262zM53.002 613.002l3 5c11.333 16 21 28.667 29 38s19 18 33 26s29.333 12 46 12c26.667 0 56.334 -8.66699 89.001 -26c32.667 -18 56.667 -27 72 -27
c23.333 0 44.666 16 63.999 48l47 -39c-26.667 -54.667 -66 -82 -118 -82c-18.667 0 -46.334 8.66699 -83.001 26c-35.333 16.667 -61.333 25 -78 25c-11.333 0 -22.166 -4.66699 -32.499 -14s-18.5 -20 -24.5 -32z" />
    <glyph glyph-name="uni1EBE" unicode="&#x1ebe;" horiz-adv-x="521" 
d="M72 754h405v-86h-311v-211h302v-86h-302v-285h311v-86h-405v754zM260 1020l161 -145l-59 -46l-102 96l-101 -96l-58 46zM564 1109l-164 -149l-44 27l125 166z" />
    <glyph glyph-name="uni1EBF" unicode="&#x1ebf;" horiz-adv-x="488" 
d="M116 219c1.33301 -42 14.667 -78.332 40 -108.999c26 -30.667 59.667 -46 101 -46c32.667 0 59.5 7.5 80.5 22.5s40.833 37.833 59.5 68.5l76 -43c-22 -40 -52.167 -71.333 -90.5 -94s-80.5 -34 -126.5 -34c-70 0 -126 23.333 -168 70c-41.333 47.333 -62 106 -62 176
c0 74 19.667 134.667 59 182c38.667 46.667 95 70 169 70c72 0 126.333 -23.333 163 -70c37.333 -46.667 56 -106.334 56 -179.001v-14h-357zM383.001 287.001c-5.33301 36 -19.165 64.501 -41.498 85.501s-51.5 31.5 -87.5 31.5c-17.333 0 -33.5 -2.83301 -48.5 -8.5
s-28.333 -13.834 -40 -24.501s-21.334 -23.167 -29.001 -37.5s-12.834 -29.833 -15.501 -46.5h262zM243.002 734.002l161 -145l-59 -46l-102 96l-101 -96l-58 46zM532.002 849.002l-164 -149l-44 27l125 166z" />
    <glyph glyph-name="uni1EC0" unicode="&#x1ec0;" horiz-adv-x="521" 
d="M72 754h405v-86h-311v-211h302v-86h-302v-285h311v-86h-405v754zM260 1020l161 -145l-59 -46l-102 96l-101 -96l-58 46zM319 1193l125 -166l-44 -27l-164 149z" />
    <glyph glyph-name="uni1EC1" unicode="&#x1ec1;" horiz-adv-x="488" 
d="M116 219c1.33301 -42 14.667 -78.332 40 -108.999c26 -30.667 59.667 -46 101 -46c32.667 0 59.5 7.5 80.5 22.5s40.833 37.833 59.5 68.5l76 -43c-22 -40 -52.167 -71.333 -90.5 -94s-80.5 -34 -126.5 -34c-70 0 -126 23.333 -168 70c-41.333 47.333 -62 106 -62 176
c0 74 19.667 134.667 59 182c38.667 46.667 95 70 169 70c72 0 126.333 -23.333 163 -70c37.333 -46.667 56 -106.334 56 -179.001v-14h-357zM383.001 287.001c-5.33301 36 -19.165 64.501 -41.498 85.501s-51.5 31.5 -87.5 31.5c-17.333 0 -33.5 -2.83301 -48.5 -8.5
s-28.333 -13.834 -40 -24.501s-21.334 -23.167 -29.001 -37.5s-12.834 -29.833 -15.501 -46.5h262zM243.002 734.002l161 -145l-59 -46l-102 96l-101 -96l-58 46zM319.002 893.002l125 -166l-44 -27l-164 149z" />
    <glyph glyph-name="uni1EC2" unicode="&#x1ec2;" horiz-adv-x="521" 
d="M72 754h405v-86h-311v-211h302v-86h-302v-285h311v-86h-405v754zM260 1020l161 -145l-59 -46l-102 96l-101 -96l-58 46zM509 1028c-3.33301 -11.333 -8.99805 -20.998 -16.998 -28.998s-16 -15.333 -24 -22c-5.33301 -4.66699 -10 -9 -14 -13s-6.66699 -8.66699 -8 -14
h-59c3.33301 19.333 9.16602 33.166 17.499 41.499s16.833 16.166 25.5 23.499c7.33301 5.33301 13.666 11.166 18.999 17.499s8 14.166 8 23.499c0 12 -4 21.333 -12 28s-17.667 10 -29 10c-10.667 0 -19.5 -3.5 -26.5 -10.5s-10.5 -15.5 -10.5 -25.5
c0 -3.33301 0.166992 -6.33301 0.5 -9s1.16602 -7 2.49902 -13h-58l-1 22c0 25.333 9.33301 46.333 28 63c19.333 17.333 41.333 26 66 26c26.667 0 49.334 -9 68.001 -27c9.33301 -9.33301 17 -22.166 23 -38.499s6.33301 -34.166 1 -53.499z" />
    <glyph glyph-name="uni1EC3" unicode="&#x1ec3;" horiz-adv-x="488" 
d="M116 219c1.33301 -42 14.667 -78.332 40 -108.999c26 -30.667 59.667 -46 101 -46c32.667 0 59.5 7.5 80.5 22.5s40.833 37.833 59.5 68.5l76 -43c-22 -40 -52.167 -71.333 -90.5 -94s-80.5 -34 -126.5 -34c-70 0 -126 23.333 -168 70c-41.333 47.333 -62 106 -62 176
c0 74 19.667 134.667 59 182c38.667 46.667 95 70 169 70c72 0 126.333 -23.333 163 -70c37.333 -46.667 56 -106.334 56 -179.001v-14h-357zM383.001 287.001c-5.33301 36 -19.165 64.501 -41.498 85.501s-51.5 31.5 -87.5 31.5c-17.333 0 -33.5 -2.83301 -48.5 -8.5
s-28.333 -13.834 -40 -24.501s-21.334 -23.167 -29.001 -37.5s-12.834 -29.833 -15.501 -46.5h262zM243.002 734.002l161 -145l-59 -46l-102 96l-101 -96l-58 46zM488.002 778.002c-3.33301 -11.333 -8.99805 -20.998 -16.998 -28.998s-16 -15.333 -24 -22
c-5.33301 -4.66699 -10 -9 -14 -13s-6.66699 -8.66699 -8 -14h-59c3.33301 19.333 9.16602 33.166 17.499 41.499s16.833 16.166 25.5 23.499c7.33301 5.33301 13.666 11.166 18.999 17.499s8 14.166 8 23.499c0 12 -4 21.333 -12 28s-17.667 10 -29 10
c-10.667 0 -19.5 -3.5 -26.5 -10.5s-10.5 -15.5 -10.5 -25.5c0 -3.33301 0.166992 -6.33301 0.5 -9s1.16602 -7 2.49902 -13h-58l-1 22c0 25.333 9.33301 46.333 28 63c19.333 17.333 41.333 26 66 26c26.667 0 49.334 -9 68.001 -27
c9.33301 -9.33301 17 -22.166 23 -38.499s6.33301 -34.166 1 -53.499z" />
    <glyph glyph-name="uni1EC4" unicode="&#x1ec4;" horiz-adv-x="521" 
d="M72 754h405v-86h-311v-211h302v-86h-302v-285h311v-86h-405v754zM260 1020l161 -145l-59 -46l-102 96l-101 -96l-58 46zM69 1100l3 5c11.333 16 21 28.667 29 38s19 18 33 26s29.333 12 46 12c26.667 0 56.334 -8.66699 89.001 -26c32.667 -18 56.667 -27 72 -27
c23.333 0 44.666 16 63.999 48l47 -39c-26.667 -54.667 -66 -82 -118 -82c-18.667 0 -46.334 8.66699 -83.001 26c-35.333 16.667 -61.333 25 -78 25c-11.333 0 -22.166 -4.66699 -32.499 -14s-18.5 -20 -24.5 -32z" />
    <glyph glyph-name="uni1EC5" unicode="&#x1ec5;" horiz-adv-x="488" 
d="M116 219c1.33301 -42 14.667 -78.332 40 -108.999c26 -30.667 59.667 -46 101 -46c32.667 0 59.5 7.5 80.5 22.5s40.833 37.833 59.5 68.5l76 -43c-22 -40 -52.167 -71.333 -90.5 -94s-80.5 -34 -126.5 -34c-70 0 -126 23.333 -168 70c-41.333 47.333 -62 106 -62 176
c0 74 19.667 134.667 59 182c38.667 46.667 95 70 169 70c72 0 126.333 -23.333 163 -70c37.333 -46.667 56 -106.334 56 -179.001v-14h-357zM383.001 287.001c-5.33301 36 -19.165 64.501 -41.498 85.501s-51.5 31.5 -87.5 31.5c-17.333 0 -33.5 -2.83301 -48.5 -8.5
s-28.333 -13.834 -40 -24.501s-21.334 -23.167 -29.001 -37.5s-12.834 -29.833 -15.501 -46.5h262zM243.002 734.002l161 -145l-59 -46l-102 96l-101 -96l-58 46zM52.002 799.002l3 5c11.333 16 21 28.667 29 38s19 18 33 26s29.333 12 46 12
c26.667 0 56.334 -8.66699 89.001 -26c32.667 -18 56.667 -27 72 -27c23.333 0 44.666 16 63.999 48l47 -39c-26.667 -54.667 -66 -82 -118 -82c-18.667 0 -46.334 8.66699 -83.001 26c-35.333 16.667 -61.333 25 -78 25c-11.333 0 -22.166 -4.66699 -32.499 -14
s-18.5 -20 -24.5 -32z" />
    <glyph glyph-name="uni1EC6" unicode="&#x1ec6;" horiz-adv-x="521" 
d="M200 -130c0 16.667 6 30.834 18 42.501s26.333 17.5 43 17.5s30.834 -5.83301 42.501 -17.5s17.5 -25.834 17.5 -42.501s-5.83301 -31 -17.5 -43s-25.834 -18 -42.501 -18s-31 5.83301 -43 17.5s-18 26.167 -18 43.5zM72 754h405v-86h-311v-211h302v-86h-302v-285h311
v-86h-405v754zM260 1020l161 -145l-59 -46l-102 96l-101 -96l-58 46z" />
    <glyph glyph-name="uni1EC7" unicode="&#x1ec7;" horiz-adv-x="488" 
d="M183 -130c0 16.667 6 30.834 18 42.501s26.333 17.5 43 17.5s30.834 -5.83301 42.501 -17.5s17.5 -25.834 17.5 -42.501s-5.83301 -31 -17.5 -43s-25.834 -18 -42.501 -18s-31 5.83301 -43 17.5s-18 26.167 -18 43.5zM116 219c1.33301 -42 14.667 -78.332 40 -108.999
c26 -30.667 59.667 -46 101 -46c32.667 0 59.5 7.5 80.5 22.5s40.833 37.833 59.5 68.5l76 -43c-22 -40 -52.167 -71.333 -90.5 -94s-80.5 -34 -126.5 -34c-70 0 -126 23.333 -168 70c-41.333 47.333 -62 106 -62 176c0 74 19.667 134.667 59 182
c38.667 46.667 95 70 169 70c72 0 126.333 -23.333 163 -70c37.333 -46.667 56 -106.334 56 -179.001v-14h-357zM383.001 287.001c-5.33301 36 -19.165 64.501 -41.498 85.501s-51.5 31.5 -87.5 31.5c-17.333 0 -33.5 -2.83301 -48.5 -8.5s-28.333 -13.834 -40 -24.501
s-21.334 -23.167 -29.001 -37.5s-12.834 -29.833 -15.501 -46.5h262zM243.002 734.002l161 -145l-59 -46l-102 96l-101 -96l-58 46z" />
    <glyph glyph-name="uni1EC8" unicode="&#x1ec8;" horiz-adv-x="232" 
d="M163 0h-94v754h94v-754zM204 900c-3.33301 -11.333 -8.99805 -20.998 -16.998 -28.998s-16 -15.333 -24 -22c-5.33301 -4.66699 -10 -9 -14 -13s-6.66699 -8.66699 -8 -14h-59c3.33301 19.333 9.16602 33.166 17.499 41.499s16.833 16.166 25.5 23.499
c7.33301 5.33301 13.666 11.166 18.999 17.499s8 14.166 8 23.499c0 12 -4 21.333 -12 28s-17.667 10 -29 10c-10.667 0 -19.5 -3.5 -26.5 -10.5s-10.5 -15.5 -10.5 -25.5c0 -3.33301 0.166992 -6.33301 0.5 -9s1.16602 -7 2.49902 -13h-58l-1 22
c0 25.333 9.33301 46.333 28 63c19.333 17.333 41.333 26 66 26c26.667 0 49.334 -9 68.001 -27c9.33301 -9.33301 17 -22.166 23 -38.499s6.33301 -34.166 1 -53.499z" />
    <glyph glyph-name="uni1EC9" unicode="&#x1ec9;" horiz-adv-x="254" 
d="M172 0h-90v468h90v-468zM215 640c-3.33301 -11.333 -8.99805 -20.998 -16.998 -28.998s-16 -15.333 -24 -22c-5.33301 -4.66699 -10 -9 -14 -13s-6.66699 -8.66699 -8 -14h-59c3.33301 19.333 9.16602 33.166 17.499 41.499s16.833 16.166 25.5 23.499
c7.33301 5.33301 13.666 11.166 18.999 17.499s8 14.166 8 23.499c0 12 -4 21.333 -12 28s-17.667 10 -29 10c-10.667 0 -19.5 -3.5 -26.5 -10.5s-10.5 -15.5 -10.5 -25.5c0 -3.33301 0.166992 -6.33301 0.5 -9s1.16602 -7 2.49902 -13h-58l-1 22
c0 25.333 9.33301 46.333 28 63c19.333 17.333 41.333 26 66 26c26.667 0 49.334 -9 68.001 -27c9.33301 -9.33301 17 -22.166 23 -38.499s6.33301 -34.166 1 -53.499z" />
    <glyph glyph-name="uni1ECA" unicode="&#x1eca;" horiz-adv-x="232" 
d="M163 0h-94v754h94v-754zM56 -130c0 16.667 6 30.834 18 42.501s26.333 17.5 43 17.5s30.834 -5.83301 42.501 -17.5s17.5 -25.834 17.5 -42.501s-5.83301 -31 -17.5 -43s-25.834 -18 -42.501 -18s-31 5.83301 -43 17.5s-18 26.167 -18 43.5z" />
    <glyph glyph-name="uni1ECB" unicode="&#x1ecb;" horiz-adv-x="254" 
d="M172 0h-90v468h90v-468zM189 682c0 -16.667 -6 -31 -18 -43s-26.667 -18 -44 -18s-32 6 -44 18s-18 26.333 -18 43c0 17.333 6 32.166 18 44.499s26.667 18.5 44 18.5s32 -6.16699 44 -18.5s18 -27.166 18 -44.499zM67 -130c0 16.667 6 30.834 18 42.501
s26.333 17.5 43 17.5s30.834 -5.83301 42.501 -17.5s17.5 -25.834 17.5 -42.501s-5.83301 -31 -17.5 -43s-25.834 -18 -42.501 -18s-31 5.83301 -43 17.5s-18 26.167 -18 43.5z" />
    <glyph glyph-name="uni1ECC" unicode="&#x1ecc;" horiz-adv-x="828" 
d="M809 377c0 -112 -38.335 -205.333 -115.002 -280c-77.333 -75.333 -170.666 -113 -279.999 -113s-202.666 37.667 -279.999 113c-76.667 74.667 -115 168 -115 280c0 107.333 38.667 199.666 116 276.999c78.667 77.333 171.667 116 279 116
c108 0 200.667 -38.667 278 -116c78 -77.333 117 -169.666 117 -276.999zM714.998 377c0 84.667 -28.6689 156.667 -86.002 216s-129 89 -215 89c-86.667 0 -158.667 -29.667 -216 -89c-56.667 -58.667 -85 -130.667 -85 -216s29.667 -157.666 89 -216.999
c58.667 -58.667 129.334 -88 212.001 -88s153.334 29.333 212.001 88c59.333 59.333 89 131.666 89 216.999zM352.996 -130c0 16.667 6 30.834 18 42.501s26.333 17.5 43 17.5s30.834 -5.83301 42.501 -17.5s17.5 -25.834 17.5 -42.501s-5.83301 -31 -17.5 -43
s-25.834 -18 -42.501 -18s-31 5.83301 -43 17.5s-18 26.167 -18 43.5z" />
    <glyph glyph-name="uni1ECD" unicode="&#x1ecd;" horiz-adv-x="540" 
d="M92 410c48.667 48 108 72 178 72s129 -24 177 -72c48.667 -48 73 -107 73 -177s-24.333 -129 -73 -177c-48 -48 -107 -72 -177 -72s-129.333 24 -178 72c-48 48 -72 107 -72 177s24 129 72 177zM110 233c0 -43.333 15.667 -81.666 47 -114.999
c30.667 -32 68.334 -48 113.001 -48c44 0 81.667 16 113 48c31.333 33.333 47 71.666 47 114.999c0 44 -15.667 82.333 -47 115c-31.333 32 -69 48 -113 48c-44.667 0 -82.334 -16 -113.001 -48c-31.333 -32.667 -47 -71 -47 -115zM209 -130c0 16.667 6 30.834 18 42.501
s26.333 17.5 43 17.5s30.834 -5.83301 42.501 -17.5s17.5 -25.834 17.5 -42.501s-5.83301 -31 -17.5 -43s-25.834 -18 -42.501 -18s-31 5.83301 -43 17.5s-18 26.167 -18 43.5z" />
    <glyph glyph-name="uni1ECE" unicode="&#x1ece;" horiz-adv-x="828" 
d="M809 377c0 -112 -38.335 -205.333 -115.002 -280c-77.333 -75.333 -170.666 -113 -279.999 -113s-202.666 37.667 -279.999 113c-76.667 74.667 -115 168 -115 280c0 107.333 38.667 199.666 116 276.999c78.667 77.333 171.667 116 279 116
c108 0 200.667 -38.667 278 -116c78 -77.333 117 -169.666 117 -276.999zM714.998 377c0 84.667 -28.6689 156.667 -86.002 216s-129 89 -215 89c-86.667 0 -158.667 -29.667 -216 -89c-56.667 -58.667 -85 -130.667 -85 -216s29.667 -157.666 89 -216.999
c58.667 -58.667 129.334 -88 212.001 -88s153.334 29.333 212.001 88c59.333 59.333 89 131.666 89 216.999zM501.996 900c-3.33301 -11.333 -8.99805 -20.998 -16.998 -28.998s-16 -15.333 -24 -22c-5.33301 -4.66699 -10 -9 -14 -13s-6.66699 -8.66699 -8 -14h-59
c3.33301 19.333 9.16602 33.166 17.499 41.499s16.833 16.166 25.5 23.499c7.33301 5.33301 13.666 11.166 18.999 17.499s8 14.166 8 23.499c0 12 -4 21.333 -12 28s-17.667 10 -29 10c-10.667 0 -19.5 -3.5 -26.5 -10.5s-10.5 -15.5 -10.5 -25.5
c0 -3.33301 0.166992 -6.33301 0.5 -9s1.16602 -7 2.49902 -13h-58l-1 22c0 25.333 9.33301 46.333 28 63c19.333 17.333 41.333 26 66 26c26.667 0 49.334 -9 68.001 -27c9.33301 -9.33301 17 -22.166 23 -38.499s6.33301 -34.166 1 -53.499z" />
    <glyph glyph-name="uni1ECF" unicode="&#x1ecf;" horiz-adv-x="540" 
d="M92 410c48.667 48 108 72 178 72s129 -24 177 -72c48.667 -48 73 -107 73 -177s-24.333 -129 -73 -177c-48 -48 -107 -72 -177 -72s-129.333 24 -178 72c-48 48 -72 107 -72 177s24 129 72 177zM110 233c0 -43.333 15.667 -81.666 47 -114.999
c30.667 -32 68.334 -48 113.001 -48c44 0 81.667 16 113 48c31.333 33.333 47 71.666 47 114.999c0 44 -15.667 82.333 -47 115c-31.333 32 -69 48 -113 48c-44.667 0 -82.334 -16 -113.001 -48c-31.333 -32.667 -47 -71 -47 -115zM358 640
c-3.33301 -11.333 -8.99805 -20.998 -16.998 -28.998s-16 -15.333 -24 -22c-5.33301 -4.66699 -10 -9 -14 -13s-6.66699 -8.66699 -8 -14h-59c3.33301 19.333 9.16602 33.166 17.499 41.499s16.833 16.166 25.5 23.499c7.33301 5.33301 13.666 11.166 18.999 17.499
s8 14.166 8 23.499c0 12 -4 21.333 -12 28s-17.667 10 -29 10c-10.667 0 -19.5 -3.5 -26.5 -10.5s-10.5 -15.5 -10.5 -25.5c0 -3.33301 0.166992 -6.33301 0.5 -9s1.16602 -7 2.49902 -13h-58l-1 22c0 25.333 9.33301 46.333 28 63c19.333 17.333 41.333 26 66 26
c26.667 0 49.334 -9 68.001 -27c9.33301 -9.33301 17 -22.166 23 -38.499s6.33301 -34.166 1 -53.499z" />
    <glyph glyph-name="uni1ED0" unicode="&#x1ed0;" horiz-adv-x="828" 
d="M809 377c0 -112 -38.335 -205.333 -115.002 -280c-77.333 -75.333 -170.666 -113 -279.999 -113s-202.666 37.667 -279.999 113c-76.667 74.667 -115 168 -115 280c0 107.333 38.667 199.666 116 276.999c78.667 77.333 171.667 116 279 116
c108 0 200.667 -38.667 278 -116c78 -77.333 117 -169.666 117 -276.999zM714.998 377c0 84.667 -28.6689 156.667 -86.002 216s-129 89 -215 89c-86.667 0 -158.667 -29.667 -216 -89c-56.667 -58.667 -85 -130.667 -85 -216s29.667 -157.666 89 -216.999
c58.667 -58.667 129.334 -88 212.001 -88s153.334 29.333 212.001 88c59.333 59.333 89 131.666 89 216.999zM412.996 1020l161 -145l-59 -46l-102 96l-101 -96l-58 46zM763.996 1109l-164 -149l-44 27l125 166z" />
    <glyph glyph-name="uni1ED1" unicode="&#x1ed1;" horiz-adv-x="540" 
d="M92 410c48.667 48 108 72 178 72s129 -24 177 -72c48.667 -48 73 -107 73 -177s-24.333 -129 -73 -177c-48 -48 -107 -72 -177 -72s-129.333 24 -178 72c-48 48 -72 107 -72 177s24 129 72 177zM110 233c0 -43.333 15.667 -81.666 47 -114.999
c30.667 -32 68.334 -48 113.001 -48c44 0 81.667 16 113 48c31.333 33.333 47 71.666 47 114.999c0 44 -15.667 82.333 -47 115c-31.333 32 -69 48 -113 48c-44.667 0 -82.334 -16 -113.001 -48c-31.333 -32.667 -47 -71 -47 -115zM269 734l161 -145l-59 -46l-102 96
l-101 -96l-58 46zM564 849l-164 -149l-44 27l125 166z" />
    <glyph glyph-name="uni1ED2" unicode="&#x1ed2;" horiz-adv-x="828" 
d="M809 377c0 -112 -38.335 -205.333 -115.002 -280c-77.333 -75.333 -170.666 -113 -279.999 -113s-202.666 37.667 -279.999 113c-76.667 74.667 -115 168 -115 280c0 107.333 38.667 199.666 116 276.999c78.667 77.333 171.667 116 279 116
c108 0 200.667 -38.667 278 -116c78 -77.333 117 -169.666 117 -276.999zM714.998 377c0 84.667 -28.6689 156.667 -86.002 216s-129 89 -215 89c-86.667 0 -158.667 -29.667 -216 -89c-56.667 -58.667 -85 -130.667 -85 -216s29.667 -157.666 89 -216.999
c58.667 -58.667 129.334 -88 212.001 -88s153.334 29.333 212.001 88c59.333 59.333 89 131.666 89 216.999zM412.996 1020l161 -145l-59 -46l-102 96l-101 -96l-58 46zM478.996 1193l125 -166l-44 -27l-164 149z" />
    <glyph glyph-name="uni1ED3" unicode="&#x1ed3;" horiz-adv-x="540" 
d="M92 410c48.667 48 108 72 178 72s129 -24 177 -72c48.667 -48 73 -107 73 -177s-24.333 -129 -73 -177c-48 -48 -107 -72 -177 -72s-129.333 24 -178 72c-48 48 -72 107 -72 177s24 129 72 177zM110 233c0 -43.333 15.667 -81.666 47 -114.999
c30.667 -32 68.334 -48 113.001 -48c44 0 81.667 16 113 48c31.333 33.333 47 71.666 47 114.999c0 44 -15.667 82.333 -47 115c-31.333 32 -69 48 -113 48c-44.667 0 -82.334 -16 -113.001 -48c-31.333 -32.667 -47 -71 -47 -115zM269 734l161 -145l-59 -46l-102 96
l-101 -96l-58 46zM319 893l125 -166l-44 -27l-164 149z" />
    <glyph glyph-name="uni1ED4" unicode="&#x1ed4;" horiz-adv-x="828" 
d="M809 377c0 -112 -38.335 -205.333 -115.002 -280c-77.333 -75.333 -170.666 -113 -279.999 -113s-202.666 37.667 -279.999 113c-76.667 74.667 -115 168 -115 280c0 107.333 38.667 199.666 116 276.999c78.667 77.333 171.667 116 279 116
c108 0 200.667 -38.667 278 -116c78 -77.333 117 -169.666 117 -276.999zM714.998 377c0 84.667 -28.6689 156.667 -86.002 216s-129 89 -215 89c-86.667 0 -158.667 -29.667 -216 -89c-56.667 -58.667 -85 -130.667 -85 -216s29.667 -157.666 89 -216.999
c58.667 -58.667 129.334 -88 212.001 -88s153.334 29.333 212.001 88c59.333 59.333 89 131.666 89 216.999zM412.996 1020l161 -145l-59 -46l-102 96l-101 -96l-58 46zM661.996 1028c-3.33301 -11.333 -8.99805 -20.998 -16.998 -28.998s-16 -15.333 -24 -22
c-5.33301 -4.66699 -10 -9 -14 -13s-6.66699 -8.66699 -8 -14h-59c3.33301 19.333 9.16602 33.166 17.499 41.499s16.833 16.166 25.5 23.499c7.33301 5.33301 13.666 11.166 18.999 17.499s8 14.166 8 23.499c0 12 -4 21.333 -12 28s-17.667 10 -29 10
c-10.667 0 -19.5 -3.5 -26.5 -10.5s-10.5 -15.5 -10.5 -25.5c0 -3.33301 0.166992 -6.33301 0.5 -9s1.16602 -7 2.49902 -13h-58l-1 22c0 25.333 9.33301 46.333 28 63c19.333 17.333 41.333 26 66 26c26.667 0 49.334 -9 68.001 -27
c9.33301 -9.33301 17 -22.166 23 -38.499s6.33301 -34.166 1 -53.499z" />
    <glyph glyph-name="uni1ED5" unicode="&#x1ed5;" horiz-adv-x="540" 
d="M92 410c48.667 48 108 72 178 72s129 -24 177 -72c48.667 -48 73 -107 73 -177s-24.333 -129 -73 -177c-48 -48 -107 -72 -177 -72s-129.333 24 -178 72c-48 48 -72 107 -72 177s24 129 72 177zM110 233c0 -43.333 15.667 -81.666 47 -114.999
c30.667 -32 68.334 -48 113.001 -48c44 0 81.667 16 113 48c31.333 33.333 47 71.666 47 114.999c0 44 -15.667 82.333 -47 115c-31.333 32 -69 48 -113 48c-44.667 0 -82.334 -16 -113.001 -48c-31.333 -32.667 -47 -71 -47 -115zM269 734l161 -145l-59 -46l-102 96
l-101 -96l-58 46zM488 778c-3.33301 -11.333 -8.99805 -20.998 -16.998 -28.998s-16 -15.333 -24 -22c-5.33301 -4.66699 -10 -9 -14 -13s-6.66699 -8.66699 -8 -14h-59c3.33301 19.333 9.16602 33.166 17.499 41.499s16.833 16.166 25.5 23.499
c7.33301 5.33301 13.666 11.166 18.999 17.499s8 14.166 8 23.499c0 12 -4 21.333 -12 28s-17.667 10 -29 10c-10.667 0 -19.5 -3.5 -26.5 -10.5s-10.5 -15.5 -10.5 -25.5c0 -3.33301 0.166992 -6.33301 0.5 -9s1.16602 -7 2.49902 -13h-58l-1 22
c0 25.333 9.33301 46.333 28 63c19.333 17.333 41.333 26 66 26c26.667 0 49.334 -9 68.001 -27c9.33301 -9.33301 17 -22.166 23 -38.499s6.33301 -34.166 1 -53.499z" />
    <glyph glyph-name="uni1ED6" unicode="&#x1ed6;" horiz-adv-x="828" 
d="M809 377c0 -112 -38.335 -205.333 -115.002 -280c-77.333 -75.333 -170.666 -113 -279.999 -113s-202.666 37.667 -279.999 113c-76.667 74.667 -115 168 -115 280c0 107.333 38.667 199.666 116 276.999c78.667 77.333 171.667 116 279 116
c108 0 200.667 -38.667 278 -116c78 -77.333 117 -169.666 117 -276.999zM714.998 377c0 84.667 -28.6689 156.667 -86.002 216s-129 89 -215 89c-86.667 0 -158.667 -29.667 -216 -89c-56.667 -58.667 -85 -130.667 -85 -216s29.667 -157.666 89 -216.999
c58.667 -58.667 129.334 -88 212.001 -88s153.334 29.333 212.001 88c59.333 59.333 89 131.666 89 216.999zM412.996 1020l161 -145l-59 -46l-102 96l-101 -96l-58 46zM221.996 1100l3 5c11.333 16 21 28.667 29 38s19 18 33 26s29.333 12 46 12
c26.667 0 56.334 -8.66699 89.001 -26c32.667 -18 56.667 -27 72 -27c23.333 0 44.666 16 63.999 48l47 -39c-26.667 -54.667 -66 -82 -118 -82c-18.667 0 -46.334 8.66699 -83.001 26c-35.333 16.667 -61.333 25 -78 25c-11.333 0 -22.166 -4.66699 -32.499 -14
s-18.5 -20 -24.5 -32z" />
    <glyph glyph-name="uni1ED7" unicode="&#x1ed7;" horiz-adv-x="540" 
d="M92 410c48.667 48 108 72 178 72s129 -24 177 -72c48.667 -48 73 -107 73 -177s-24.333 -129 -73 -177c-48 -48 -107 -72 -177 -72s-129.333 24 -178 72c-48 48 -72 107 -72 177s24 129 72 177zM110 233c0 -43.333 15.667 -81.666 47 -114.999
c30.667 -32 68.334 -48 113.001 -48c44 0 81.667 16 113 48c31.333 33.333 47 71.666 47 114.999c0 44 -15.667 82.333 -47 115c-31.333 32 -69 48 -113 48c-44.667 0 -82.334 -16 -113.001 -48c-31.333 -32.667 -47 -71 -47 -115zM269 734l161 -145l-59 -46l-102 96
l-101 -96l-58 46zM78 799l3 5c11.333 16 21 28.667 29 38s19 18 33 26s29.333 12 46 12c26.667 0 56.334 -8.66699 89.001 -26c32.667 -18 56.667 -27 72 -27c23.333 0 44.666 16 63.999 48l47 -39c-26.667 -54.667 -66 -82 -118 -82c-18.667 0 -46.334 8.66699 -83.001 26
c-35.333 16.667 -61.333 25 -78 25c-11.333 0 -22.166 -4.66699 -32.499 -14s-18.5 -20 -24.5 -32z" />
    <glyph glyph-name="uni1ED8" unicode="&#x1ed8;" horiz-adv-x="828" 
d="M353 -130c0 16.667 6 30.834 18 42.501s26.333 17.5 43 17.5s30.834 -5.83301 42.501 -17.5s17.5 -25.834 17.5 -42.501s-5.83301 -31 -17.5 -43s-25.834 -18 -42.501 -18s-31 5.83301 -43 17.5s-18 26.167 -18 43.5zM809 377c0 -112 -38.335 -205.333 -115.002 -280
c-77.333 -75.333 -170.666 -113 -279.999 -113s-202.666 37.667 -279.999 113c-76.667 74.667 -115 168 -115 280c0 107.333 38.667 199.666 116 276.999c78.667 77.333 171.667 116 279 116c108 0 200.667 -38.667 278 -116c78 -77.333 117 -169.666 117 -276.999z
M714.998 377c0 84.667 -28.6689 156.667 -86.002 216s-129 89 -215 89c-86.667 0 -158.667 -29.667 -216 -89c-56.667 -58.667 -85 -130.667 -85 -216s29.667 -157.666 89 -216.999c58.667 -58.667 129.334 -88 212.001 -88s153.334 29.333 212.001 88
c59.333 59.333 89 131.666 89 216.999zM412.996 1020l161 -145l-59 -46l-102 96l-101 -96l-58 46z" />
    <glyph glyph-name="uni1ED9" unicode="&#x1ed9;" horiz-adv-x="540" 
d="M209 -130c0 16.667 6 30.834 18 42.501s26.333 17.5 43 17.5s30.834 -5.83301 42.501 -17.5s17.5 -25.834 17.5 -42.501s-5.83301 -31 -17.5 -43s-25.834 -18 -42.501 -18s-31 5.83301 -43 17.5s-18 26.167 -18 43.5zM92 410c48.667 48 108 72 178 72s129 -24 177 -72
c48.667 -48 73 -107 73 -177s-24.333 -129 -73 -177c-48 -48 -107 -72 -177 -72s-129.333 24 -178 72c-48 48 -72 107 -72 177s24 129 72 177zM110 233c0 -43.333 15.667 -81.666 47 -114.999c30.667 -32 68.334 -48 113.001 -48c44 0 81.667 16 113 48
c31.333 33.333 47 71.666 47 114.999c0 44 -15.667 82.333 -47 115c-31.333 32 -69 48 -113 48c-44.667 0 -82.334 -16 -113.001 -48c-31.333 -32.667 -47 -71 -47 -115zM269 734l161 -145l-59 -46l-102 96l-101 -96l-58 46z" />
    <glyph glyph-name="uni1EDA" unicode="&#x1eda;" horiz-adv-x="828" 
d="M518 976l-164 -149l-44 27l125 166zM809 377c0 -112 -38.335 -205.33 -115.002 -279.997c-77.333 -75.333 -170.666 -113 -279.999 -113s-202.666 37.667 -279.999 113c-76.667 74.667 -115 168 -115 280c0 107.333 38.667 199.666 116 276.999
c78.667 77.333 171.667 116 279 116c108 0 200.667 -38.667 278 -116l11.5 -12l10.5 -12c12.667 3.33301 22.5 8.66602 29.5 15.999s12 14.666 15 21.999s4.66699 14 5 20s0.5 9.66699 0.5 11v55h81v-53c0 -19.333 -3.16699 -36 -9.5 -50s-14.333 -25.5 -24 -34.5
s-20 -16.167 -31 -21.5s-21.167 -9.33301 -30.5 -12c39.333 -61.333 59 -130 59 -206zM714.998 377.003c0 84.667 -28.6689 156.667 -86.002 216s-129 89 -215 89c-86.667 0 -158.667 -29.667 -216 -89c-56.667 -58.667 -85 -130.667 -85 -216s29.667 -157.666 89 -216.999
c58.667 -58.667 129.334 -88 212.001 -88s153.334 29.333 212.001 88c59.333 59.333 89 131.666 89 216.999z" />
    <glyph glyph-name="uni1EDB" unicode="&#x1edb;" horiz-adv-x="551" 
d="M92 410c48.667 48 108.002 72.001 178.002 72.001s129 -24 177 -72c8 -8 15.5 -16.333 22.5 -25s13.167 -17.667 18.5 -27c6 4.66699 10.5 10.167 13.5 16.5s5.16699 12.166 6.5 17.499s2.16602 10 2.49902 14s0.5 6.66699 0.5 8v55h81v-53
c0 -17.333 -2.5 -32.333 -7.5 -45s-11.333 -23.5 -19 -32.5s-16.334 -16.5 -26.001 -22.5s-19.167 -10.667 -28.5 -14c6 -22 9 -45 9 -69c0 -70 -24.333 -129 -73 -177c-48 -48 -107 -72 -177 -72s-129.333 24 -178 72c-48 48 -72 107 -72 177s24 129 72 177z
M110.002 233.001c0 -43.333 15.667 -81.666 47 -114.999c30.667 -32 68.334 -48 113.001 -48c44 0 81.667 16 113 48c31.333 33.333 47 71.666 47 114.999c0 44 -15.667 82.333 -47 115c-31.333 32 -69 48 -113 48c-44.667 0 -82.334 -16 -113.001 -48
c-31.333 -32.667 -47 -71 -47 -115zM374.002 690.001l-164 -149l-44 27l125 166z" />
    <glyph glyph-name="uni1EDC" unicode="&#x1edc;" horiz-adv-x="828" 
d="M393 1020l125 -166l-44 -27l-164 149zM809 377c0 -112 -38.335 -205.33 -115.002 -279.997c-77.333 -75.333 -170.666 -113 -279.999 -113s-202.666 37.667 -279.999 113c-76.667 74.667 -115 168 -115 280c0 107.333 38.667 199.666 116 276.999
c78.667 77.333 171.667 116 279 116c108 0 200.667 -38.667 278 -116l11.5 -12l10.5 -12c12.667 3.33301 22.5 8.66602 29.5 15.999s12 14.666 15 21.999s4.66699 14 5 20s0.5 9.66699 0.5 11v55h81v-53c0 -19.333 -3.16699 -36 -9.5 -50s-14.333 -25.5 -24 -34.5
s-20 -16.167 -31 -21.5s-21.167 -9.33301 -30.5 -12c39.333 -61.333 59 -130 59 -206zM714.998 377.003c0 84.667 -28.6689 156.667 -86.002 216s-129 89 -215 89c-86.667 0 -158.667 -29.667 -216 -89c-56.667 -58.667 -85 -130.667 -85 -216s29.667 -157.666 89 -216.999
c58.667 -58.667 129.334 -88 212.001 -88s153.334 29.333 212.001 88c59.333 59.333 89 131.666 89 216.999z" />
    <glyph glyph-name="uni1EDD" unicode="&#x1edd;" horiz-adv-x="551" 
d="M92 410c48.667 48 108.002 72.001 178.002 72.001s129 -24 177 -72c8 -8 15.5 -16.333 22.5 -25s13.167 -17.667 18.5 -27c6 4.66699 10.5 10.167 13.5 16.5s5.16699 12.166 6.5 17.499s2.16602 10 2.49902 14s0.5 6.66699 0.5 8v55h81v-53
c0 -17.333 -2.5 -32.333 -7.5 -45s-11.333 -23.5 -19 -32.5s-16.334 -16.5 -26.001 -22.5s-19.167 -10.667 -28.5 -14c6 -22 9 -45 9 -69c0 -70 -24.333 -129 -73 -177c-48 -48 -107 -72 -177 -72s-129.333 24 -178 72c-48 48 -72 107 -72 177s24 129 72 177z
M110.002 233.001c0 -43.333 15.667 -81.666 47 -114.999c30.667 -32 68.334 -48 113.001 -48c44 0 81.667 16 113 48c31.333 33.333 47 71.666 47 114.999c0 44 -15.667 82.333 -47 115c-31.333 32 -69 48 -113 48c-44.667 0 -82.334 -16 -113.001 -48
c-31.333 -32.667 -47 -71 -47 -115zM254.002 734.001l125 -166l-44 -27l-164 149z" />
    <glyph glyph-name="uni1EDE" unicode="&#x1ede;" horiz-adv-x="828" 
d="M809 377c0 -112 -38.335 -205.33 -115.002 -279.997c-77.333 -75.333 -170.666 -113 -279.999 -113s-202.666 37.667 -279.999 113c-76.667 74.667 -115 168 -115 280c0 107.333 38.667 199.666 116 276.999c78.667 77.333 171.667 116 279 116
c108 0 200.667 -38.667 278 -116l11.5 -12l10.5 -12c12.667 3.33301 22.5 8.66602 29.5 15.999s12 14.666 15 21.999s4.66699 14 5 20s0.5 9.66699 0.5 11v55h81v-53c0 -19.333 -3.16699 -36 -9.5 -50s-14.333 -25.5 -24 -34.5s-20 -16.167 -31 -21.5
s-21.167 -9.33301 -30.5 -12c39.333 -61.333 59 -130 59 -206zM714.998 377.003c0 84.667 -28.6689 156.667 -86.002 216s-129 89 -215 89c-86.667 0 -158.667 -29.667 -216 -89c-56.667 -58.667 -85 -130.667 -85 -216s29.667 -157.666 89 -216.999
c58.667 -58.667 129.334 -88 212.001 -88s153.334 29.333 212.001 88c59.333 59.333 89 131.666 89 216.999zM501.996 900.003c-3.33301 -11.333 -8.99805 -20.998 -16.998 -28.998s-16 -15.333 -24 -22c-5.33301 -4.66699 -10 -9 -14 -13s-6.66699 -8.66699 -8 -14h-59
c3.33301 19.333 9.16602 33.166 17.499 41.499s16.833 16.166 25.5 23.499c7.33301 5.33301 13.666 11.166 18.999 17.499s8 14.166 8 23.499c0 12 -4 21.333 -12 28s-17.667 10 -29 10c-10.667 0 -19.5 -3.5 -26.5 -10.5s-10.5 -15.5 -10.5 -25.5
c0 -3.33301 0.166992 -6.33301 0.5 -9s1.16602 -7 2.49902 -13h-58l-1 22c0 25.333 9.33301 46.333 28 63c19.333 17.333 41.333 26 66 26c26.667 0 49.334 -9 68.001 -27c9.33301 -9.33301 17 -22.166 23 -38.499s6.33301 -34.166 1 -53.499z" />
    <glyph glyph-name="uni1EDF" unicode="&#x1edf;" horiz-adv-x="551" 
d="M92 410c48.667 48 108.002 72.001 178.002 72.001s129 -24 177 -72c8 -8 15.5 -16.333 22.5 -25s13.167 -17.667 18.5 -27c6 4.66699 10.5 10.167 13.5 16.5s5.16699 12.166 6.5 17.499s2.16602 10 2.49902 14s0.5 6.66699 0.5 8v55h81v-53
c0 -17.333 -2.5 -32.333 -7.5 -45s-11.333 -23.5 -19 -32.5s-16.334 -16.5 -26.001 -22.5s-19.167 -10.667 -28.5 -14c6 -22 9 -45 9 -69c0 -70 -24.333 -129 -73 -177c-48 -48 -107 -72 -177 -72s-129.333 24 -178 72c-48 48 -72 107 -72 177s24 129 72 177z
M110.002 233.001c0 -43.333 15.667 -81.666 47 -114.999c30.667 -32 68.334 -48 113.001 -48c44 0 81.667 16 113 48c31.333 33.333 47 71.666 47 114.999c0 44 -15.667 82.333 -47 115c-31.333 32 -69 48 -113 48c-44.667 0 -82.334 -16 -113.001 -48
c-31.333 -32.667 -47 -71 -47 -115zM358.002 640.001c-3.33301 -11.333 -8.99805 -20.998 -16.998 -28.998s-16 -15.333 -24 -22c-5.33301 -4.66699 -10 -9 -14 -13s-6.66699 -8.66699 -8 -14h-59c3.33301 19.333 9.16602 33.166 17.499 41.499s16.833 16.166 25.5 23.499
c7.33301 5.33301 13.666 11.166 18.999 17.499s8 14.166 8 23.499c0 12 -4 21.333 -12 28s-17.667 10 -29 10c-10.667 0 -19.5 -3.5 -26.5 -10.5s-10.5 -15.5 -10.5 -25.5c0 -3.33301 0.166992 -6.33301 0.5 -9s1.16602 -7 2.49902 -13h-58l-1 22
c0 25.333 9.33301 46.333 28 63c19.333 17.333 41.333 26 66 26c26.667 0 49.334 -9 68.001 -27c9.33301 -9.33301 17 -22.166 23 -38.499s6.33301 -34.166 1 -53.499z" />
    <glyph glyph-name="uni1EE0" unicode="&#x1ee0;" horiz-adv-x="828" 
d="M809 377c0 -112 -38.335 -205.33 -115.002 -279.997c-77.333 -75.333 -170.666 -113 -279.999 -113s-202.666 37.667 -279.999 113c-76.667 74.667 -115 168 -115 280c0 107.333 38.667 199.666 116 276.999c78.667 77.333 171.667 116 279 116
c108 0 200.667 -38.667 278 -116l11.5 -12l10.5 -12c12.667 3.33301 22.5 8.66602 29.5 15.999s12 14.666 15 21.999s4.66699 14 5 20s0.5 9.66699 0.5 11v55h81v-53c0 -19.333 -3.16699 -36 -9.5 -50s-14.333 -25.5 -24 -34.5s-20 -16.167 -31 -21.5
s-21.167 -9.33301 -30.5 -12c39.333 -61.333 59 -130 59 -206zM714.998 377.003c0 84.667 -28.6689 156.667 -86.002 216s-129 89 -215 89c-86.667 0 -158.667 -29.667 -216 -89c-56.667 -58.667 -85 -130.667 -85 -216s29.667 -157.666 89 -216.999
c58.667 -58.667 129.334 -88 212.001 -88s153.334 29.333 212.001 88c59.333 59.333 89 131.666 89 216.999zM221.996 873.003l3 5c11.333 16 21 28.667 29 38s19 18 33 26s29.333 12 46 12c26.667 0 56.334 -8.66699 89.001 -26c32.667 -18 56.667 -27 72 -27
c23.333 0 44.666 16 63.999 48l47 -39c-26.667 -54.667 -66 -82 -118 -82c-18.667 0 -46.334 8.66699 -83.001 26c-35.333 16.667 -61.333 25 -78 25c-11.333 0 -22.166 -4.66699 -32.499 -14s-18.5 -20 -24.5 -32z" />
    <glyph glyph-name="uni1EE1" unicode="&#x1ee1;" horiz-adv-x="551" 
d="M92 410c48.667 48 108.002 72.001 178.002 72.001s129 -24 177 -72c8 -8 15.5 -16.333 22.5 -25s13.167 -17.667 18.5 -27c6 4.66699 10.5 10.167 13.5 16.5s5.16699 12.166 6.5 17.499s2.16602 10 2.49902 14s0.5 6.66699 0.5 8v55h81v-53
c0 -17.333 -2.5 -32.333 -7.5 -45s-11.333 -23.5 -19 -32.5s-16.334 -16.5 -26.001 -22.5s-19.167 -10.667 -28.5 -14c6 -22 9 -45 9 -69c0 -70 -24.333 -129 -73 -177c-48 -48 -107 -72 -177 -72s-129.333 24 -178 72c-48 48 -72 107 -72 177s24 129 72 177z
M110.002 233.001c0 -43.333 15.667 -81.666 47 -114.999c30.667 -32 68.334 -48 113.001 -48c44 0 81.667 16 113 48c31.333 33.333 47 71.666 47 114.999c0 44 -15.667 82.333 -47 115c-31.333 32 -69 48 -113 48c-44.667 0 -82.334 -16 -113.001 -48
c-31.333 -32.667 -47 -71 -47 -115zM84.002 613.001l3 5c11.333 16 21 28.667 29 38s19 18 33 26s29.333 12 46 12c26.667 0 56.334 -8.66699 89.001 -26c32.667 -18 56.667 -27 72 -27c23.333 0 44.666 16 63.999 48l47 -39c-26.667 -54.667 -66 -82 -118 -82
c-18.667 0 -46.334 8.66699 -83.001 26c-35.333 16.667 -61.333 25 -78 25c-11.333 0 -22.166 -4.66699 -32.499 -14s-18.5 -20 -24.5 -32z" />
    <glyph glyph-name="uni1EE2" unicode="&#x1ee2;" horiz-adv-x="828" 
d="M809 377c0 -112 -38.335 -205.33 -115.002 -279.997c-77.333 -75.333 -170.666 -113 -279.999 -113s-202.666 37.667 -279.999 113c-76.667 74.667 -115 168 -115 280c0 107.333 38.667 199.666 116 276.999c78.667 77.333 171.667 116 279 116
c108 0 200.667 -38.667 278 -116l11.5 -12l10.5 -12c12.667 3.33301 22.5 8.66602 29.5 15.999s12 14.666 15 21.999s4.66699 14 5 20s0.5 9.66699 0.5 11v55h81v-53c0 -19.333 -3.16699 -36 -9.5 -50s-14.333 -25.5 -24 -34.5s-20 -16.167 -31 -21.5
s-21.167 -9.33301 -30.5 -12c39.333 -61.333 59 -130 59 -206zM714.998 377.003c0 84.667 -28.6689 156.667 -86.002 216s-129 89 -215 89c-86.667 0 -158.667 -29.667 -216 -89c-56.667 -58.667 -85 -130.667 -85 -216s29.667 -157.666 89 -216.999
c58.667 -58.667 129.334 -88 212.001 -88s153.334 29.333 212.001 88c59.333 59.333 89 131.666 89 216.999zM352.996 -129.997c0 16.667 6 30.834 18 42.501s26.333 17.5 43 17.5s30.834 -5.83301 42.501 -17.5s17.5 -25.834 17.5 -42.501s-5.83301 -31 -17.5 -43
s-25.834 -18 -42.501 -18s-31 5.83301 -43 17.5s-18 26.167 -18 43.5z" />
    <glyph glyph-name="uni1EE3" unicode="&#x1ee3;" horiz-adv-x="551" 
d="M92 410c48.667 48 108.002 72.001 178.002 72.001s129 -24 177 -72c8 -8 15.5 -16.333 22.5 -25s13.167 -17.667 18.5 -27c6 4.66699 10.5 10.167 13.5 16.5s5.16699 12.166 6.5 17.499s2.16602 10 2.49902 14s0.5 6.66699 0.5 8v55h81v-53
c0 -17.333 -2.5 -32.333 -7.5 -45s-11.333 -23.5 -19 -32.5s-16.334 -16.5 -26.001 -22.5s-19.167 -10.667 -28.5 -14c6 -22 9 -45 9 -69c0 -70 -24.333 -129 -73 -177c-48 -48 -107 -72 -177 -72s-129.333 24 -178 72c-48 48 -72 107 -72 177s24 129 72 177z
M110.002 233.001c0 -43.333 15.667 -81.666 47 -114.999c30.667 -32 68.334 -48 113.001 -48c44 0 81.667 16 113 48c31.333 33.333 47 71.666 47 114.999c0 44 -15.667 82.333 -47 115c-31.333 32 -69 48 -113 48c-44.667 0 -82.334 -16 -113.001 -48
c-31.333 -32.667 -47 -71 -47 -115zM215.002 -129.999c0 16.667 6 30.834 18 42.501s26.333 17.5 43 17.5s30.834 -5.83301 42.501 -17.5s17.5 -25.834 17.5 -42.501s-5.83301 -31 -17.5 -43s-25.834 -18 -42.501 -18s-31 5.83301 -43 17.5s-18 26.167 -18 43.5z" />
    <glyph glyph-name="uni1EE4" unicode="&#x1ee4;" horiz-adv-x="669" 
d="M153 754v-444.999c0 -158 60.667 -237 182 -237s182 79 182 237v445h94v-477c0 -86 -25 -156.333 -75 -211c-48.667 -54.667 -115.667 -82 -201 -82c-84.667 0 -152 27.333 -202 82c-49.333 55.333 -74 125.666 -74 210.999v477h94zM274 -129.999
c0 16.667 6 30.834 18 42.501s26.333 17.5 43 17.5s30.834 -5.83301 42.501 -17.5s17.5 -25.834 17.5 -42.501s-5.83301 -31 -17.5 -43s-25.834 -18 -42.501 -18s-31 5.83301 -43 17.5s-18 26.167 -18 43.5z" />
    <glyph glyph-name="uni1EE5" unicode="&#x1ee5;" horiz-adv-x="512" 
d="M148 468v-259c0 -44 7.83301 -78.5 23.5 -103.5s43.834 -37.5 84.501 -37.5s68.834 12.5 84.501 37.5s23.5 59.5 23.5 103.5v259h90v-269c0 -66.667 -16.333 -119.167 -49 -157.5s-82.334 -57.5 -149.001 -57.5s-116.334 19.167 -149.001 57.5s-49 90.833 -49 157.5v269
h90zM195 -130c0 16.667 6 30.834 18 42.501s26.333 17.5 43 17.5s30.834 -5.83301 42.501 -17.5s17.5 -25.834 17.5 -42.501s-5.83301 -31 -17.5 -43s-25.834 -18 -42.501 -18s-31 5.83301 -43 17.5s-18 26.167 -18 43.5z" />
    <glyph glyph-name="uni1EE6" unicode="&#x1ee6;" horiz-adv-x="669" 
d="M153 754v-444.999c0 -158 60.667 -237 182 -237s182 79 182 237v445h94v-477c0 -86 -25 -156.333 -75 -211c-48.667 -54.667 -115.667 -82 -201 -82c-84.667 0 -152 27.333 -202 82c-49.333 55.333 -74 125.666 -74 210.999v477h94zM423 900.001
c-3.33301 -11.333 -8.99805 -20.998 -16.998 -28.998s-16 -15.333 -24 -22c-5.33301 -4.66699 -10 -9 -14 -13s-6.66699 -8.66699 -8 -14h-59c3.33301 19.333 9.16602 33.166 17.499 41.499s16.833 16.166 25.5 23.499c7.33301 5.33301 13.666 11.166 18.999 17.499
s8 14.166 8 23.499c0 12 -4 21.333 -12 28s-17.667 10 -29 10c-10.667 0 -19.5 -3.5 -26.5 -10.5s-10.5 -15.5 -10.5 -25.5c0 -3.33301 0.166992 -6.33301 0.5 -9s1.16602 -7 2.49902 -13h-58l-1 22c0 25.333 9.33301 46.333 28 63c19.333 17.333 41.333 26 66 26
c26.667 0 49.334 -9 68.001 -27c9.33301 -9.33301 17 -22.166 23 -38.499s6.33301 -34.166 1 -53.499z" />
    <glyph glyph-name="uni1EE7" unicode="&#x1ee7;" horiz-adv-x="512" 
d="M148 468v-259c0 -44 7.83301 -78.5 23.5 -103.5s43.834 -37.5 84.501 -37.5s68.834 12.5 84.501 37.5s23.5 59.5 23.5 103.5v259h90v-269c0 -66.667 -16.333 -119.167 -49 -157.5s-82.334 -57.5 -149.001 -57.5s-116.334 19.167 -149.001 57.5s-49 90.833 -49 157.5v269
h90zM344 640c-3.33301 -11.333 -8.99805 -20.998 -16.998 -28.998s-16 -15.333 -24 -22c-5.33301 -4.66699 -10 -9 -14 -13s-6.66699 -8.66699 -8 -14h-59c3.33301 19.333 9.16602 33.166 17.499 41.499s16.833 16.166 25.5 23.499
c7.33301 5.33301 13.666 11.166 18.999 17.499s8 14.166 8 23.499c0 12 -4 21.333 -12 28s-17.667 10 -29 10c-10.667 0 -19.5 -3.5 -26.5 -10.5s-10.5 -15.5 -10.5 -25.5c0 -3.33301 0.166992 -6.33301 0.5 -9s1.16602 -7 2.49902 -13h-58l-1 22
c0 25.333 9.33301 46.333 28 63c19.333 17.333 41.333 26 66 26c26.667 0 49.334 -9 68.001 -27c9.33301 -9.33301 17 -22.166 23 -38.499s6.33301 -34.166 1 -53.499z" />
    <glyph glyph-name="uni1EE8" unicode="&#x1ee8;" horiz-adv-x="700" 
d="M439 976l-164 -149l-44 27l125 166zM153 754l-0.000976562 -444.998c0 -158 60.667 -237 182 -237s182 79 182 237v445h94v-123c12 4 21 9.5 27 16.5s10.333 14.167 13 21.5s4.16699 13.833 4.5 19.5s0.5 9.16699 0.5 10.5v55h81v-53
c0 -26.667 -5.66699 -48.167 -17 -64.5s-24.166 -28.833 -38.499 -37.5s-28.5 -14.334 -42.5 -17.001s-23.333 -4 -28 -4v-301c0 -86 -25 -156.333 -75 -211c-48.667 -54.667 -115.667 -82 -201 -82c-84.667 0 -152 27.333 -202 82c-49.333 55.333 -74 125.666 -74 210.999
v477h94z" />
    <glyph glyph-name="uni1EE9" unicode="&#x1ee9;" horiz-adv-x="522" 
d="M360 690l-164 -149l-44 27l125 166zM148 468l-0.000976562 -259.003c0 -44 7.83301 -78.5 23.5 -103.5s43.834 -37.5 84.501 -37.5s68.834 12.5 84.501 37.5s23.5 59.5 23.5 103.5v259h90v-119c8.66699 4.66699 15.5 10.334 20.5 17.001s8.5 13.334 10.5 20.001
s3.16699 12.5 3.5 17.5s0.5 8.16699 0.5 9.5v55h81v-53c0 -23.333 -4.5 -42.666 -13.5 -57.999s-19.667 -27.5 -32 -36.5s-25.166 -15.667 -38.499 -20s-24 -6.83301 -32 -7.5v-94c0 -66.667 -16.333 -119.167 -49 -157.5s-82.334 -57.5 -149.001 -57.5
s-116.334 19.167 -149.001 57.5s-49 90.833 -49 157.5v269h90z" />
    <glyph glyph-name="uni1EEA" unicode="&#x1eea;" horiz-adv-x="700" 
d="M302 1020l125 -166l-44 -27l-164 149zM153 754l-0.000976562 -444.998c0 -158 60.667 -237 182 -237s182 79 182 237v445h94v-123c12 4 21 9.5 27 16.5s10.333 14.167 13 21.5s4.16699 13.833 4.5 19.5s0.5 9.16699 0.5 10.5v55h81v-53
c0 -26.667 -5.66699 -48.167 -17 -64.5s-24.166 -28.833 -38.499 -37.5s-28.5 -14.334 -42.5 -17.001s-23.333 -4 -28 -4v-301c0 -86 -25 -156.333 -75 -211c-48.667 -54.667 -115.667 -82 -201 -82c-84.667 0 -152 27.333 -202 82c-49.333 55.333 -74 125.666 -74 210.999
v477h94z" />
    <glyph glyph-name="uni1EEB" unicode="&#x1eeb;" horiz-adv-x="522" 
d="M148 468l-0.000976562 -259.003c0 -44 7.83301 -78.5 23.5 -103.5s43.834 -37.5 84.501 -37.5s68.834 12.5 84.501 37.5s23.5 59.5 23.5 103.5v259h90v-119c8.66699 4.66699 15.5 10.334 20.5 17.001s8.5 13.334 10.5 20.001s3.16699 12.5 3.5 17.5s0.5 8.16699 0.5 9.5
v55h81v-53c0 -23.333 -4.5 -42.666 -13.5 -57.999s-19.667 -27.5 -32 -36.5s-25.166 -15.667 -38.499 -20s-24 -6.83301 -32 -7.5v-94c0 -66.667 -16.333 -119.167 -49 -157.5s-82.334 -57.5 -149.001 -57.5s-116.334 19.167 -149.001 57.5s-49 90.833 -49 157.5v269h90z
M239.999 733.997l125 -166l-44 -27l-164 149z" />
    <glyph glyph-name="uni1EEC" unicode="&#x1eec;" horiz-adv-x="700" 
d="M153 754l-0.000976562 -444.998c0 -158 60.667 -237 182 -237s182 79 182 237v445h94v-123c12 4 21 9.5 27 16.5s10.333 14.167 13 21.5s4.16699 13.833 4.5 19.5s0.5 9.16699 0.5 10.5v55h81v-53c0 -26.667 -5.66699 -48.167 -17 -64.5s-24.166 -28.833 -38.499 -37.5
s-28.5 -14.334 -42.5 -17.001s-23.333 -4 -28 -4v-301c0 -86 -25 -156.333 -75 -211c-48.667 -54.667 -115.667 -82 -201 -82c-84.667 0 -152 27.333 -202 82c-49.333 55.333 -74 125.666 -74 210.999v477h94zM437.999 900.002
c-3.33301 -11.333 -8.99805 -20.998 -16.998 -28.998s-16 -15.333 -24 -22c-5.33301 -4.66699 -10 -9 -14 -13s-6.66699 -8.66699 -8 -14h-59c3.33301 19.333 9.16602 33.166 17.499 41.499s16.833 16.166 25.5 23.499c7.33301 5.33301 13.666 11.166 18.999 17.499
s8 14.166 8 23.499c0 12 -4 21.333 -12 28s-17.667 10 -29 10c-10.667 0 -19.5 -3.5 -26.5 -10.5s-10.5 -15.5 -10.5 -25.5c0 -3.33301 0.166992 -6.33301 0.5 -9s1.16602 -7 2.49902 -13h-58l-1 22c0 25.333 9.33301 46.333 28 63c19.333 17.333 41.333 26 66 26
c26.667 0 49.334 -9 68.001 -27c9.33301 -9.33301 17 -22.166 23 -38.499s6.33301 -34.166 1 -53.499z" />
    <glyph glyph-name="uni1EED" unicode="&#x1eed;" horiz-adv-x="522" 
d="M148 468l-0.000976562 -259.003c0 -44 7.83301 -78.5 23.5 -103.5s43.834 -37.5 84.501 -37.5s68.834 12.5 84.501 37.5s23.5 59.5 23.5 103.5v259h90v-119c8.66699 4.66699 15.5 10.334 20.5 17.001s8.5 13.334 10.5 20.001s3.16699 12.5 3.5 17.5s0.5 8.16699 0.5 9.5
v55h81v-53c0 -23.333 -4.5 -42.666 -13.5 -57.999s-19.667 -27.5 -32 -36.5s-25.166 -15.667 -38.499 -20s-24 -6.83301 -32 -7.5v-94c0 -66.667 -16.333 -119.167 -49 -157.5s-82.334 -57.5 -149.001 -57.5s-116.334 19.167 -149.001 57.5s-49 90.833 -49 157.5v269h90z
M343.999 639.997c-3.33301 -11.333 -8.99805 -20.998 -16.998 -28.998s-16 -15.333 -24 -22c-5.33301 -4.66699 -10 -9 -14 -13s-6.66699 -8.66699 -8 -14h-59c3.33301 19.333 9.16602 33.166 17.499 41.499s16.833 16.166 25.5 23.499
c7.33301 5.33301 13.666 11.166 18.999 17.499s8 14.166 8 23.499c0 12 -4 21.333 -12 28s-17.667 10 -29 10c-10.667 0 -19.5 -3.5 -26.5 -10.5s-10.5 -15.5 -10.5 -25.5c0 -3.33301 0.166992 -6.33301 0.5 -9s1.16602 -7 2.49902 -13h-58l-1 22
c0 25.333 9.33301 46.333 28 63c19.333 17.333 41.333 26 66 26c26.667 0 49.334 -9 68.001 -27c9.33301 -9.33301 17 -22.166 23 -38.499s6.33301 -34.166 1 -53.499z" />
    <glyph glyph-name="uni1EEE" unicode="&#x1eee;" horiz-adv-x="700" 
d="M144 873l3 5c11.333 16 21 28.667 29 38s19 18 33 26s29.333 12 46 12c26.667 0 56.334 -8.66699 89.001 -26c32.667 -18 56.667 -27 72 -27c23.333 0 44.666 16 63.999 48l47 -39c-26.667 -54.667 -66 -82 -118 -82c-18.667 0 -46.334 8.66699 -83.001 26
c-35.333 16.667 -61.333 25 -78 25c-11.333 0 -22.166 -4.66699 -32.499 -14s-18.5 -20 -24.5 -32zM153 754l-0.000976562 -444.998c0 -158 60.667 -237 182 -237s182 79 182 237v445h94v-123c12 4 21 9.5 27 16.5s10.333 14.167 13 21.5s4.16699 13.833 4.5 19.5
s0.5 9.16699 0.5 10.5v55h81v-53c0 -26.667 -5.66699 -48.167 -17 -64.5s-24.166 -28.833 -38.499 -37.5s-28.5 -14.334 -42.5 -17.001s-23.333 -4 -28 -4v-301c0 -86 -25 -156.333 -75 -211c-48.667 -54.667 -115.667 -82 -201 -82c-84.667 0 -152 27.333 -202 82
c-49.333 55.333 -74 125.666 -74 210.999v477h94z" />
    <glyph glyph-name="uni1EEF" unicode="&#x1eef;" horiz-adv-x="522" 
d="M65 613l3 5c11.333 16 21 28.667 29 38s19 18 33 26s29.333 12 46 12c26.667 0 56.334 -8.66699 89.001 -26c32.667 -18 56.667 -27 72 -27c23.333 0 44.666 16 63.999 48l47 -39c-26.667 -54.667 -66 -82 -118 -82c-18.667 0 -46.334 8.66699 -83.001 26
c-35.333 16.667 -61.333 25 -78 25c-11.333 0 -22.166 -4.66699 -32.499 -14s-18.5 -20 -24.5 -32zM148 468l-0.000976562 -259.003c0 -44 7.83301 -78.5 23.5 -103.5s43.834 -37.5 84.501 -37.5s68.834 12.5 84.501 37.5s23.5 59.5 23.5 103.5v259h90v-119
c8.66699 4.66699 15.5 10.334 20.5 17.001s8.5 13.334 10.5 20.001s3.16699 12.5 3.5 17.5s0.5 8.16699 0.5 9.5v55h81v-53c0 -23.333 -4.5 -42.666 -13.5 -57.999s-19.667 -27.5 -32 -36.5s-25.166 -15.667 -38.499 -20s-24 -6.83301 -32 -7.5v-94
c0 -66.667 -16.333 -119.167 -49 -157.5s-82.334 -57.5 -149.001 -57.5s-116.334 19.167 -149.001 57.5s-49 90.833 -49 157.5v269h90z" />
    <glyph glyph-name="uni1EF0" unicode="&#x1ef0;" horiz-adv-x="700" 
d="M153 754l-0.000976562 -444.998c0 -158 60.667 -237 182 -237s182 79 182 237v445h94v-123c12 4 21 9.5 27 16.5s10.333 14.167 13 21.5s4.16699 13.833 4.5 19.5s0.5 9.16699 0.5 10.5v55h81v-53c0 -26.667 -5.66699 -48.167 -17 -64.5s-24.166 -28.833 -38.499 -37.5
s-28.5 -14.334 -42.5 -17.001s-23.333 -4 -28 -4v-301c0 -86 -25 -156.333 -75 -211c-48.667 -54.667 -115.667 -82 -201 -82c-84.667 0 -152 27.333 -202 82c-49.333 55.333 -74 125.666 -74 210.999v477h94zM288.999 -129.998c0 16.667 6 30.834 18 42.501
s26.333 17.5 43 17.5s30.834 -5.83301 42.501 -17.5s17.5 -25.834 17.5 -42.501s-5.83301 -31 -17.5 -43s-25.834 -18 -42.501 -18s-31 5.83301 -43 17.5s-18 26.167 -18 43.5z" />
    <glyph glyph-name="uni1EF1" unicode="&#x1ef1;" horiz-adv-x="522" 
d="M148 468l-0.000976562 -259.003c0 -44 7.83301 -78.5 23.5 -103.5s43.834 -37.5 84.501 -37.5s68.834 12.5 84.501 37.5s23.5 59.5 23.5 103.5v259h90v-119c8.66699 4.66699 15.5 10.334 20.5 17.001s8.5 13.334 10.5 20.001s3.16699 12.5 3.5 17.5s0.5 8.16699 0.5 9.5
v55h81v-53c0 -23.333 -4.5 -42.666 -13.5 -57.999s-19.667 -27.5 -32 -36.5s-25.166 -15.667 -38.499 -20s-24 -6.83301 -32 -7.5v-94c0 -66.667 -16.333 -119.167 -49 -157.5s-82.334 -57.5 -149.001 -57.5s-116.334 19.167 -149.001 57.5s-49 90.833 -49 157.5v269h90z
M199.999 -130.003c0 16.667 6 30.834 18 42.501s26.333 17.5 43 17.5s30.834 -5.83301 42.501 -17.5s17.5 -25.834 17.5 -42.501s-5.83301 -31 -17.5 -43s-25.834 -18 -42.501 -18s-31 5.83301 -43 17.5s-18 26.167 -18 43.5z" />
    <glyph glyph-name="Ygrave" unicode="&#x1ef2;" horiz-adv-x="573" 
d="M-6 754h108l185 -322l185 322h108l-246 -426v-328h-94v328zM265 994l125 -166l-44 -27l-164 149z" />
    <glyph glyph-name="ygrave" unicode="&#x1ef3;" horiz-adv-x="484" 
d="M-13 468h105l158 -297l147 297h101l-379 -736h-102l184 348zM221 734l125 -166l-44 -27l-164 149z" />
    <glyph glyph-name="uni1EF4" unicode="&#x1ef4;" horiz-adv-x="573" 
d="M-6 754h108l185 -322l185 322h108l-246 -426v-328h-94v328zM226 -130c0 16.667 6 30.834 18 42.501s26.333 17.5 43 17.5s30.834 -5.83301 42.501 -17.5s17.5 -25.834 17.5 -42.501s-5.83301 -31 -17.5 -43s-25.834 -18 -42.501 -18s-31 5.83301 -43 17.5
s-18 26.167 -18 43.5z" />
    <glyph glyph-name="uni1EF5" unicode="&#x1ef5;" horiz-adv-x="484" 
d="M-13 468h105l158 -297l147 297h101l-379 -736h-102l184 348zM250 -130c0 16.667 6 30.834 18 42.501s26.333 17.5 43 17.5s30.834 -5.83301 42.501 -17.5s17.5 -25.834 17.5 -42.501s-5.83301 -31 -17.5 -43s-25.834 -18 -42.501 -18s-31 5.83301 -43 17.5
s-18 26.167 -18 43.5z" />
    <glyph glyph-name="uni1EF6" unicode="&#x1ef6;" horiz-adv-x="573" 
d="M-6 754h108l185 -322l185 322h108l-246 -426v-328h-94v328zM375 900c-3.33301 -11.333 -8.99805 -20.998 -16.998 -28.998s-16 -15.333 -24 -22c-5.33301 -4.66699 -10 -9 -14 -13s-6.66699 -8.66699 -8 -14h-59c3.33301 19.333 9.16602 33.166 17.499 41.499
s16.833 16.166 25.5 23.499c7.33301 5.33301 13.666 11.166 18.999 17.499s8 14.166 8 23.499c0 12 -4 21.333 -12 28s-17.667 10 -29 10c-10.667 0 -19.5 -3.5 -26.5 -10.5s-10.5 -15.5 -10.5 -25.5c0 -3.33301 0.166992 -6.33301 0.5 -9s1.16602 -7 2.49902 -13h-58l-1 22
c0 25.333 9.33301 46.333 28 63c19.333 17.333 41.333 26 66 26c26.667 0 49.334 -9 68.001 -27c9.33301 -9.33301 17 -22.166 23 -38.499s6.33301 -34.166 1 -53.499z" />
    <glyph glyph-name="uni1EF7" unicode="&#x1ef7;" horiz-adv-x="484" 
d="M-13 468h105l158 -297l147 297h101l-379 -736h-102l184 348zM330 640c-3.33301 -11.333 -8.99805 -20.998 -16.998 -28.998s-16 -15.333 -24 -22c-5.33301 -4.66699 -10 -9 -14 -13s-6.66699 -8.66699 -8 -14h-59c3.33301 19.333 9.16602 33.166 17.499 41.499
s16.833 16.166 25.5 23.499c7.33301 5.33301 13.666 11.166 18.999 17.499s8 14.166 8 23.499c0 12 -4 21.333 -12 28s-17.667 10 -29 10c-10.667 0 -19.5 -3.5 -26.5 -10.5s-10.5 -15.5 -10.5 -25.5c0 -3.33301 0.166992 -6.33301 0.5 -9s1.16602 -7 2.49902 -13h-58l-1 22
c0 25.333 9.33301 46.333 28 63c19.333 17.333 41.333 26 66 26c26.667 0 49.334 -9 68.001 -27c9.33301 -9.33301 17 -22.166 23 -38.499s6.33301 -34.166 1 -53.499z" />
    <glyph glyph-name="uni1EF8" unicode="&#x1ef8;" horiz-adv-x="573" 
d="M-6 754h108l185 -322l185 322h108l-246 -426v-328h-94v328zM95 873l3 5c11.333 16 21 28.667 29 38s19 18 33 26s29.333 12 46 12c26.667 0 56.334 -8.66699 89.001 -26c32.667 -18 56.667 -27 72 -27c23.333 0 44.666 16 63.999 48l47 -39
c-26.667 -54.667 -66 -82 -118 -82c-18.667 0 -46.334 8.66699 -83.001 26c-35.333 16.667 -61.333 25 -78 25c-11.333 0 -22.166 -4.66699 -32.499 -14s-18.5 -20 -24.5 -32z" />
    <glyph glyph-name="uni1EF9" unicode="&#x1ef9;" horiz-adv-x="484" 
d="M-13 468h105l158 -297l147 297h101l-379 -736h-102l184 348zM51 613l3 5c11.333 16 21 28.667 29 38s19 18 33 26s29.333 12 46 12c26.667 0 56.334 -8.66699 89.001 -26c32.667 -18 56.667 -27 72 -27c23.333 0 44.666 16 63.999 48l47 -39
c-26.667 -54.667 -66 -82 -118 -82c-18.667 0 -46.334 8.66699 -83.001 26c-35.333 16.667 -61.333 25 -78 25c-11.333 0 -22.166 -4.66699 -32.499 -14s-18.5 -20 -24.5 -32z" />
    <glyph glyph-name="endash" unicode="&#x2013;" horiz-adv-x="500" 
d="M500 358v-75h-500v75h500z" />
    <glyph glyph-name="emdash" unicode="&#x2014;" horiz-adv-x="1000" 
d="M1000 358v-75h-1000v75h1000z" />
    <glyph glyph-name="quoteleft" unicode="&#x2018;" horiz-adv-x="277" 
d="M60 503l133 267l56 -23l-110 -275z" />
    <glyph glyph-name="quoteright" unicode="&#x2019;" horiz-adv-x="277" 
d="M217 739l-133 -267l-56 23l110 275z" />
    <glyph glyph-name="quotesinglbase" unicode="&#x201a;" horiz-adv-x="277" 
d="M242 88l-133 -267l-55 23l110 275z" />
    <glyph glyph-name="quotedblleft" unicode="&#x201c;" horiz-adv-x="439" 
d="M226 503l133 267l56 -23l-110 -275zM60 503l133 267l56 -23l-110 -275z" />
    <glyph glyph-name="quotedblright" unicode="&#x201d;" horiz-adv-x="439" 
d="M213 739l-133 -267l-56 23l110 275zM379 739l-133 -267l-56 23l110 275z" />
    <glyph glyph-name="quotedblbase" unicode="&#x201e;" horiz-adv-x="439" 
d="M238 88l-133 -267l-55 23l110 275zM404 88l-133 -267l-55 23l110 275z" />
    <glyph glyph-name="dagger" unicode="&#x2020;" 
d="M334 868v-275h181v-86h-181v-595h-90v595h-181v86h181v275h90z" />
    <glyph glyph-name="daggerdbl" unicode="&#x2021;" 
d="M334 868v-239h181v-86h-181v-122h181v-86h-181v-422h-90v422h-181v86h181v122h-181v86h181v239h90z" />
    <glyph glyph-name="bullet" unicode="&#x2022;" 
d="M101 377c-0.666992 52.667 17.3311 97.333 53.998 134s81.334 55 134.001 55s97.334 -18.333 134.001 -55s55 -81.334 55 -134.001c0 -51.333 -18.667 -95.666 -56 -132.999c-36.667 -36.667 -81 -55 -133 -55s-96.333 18.333 -133 55s-55 81 -55 133z" />
    <glyph glyph-name="ellipsis" unicode="&#x2026;" horiz-adv-x="1000" 
d="M558 42c0 -16 -5.66699 -29.667 -17 -41s-25 -17 -41 -17s-29.667 5.66699 -41 17s-17 25 -17 41c0 15.333 5.66699 28.833 17 40.5s25 17.5 41 17.5s29.667 -5.83301 41 -17.5s17 -25.167 17 -40.5zM892 42c0 -16 -5.66699 -29.667 -17 -41s-25 -17 -41 -17
s-29.667 5.66699 -41 17s-17 25 -17 41c0 15.333 5.66699 28.833 17 40.5s25 17.5 41 17.5s29.667 -5.83301 41 -17.5s17 -25.167 17 -40.5zM224 42c0 -16 -5.66699 -29.667 -17 -41s-25 -17 -41 -17s-29.667 5.66699 -41 17s-17 25 -17 41c0 15.333 5.66699 28.833 17 40.5
s25 17.5 41 17.5s29.667 -5.83301 41 -17.5s17 -25.167 17 -40.5z" />
    <glyph glyph-name="perthousand" unicode="&#x2030;" horiz-adv-x="1110" 
d="M74 719c34.667 34 76 50.999 124 50.999c47.333 0 88.666 -17 123.999 -51c34.667 -32.667 52 -73 52 -121c0 -47.333 -17.667 -87.666 -53 -120.999s-76.333 -50 -123 -50c-47.333 0 -88.666 16.667 -123.999 50c-34.667 32.667 -52 73 -52 121s17.333 88.333 52 121z
M82 597.999c0 -30 11.333 -56 34 -78s50 -33 82 -33c30.667 0 57.667 11 81 33s35 48 35 78c0 30.667 -11.667 57 -35 79s-50.333 33 -81 33c-32 0 -59.333 -11 -82 -33s-34 -48.333 -34 -79zM602 743.999l-440 -760l-46 25l441 761zM397 275.999
c34.667 34 76 50.999 124 50.999c47.333 0 88.666 -17 123.999 -51c34.667 -32.667 52 -73 52 -121c0 -47.333 -17.667 -87.666 -53 -120.999s-76.333 -50 -123 -50c-47.333 0 -88.666 16.667 -123.999 50c-34.667 32.667 -52 73 -52 121s17.333 88.333 52 121zM405 154.998
c0 -30 11.333 -56 34 -78s50 -33 82 -33c30.667 0 57.667 11 81 33s35 48 35 78c0 30.667 -11.667 57 -35 79s-50.333 33 -81 33c-32 0 -59.333 -11 -82 -33s-34 -48.333 -34 -79zM789 275.998c34.667 34 76 50.999 124 50.999c47.333 0 88.666 -17 123.999 -51
c34.667 -32.667 52 -73 52 -121c0 -47.333 -17.667 -87.666 -53 -120.999s-76.333 -50 -123 -50c-47.333 0 -88.666 16.667 -123.999 50c-34.667 32.667 -52 73 -52 121s17.333 88.333 52 121zM797 154.997c0 -30 11.333 -56 34 -78s50 -33 82 -33c30.667 0 57.667 11 81 33
s35 48 35 78c0 30.667 -11.667 57 -35 79s-50.333 33 -81 33c-32 0 -59.333 -11 -82 -33s-34 -48.333 -34 -79z" />
    <glyph glyph-name="guilsinglleft" unicode="&#x2039;" horiz-adv-x="336" 
d="M260 129l-56 -41l-182 232l182 240l56 -41l-149 -199z" />
    <glyph glyph-name="guilsinglright" unicode="&#x203a;" horiz-adv-x="336" 
d="M225 320l-149 199l56 41l182 -240l-182 -232l-56 41z" />
    <glyph glyph-name="fraction" unicode="&#x2044;" horiz-adv-x="165" 
d="M328 744l-440 -760l-51 28l440 758z" />
    <glyph glyph-name="Euro" unicode="&#x20ac;" 
d="M568 644c-43.333 26.667 -95.9971 40 -157.997 40c-70.667 0 -125.334 -21.333 -164.001 -64c-39.333 -43.333 -64.333 -96.666 -75 -159.999h357l-14 -58h-351c-0.666992 -5.33301 -1 -10.166 -1 -14.499v-11.5c0 -16.667 1.33301 -32.667 4 -48h323l-14 -58h-299
c12.667 -56.667 38 -104.334 76 -143.001c38.667 -38 90.667 -57 156 -57c32 0 59.667 3.5 83 10.5s49 20.167 77 39.5v-101c-43.333 -23.333 -95.666 -35 -156.999 -35c-88 0 -161.667 24.333 -221 73c-60.667 49.333 -98.334 120.333 -113.001 213h-77l14 58h56
c-0.666992 12 -1.16699 21.667 -1.5 29s-0.5 12.666 -0.5 15.999v14c0 4.66699 0.333008 9.66699 1 15h-68l14 58h60c16.667 100.667 56 177.334 118 230.001c63.333 53.333 138.666 80 225.999 80c13.333 0 27.666 -0.833008 42.999 -2.5s30.5 -4.33398 45.5 -8.00098
s29.5 -8 43.5 -13s26.667 -10.833 38 -17.5z" />
    <glyph glyph-name="trademark" unicode="&#x2122;" horiz-adv-x="940" 
d="M906 333h-64v357h-2l-144 -357h-39l-140 357h-2v-357h-64v421h105l121 -297l125 297h104v-421zM374 690h-138v-357h-64v357h-138v64h340v-64z" />
    <glyph glyph-name="minus" unicode="&#x2212;" 
d="M33 299h512v-86h-512v86z" />
    <glyph glyph-name="fi" unicode="&#xfb01;" horiz-adv-x="512" 
d="M430 0h-90v468h90v-468zM447 682c0 -16.667 -6 -31 -18 -43s-26.667 -18 -44 -18s-32 6 -44 18s-18 26.333 -18 43c0 17.333 6 32.166 18 44.499s26.667 18.5 44 18.5s32 -6.16699 44 -18.5s18 -27.166 18 -44.499zM294 777c-28 12.667 -48 19 -60 19
c-19.333 0 -33.333 -6.16699 -42 -18.5s-14.667 -27.5 -18 -45.5c-2 -13.333 -3.16699 -23.833 -3.5 -31.5s-0.5 -18.167 -0.5 -31.5v-201h124v-84h-124v-384h-90v384h-41v84h41v228c0 122.667 50.333 184 151 184c22 0 43 -4 63 -12v-91z" />
    <glyph glyph-name="fl" unicode="&#xfb02;" horiz-adv-x="497" 
d="M431 0h-90v868h90v-868zM294 777c-28 12.667 -48 19 -60 19c-19.333 0 -33.333 -6.16699 -42 -18.5s-14.667 -27.5 -18 -45.5c-2 -13.333 -3.16699 -23.833 -3.5 -31.5s-0.5 -18.167 -0.5 -31.5v-201h124v-84h-124v-384h-90v384h-41v84h41v228
c0 122.667 50.333 184 151 184c22 0 43 -4 63 -12v-91z" />
    <glyph glyph-name="NULL" horiz-adv-x="0" 
 />
    <glyph glyph-name="nonmarkingreturn" horiz-adv-x="333" 
 />
    <glyph glyph-name="hyphen" horiz-adv-x="332" 
d="M276 358v-75h-219v75h219z" />
    <glyph glyph-name="oldcurrency" 
d="M543 486l-41 -44c28 -44 42 -91.333 42 -142s-14 -98 -42 -142l41 -44l-60 -60l-46 44c-42 -32 -91.333 -48 -148 -48s-106 16 -148 48l-46 -44l-60 60l41 44c-28 44 -42 91.333 -42 142s14 98 42 142l-41 44l60 60l46 -44c42 32 91.333 48 148 48s106 -16 148 -48l46 44
zM464 300c0.666992 48.667 -15.667 89.334 -49 122.001c-33.333 32 -75.333 48 -126 48c-51.333 0 -93.333 -16 -126 -48c-33.333 -32.667 -49.666 -73.334 -48.999 -122.001c0.666992 -46 18 -86 52 -120c34.667 -33.333 75.667 -50 123 -50s88.333 16.667 123 50
c33.333 32.667 50.666 72.667 51.999 120z" />
    </font>
</defs>
</svg>
